<svg width="57" height="55" viewBox="0 0 57 55" fill="none" xmlns="http://www.w3.org/2000/svg">
<g filter="url(#filter0_d_37_22)">
<path d="M39.9396 9.16669C42.4742 9.16669 44.4198 11.0986 45.8613 13.1771L46.3494 13.9127L46.7963 14.6461C46.9384 14.8859 47.0743 15.1212 47.2042 15.3519C49.0077 18.5763 50.5775 22.7861 51.6157 26.9454C52.6469 31.0727 53.2175 35.3834 52.8532 38.7727C52.4865 42.1759 50.7334 45.8334 46.8146 45.8334C43.2992 45.8334 40.5286 43.9542 38.2782 42.1186L35.7344 39.985C33.6192 38.2525 31.3046 36.6667 28.4813 36.6667C25.6579 36.6667 23.3411 38.2525 21.2305 39.985L18.6867 42.1163C16.4317 43.9542 13.6611 45.8334 10.1479 45.8334C6.22691 45.8334 4.47378 42.1759 4.10941 38.7727C3.74732 35.3811 4.31566 31.0727 5.34691 26.9454C6.38503 22.7861 7.95482 18.5763 9.75837 15.3519L10.1663 14.6438L10.6132 13.9127L11.1013 13.1771C12.5427 11.0986 14.4884 9.16669 17.0229 9.16669C18.1917 9.16669 19.3536 9.45085 20.4948 9.78544L21.8538 10.2025C22.0784 10.2713 22.3014 10.337 22.5229 10.3996C24.5052 10.9679 26.5334 11.4584 28.4813 11.4584C30.4292 11.4584 32.4573 10.9679 34.4396 10.3996L36.4677 9.78773C37.609 9.45085 38.7709 9.16669 39.9396 9.16669ZM20.4604 18.3334C18.941 18.3334 17.4837 18.937 16.4093 20.0114C15.3349 21.0858 14.7313 22.5431 14.7313 24.0625C14.7313 25.582 15.3349 27.0392 16.4093 28.1137C17.4837 29.1881 18.941 29.7917 20.4604 29.7917C21.9799 29.7917 23.4372 29.1881 24.5116 28.1137C25.586 27.0392 26.1896 25.582 26.1896 24.0625C26.1896 22.5431 25.586 21.0858 24.5116 20.0114C23.4372 18.937 21.9799 18.3334 20.4604 18.3334ZM36.5021 18.3334C35.8943 18.3334 35.3114 18.5748 34.8817 19.0046C34.4519 19.4343 34.2104 20.0172 34.2104 20.625V21.7709H33.0646C32.4568 21.7709 31.8739 22.0123 31.4442 22.4421C31.0144 22.8718 30.7729 23.4547 30.7729 24.0625C30.7729 24.6703 31.0144 25.2532 31.4442 25.683C31.8739 26.1127 32.4568 26.3542 33.0646 26.3542H34.2104V27.5C34.2104 28.1078 34.4519 28.6907 34.8817 29.1205C35.3114 29.5502 35.8943 29.7917 36.5021 29.7917C37.1099 29.7917 37.6928 29.5502 38.1226 29.1205C38.5523 28.6907 38.7938 28.1078 38.7938 27.5V26.3542H39.9396C40.5474 26.3542 41.1303 26.1127 41.5601 25.683C41.9898 25.2532 42.2313 24.6703 42.2313 24.0625C42.2313 23.4547 41.9898 22.8718 41.5601 22.4421C41.1303 22.0123 40.5474 21.7709 39.9396 21.7709H38.7938V20.625C38.7938 20.0172 38.5523 19.4343 38.1226 19.0046C37.6928 18.5748 37.1099 18.3334 36.5021 18.3334ZM20.4604 22.9167C20.7643 22.9167 21.0558 23.0374 21.2707 23.2523C21.4856 23.4672 21.6063 23.7586 21.6063 24.0625C21.6063 24.3664 21.4856 24.6579 21.2707 24.8727C21.0558 25.0876 20.7643 25.2084 20.4604 25.2084C20.1566 25.2084 19.8651 25.0876 19.6502 24.8727C19.4353 24.6579 19.3146 24.3664 19.3146 24.0625C19.3146 23.7586 19.4353 23.4672 19.6502 23.2523C19.8651 23.0374 20.1566 22.9167 20.4604 22.9167Z" fill="white"/>
</g>
<defs>
<filter id="filter0_d_37_22" x="-3.01868" y="0" width="63" height="63" filterUnits="userSpaceOnUse" color-interpolation-filters="sRGB">
<feFlood flood-opacity="0" result="BackgroundImageFix"/>
<feColorMatrix in="SourceAlpha" type="matrix" values="0 0 0 0 0 0 0 0 0 0 0 0 0 0 0 0 0 0 127 0" result="hardAlpha"/>
<feOffset dy="4"/>
<feGaussianBlur stdDeviation="2"/>
<feComposite in2="hardAlpha" operator="out"/>
<feColorMatrix type="matrix" values="0 0 0 0 0 0 0 0 0 0 0 0 0 0 0 0 0 0 0.25 0"/>
<feBlend mode="normal" in2="BackgroundImageFix" result="effect1_dropShadow_37_22"/>
<feBlend mode="normal" in="SourceGraphic" in2="effect1_dropShadow_37_22" result="shape"/>
</filter>
</defs>
</svg>
