<svg width="350" height="181" viewBox="0 0 350 181" fill="none" xmlns="http://www.w3.org/2000/svg">
<g clip-path="url(#clip0_15_201)">
<rect width="350" height="181" rx="15" fill="url(#paint0_linear_15_201)"/>
<path d="M-13 117.126C-13 117.126 5.05429 175.147 64.5 168.255C123.007 161.472 128.185 112.942 185.5 99.2551C219 91.2551 251.162 123.947 281.673 128.283C310.735 132.413 356 117.126 356 117.126V482.255H-13V117.126Z" fill="#FD9292"/>
<path d="M-161 142.372C-161 142.372 -82.5377 199.508 -0.699417 192.848C79.8468 186.292 66.3768 117.926 147.429 120.316C189.847 121.567 202.671 148.963 244.674 153.154C284.684 157.146 347 142.372 347 142.372V495.255H-161V142.372Z" fill="url(#paint1_linear_15_201)" fill-opacity="0.8"/>
<path d="M455 198.414C455 198.414 389.405 242.884 309.5 235.975C230.856 229.175 240.991 145.881 154.357 180.476C90.5 205.975 69.5112 144.128 28.5 148.475C-10.5648 152.616 -41 198.414 -41 198.414V564.476H455V198.414Z" fill="#FFDBDB" fill-opacity="0.9"/>
<path d="M112.34 85V71.84H113.82V85H112.34ZM103.18 85V71.84H104.66V85H103.18ZM103.68 73.02V71.84H113.34V73.02H103.68ZM121.82 85.12C120.9 85.12 120.073 84.9133 119.34 84.5C118.607 84.0867 118.033 83.5267 117.62 82.82C117.207 82.1133 117 81.32 117 80.44C117 79.52 117.213 78.6933 117.64 77.96C118.067 77.2267 118.66 76.6467 119.42 76.22C120.18 75.78 121.04 75.56 122 75.56C122.933 75.56 123.767 75.7667 124.5 76.18C125.233 76.5933 125.807 77.16 126.22 77.88C126.647 78.5867 126.86 79.3933 126.86 80.3C126.86 81.2333 126.633 82.0667 126.18 82.8C125.74 83.52 125.14 84.0867 124.38 84.5C123.62 84.9133 122.767 85.12 121.82 85.12ZM121.96 84.08C122.627 84.08 123.213 83.9267 123.72 83.62C124.24 83.3133 124.647 82.8867 124.94 82.34C125.233 81.7933 125.38 81.1533 125.38 80.42C125.38 79.6733 125.227 79.0133 124.92 78.44C124.627 77.8533 124.213 77.4 123.68 77.08C123.16 76.76 122.56 76.6 121.88 76.6C121.227 76.6 120.64 76.7533 120.12 77.06C119.613 77.3667 119.207 77.8 118.9 78.36C118.607 78.92 118.46 79.5667 118.46 80.3C118.46 81.0467 118.607 81.7067 118.9 82.28C119.207 82.84 119.62 83.28 120.14 83.6C120.673 83.92 121.28 84.08 121.96 84.08ZM130.375 85V84.32L136.795 75.68H137.615V76.38L131.195 85H130.375ZM129.675 85V75.68H130.975L130.915 85H129.675ZM136.955 85L137.015 75.68H138.255V85H136.955ZM133.795 74.46C133.235 74.46 132.702 74.32 132.195 74.04C131.702 73.76 131.309 73.3533 131.015 72.82L131.955 71.98C132.249 72.5133 132.589 72.88 132.975 73.08C133.375 73.28 133.769 73.38 134.155 73.38C134.582 73.38 134.975 73.2667 135.335 73.04C135.709 72.8 136.015 72.4333 136.255 71.94L136.895 72.36C136.615 73.0667 136.189 73.5933 135.615 73.94C135.042 74.2867 134.435 74.46 133.795 74.46ZM151.042 85L150.602 76.3L151.022 76.14L147.482 84.62H146.722L142.822 76.08L143.142 75.68H143.922L147.462 83.24H146.862L150.262 75.68H151.802L152.422 85H151.042ZM141.802 85L142.342 75.68H143.342L143.082 85H141.802ZM156.684 85V84.32L163.104 75.68H163.924V76.38L157.504 85H156.684ZM155.984 85V75.68H157.284L157.224 85H155.984ZM163.264 85L163.324 75.68H164.564V85H163.264ZM173.133 85V75.68H179.953V76.72H174.413V83.94H176.953C177.726 83.94 178.306 83.8 178.693 83.52C179.093 83.24 179.293 82.8133 179.293 82.24C179.293 81.68 179.093 81.26 178.693 80.98C178.306 80.7 177.619 80.56 176.633 80.56C176.353 80.56 175.979 80.5733 175.513 80.6C175.046 80.6267 174.566 80.6867 174.073 80.78V79.92C174.673 79.76 175.253 79.66 175.813 79.62C176.386 79.5667 176.879 79.54 177.293 79.54C178.399 79.54 179.226 79.7533 179.773 80.18C180.333 80.5933 180.613 81.2133 180.613 82.04C180.613 82.64 180.466 83.16 180.173 83.6C179.879 84.04 179.446 84.3867 178.873 84.64C178.313 84.88 177.619 85 176.793 85H173.133ZM183.23 85V75.68H184.59V85H183.23ZM183.69 85V83.92H190.19V85H183.69ZM183.69 80.86V79.8H188.99V80.86H183.69ZM183.69 76.74V75.68H189.79V76.74H183.69ZM195.579 85.1C194.646 85.1 193.859 84.9133 193.219 84.54C192.579 84.1533 192.152 83.6533 191.939 83.04L193.099 82.54C193.232 82.9133 193.426 83.22 193.679 83.46C193.932 83.6867 194.232 83.8533 194.579 83.96C194.926 84.0667 195.286 84.12 195.659 84.12C196.366 84.12 196.926 83.96 197.339 83.64C197.766 83.32 197.979 82.8867 197.979 82.34C197.979 81.8333 197.792 81.4267 197.419 81.12C197.046 80.8133 196.379 80.66 195.419 80.66H194.539V79.7H195.419C196.099 79.7 196.619 79.5533 196.979 79.26C197.339 78.9533 197.519 78.5533 197.519 78.06C197.519 77.62 197.339 77.26 196.979 76.98C196.632 76.6867 196.159 76.54 195.559 76.54C194.906 76.54 194.372 76.6933 193.959 77C193.559 77.2933 193.292 77.7067 193.159 78.24L191.999 77.98C192.199 77.4067 192.472 76.9467 192.819 76.6C193.166 76.24 193.572 75.98 194.039 75.82C194.519 75.6467 195.032 75.56 195.579 75.56C196.206 75.56 196.759 75.66 197.239 75.86C197.732 76.0467 198.112 76.3133 198.379 76.66C198.659 77.0067 198.799 77.4133 198.799 77.88C198.799 78.4133 198.646 78.8667 198.339 79.24C198.046 79.6 197.652 79.88 197.159 80.08C196.666 80.28 196.112 80.38 195.499 80.38V79.9C196.286 79.9 196.952 79.9933 197.499 80.18C198.059 80.3533 198.486 80.6267 198.779 81C199.072 81.36 199.219 81.82 199.219 82.38C199.219 82.9533 199.059 83.4467 198.739 83.86C198.419 84.26 197.986 84.5667 197.439 84.78C196.892 84.9933 196.272 85.1 195.579 85.1ZM210.924 85.12C209.951 85.12 209.091 84.9133 208.344 84.5C207.598 84.0867 207.018 83.5267 206.604 82.82C206.191 82.1 205.984 81.3067 205.984 80.44C205.984 79.52 206.198 78.6933 206.624 77.96C207.064 77.2133 207.658 76.6267 208.404 76.2C209.164 75.7733 210.024 75.56 210.984 75.56C211.598 75.56 212.171 75.6533 212.704 75.84C213.251 76.0267 213.738 76.2933 214.164 76.64L213.284 77.6C212.964 77.28 212.591 77.0333 212.164 76.86C211.751 76.6867 211.318 76.6 210.864 76.6C210.211 76.6 209.624 76.7533 209.104 77.06C208.598 77.3667 208.191 77.8 207.884 78.36C207.591 78.92 207.444 79.5733 207.444 80.32C207.444 81.0533 207.591 81.7 207.884 82.26C208.191 82.82 208.618 83.26 209.164 83.58C209.711 83.8867 210.351 84.04 211.084 84.04C211.591 84.04 212.051 83.9667 212.464 83.82C212.878 83.6733 213.231 83.46 213.524 83.18L214.204 84.08C213.778 84.4133 213.284 84.6733 212.724 84.86C212.178 85.0333 211.578 85.12 210.924 85.12ZM216.547 85.16C216.307 85.16 216.067 85.1333 215.827 85.08C215.601 85.04 215.394 84.98 215.207 84.9L215.427 84.26C215.534 84.3 215.634 84.3267 215.727 84.34C215.821 84.3533 215.907 84.36 215.987 84.36C216.361 84.36 216.661 84.14 216.887 83.7C217.114 83.26 217.287 82.6533 217.407 81.88C217.541 81.0933 217.647 80.1733 217.727 79.12C217.807 78.0533 217.887 76.9067 217.967 75.68H219.147C219.067 77.3333 218.987 78.76 218.907 79.96C218.827 81.1467 218.701 82.1267 218.527 82.9C218.367 83.66 218.127 84.2267 217.807 84.6C217.501 84.9733 217.081 85.16 216.547 85.16ZM223.087 85V75.68H224.447V85H223.087ZM218.407 76.7V75.68H223.687V76.7H218.407ZM232.093 85.12C231.173 85.12 230.347 84.9133 229.613 84.5C228.88 84.0867 228.307 83.5267 227.893 82.82C227.48 82.1133 227.273 81.32 227.273 80.44C227.273 79.52 227.487 78.6933 227.913 77.96C228.34 77.2267 228.933 76.6467 229.693 76.22C230.453 75.78 231.313 75.56 232.273 75.56C233.207 75.56 234.04 75.7667 234.773 76.18C235.507 76.5933 236.08 77.16 236.493 77.88C236.92 78.5867 237.133 79.3933 237.133 80.3C237.133 81.2333 236.907 82.0667 236.453 82.8C236.013 83.52 235.413 84.0867 234.653 84.5C233.893 84.9133 233.04 85.12 232.093 85.12ZM232.233 84.08C232.9 84.08 233.487 83.9267 233.993 83.62C234.513 83.3133 234.92 82.8867 235.213 82.34C235.507 81.7933 235.653 81.1533 235.653 80.42C235.653 79.6733 235.5 79.0133 235.193 78.44C234.9 77.8533 234.487 77.4 233.953 77.08C233.433 76.76 232.833 76.6 232.153 76.6C231.5 76.6 230.913 76.7533 230.393 77.06C229.887 77.3667 229.48 77.8 229.173 78.36C228.88 78.92 228.733 79.5667 228.733 80.3C228.733 81.0467 228.88 81.7067 229.173 82.28C229.48 82.84 229.893 83.28 230.413 83.6C230.947 83.92 231.553 84.08 232.233 84.08ZM239.949 85V75.68H243.729C244.636 75.68 245.356 75.8867 245.889 76.3C246.422 76.7 246.689 77.2467 246.689 77.94C246.689 78.42 246.556 78.86 246.289 79.26C246.036 79.6467 245.669 79.96 245.189 80.2C244.722 80.4267 244.182 80.54 243.569 80.54L243.789 79.72C244.549 79.72 245.196 79.8267 245.729 80.04C246.276 80.24 246.696 80.5333 246.989 80.92C247.282 81.3067 247.429 81.7733 247.429 82.32C247.429 82.8533 247.289 83.3267 247.009 83.74C246.742 84.14 246.349 84.4533 245.829 84.68C245.309 84.8933 244.676 85 243.929 85H239.949ZM241.229 83.94H243.969C244.676 83.94 245.209 83.8 245.569 83.52C245.929 83.2267 246.109 82.8267 246.109 82.32C246.109 81.7867 245.896 81.38 245.469 81.1C245.056 80.8067 244.396 80.66 243.489 80.66H240.889V79.62H243.729C244.276 79.62 244.696 79.4933 244.989 79.24C245.296 78.9733 245.449 78.6133 245.449 78.16C245.449 77.76 245.296 77.42 244.989 77.14C244.696 76.86 244.216 76.72 243.549 76.72H241.229V83.94Z" fill="black"/>
</g>
<rect x="0.5" y="0.5" width="349" height="180" rx="14.5" stroke="black"/>
<defs>
<linearGradient id="paint0_linear_15_201" x1="175" y1="0" x2="175" y2="223.018" gradientUnits="userSpaceOnUse">
<stop stop-color="white"/>
<stop offset="1" stop-color="#E5E4FF"/>
</linearGradient>
<linearGradient id="paint1_linear_15_201" x1="93" y1="124.255" x2="93" y2="499.255" gradientUnits="userSpaceOnUse">
<stop stop-color="#F2C2C2"/>
<stop offset="1" stop-color="white"/>
</linearGradient>
<clipPath id="clip0_15_201">
<rect width="350" height="181" rx="15" fill="white"/>
</clipPath>
</defs>
</svg>
