<svg width="350" height="181" viewBox="0 0 350 181" fill="none" xmlns="http://www.w3.org/2000/svg">
<g clip-path="url(#clip0_72_24)">
<rect width="350" height="181" rx="15" fill="url(#paint0_linear_72_24)"/>
<path d="M85.8961 -59.4546C85.8961 -59.4546 51.3726 -9.4497 93.4717 33.0821C134.906 74.9424 176.294 49.0767 222.426 85.739C249.39 107.168 243.505 152.649 258.916 179.336C273.595 204.756 313.553 230.948 313.553 230.948L26.1968 456.216L-201.46 165.814L85.8961 -59.4546Z" fill="#A09CFF"/>
<path d="M-25.2813 -160.355C-25.2813 -160.355 -21.8401 -63.3546 33.8922 -3.05727C88.7448 56.2881 134.239 3.50824 182.363 68.7705C207.549 102.926 193.9 129.92 216.516 165.562C238.058 199.512 288.132 239.44 288.132 239.44L10.4133 457.153L-303 57.3583L-25.2813 -160.355Z" fill="url(#paint1_linear_72_24)" fill-opacity="0.8"/>
<path d="M310.658 359.011C310.658 359.011 235.191 334.825 191.33 267.677C148.162 201.589 219.967 158.177 139.292 111.339C79.8271 76.8154 115.552 22.1404 86.8283 -7.45338C59.4682 -35.6425 4.64809 -31.3397 4.64809 -31.3397L-283.442 194.504L22.5677 584.855L310.658 359.011Z" fill="#FBD2FF" fill-opacity="0.59"/>
<path d="M109.18 90V76.84H116.84V77.96H110.6V88.88H113.06C113.793 88.88 114.367 88.8067 114.78 88.66C115.193 88.5133 115.52 88.3067 115.76 88.04C115.973 87.8 116.133 87.5267 116.24 87.22C116.36 86.9 116.42 86.5467 116.42 86.16C116.42 85.3733 116.147 84.7533 115.6 84.3C115.067 83.8467 114.207 83.62 113.02 83.62H110.1V82.48H113.26C114.727 82.48 115.86 82.7867 116.66 83.4C117.46 84.0133 117.86 84.86 117.86 85.94C117.86 86.5 117.767 87.0133 117.58 87.48C117.393 87.9467 117.133 88.3533 116.8 88.7C116.413 89.1133 115.907 89.4333 115.28 89.66C114.653 89.8867 113.84 90 112.84 90H109.18ZM121.336 90V89.32L127.756 80.68H128.576V81.38L122.156 90H121.336ZM120.636 90V80.68H121.936L121.876 90H120.636ZM127.916 90L127.976 80.68H129.216V90H127.916ZM132.863 90V80.68H134.223V90H132.863ZM133.323 90V88.92H139.823V90H133.323ZM133.323 85.86V84.8H138.623V85.86H133.323ZM133.323 81.74V80.68H139.423V81.74H133.323ZM149.592 90V80.68H150.992V90H149.592ZM142.492 90V80.68H143.892V90H142.492ZM142.952 85.66V84.56H150.512V85.66H142.952ZM155.34 90V89.32L161.76 80.68H162.58V81.38L156.16 90H155.34ZM154.64 90V80.68H155.94L155.88 90H154.64ZM161.92 90L161.98 80.68H163.22V90H161.92ZM166.867 90V80.68H168.227V90H166.867ZM167.327 90V88.92H173.827V90H167.327ZM167.327 85.86V84.8H172.627V85.86H167.327ZM167.327 81.74V80.68H173.427V81.74H167.327ZM185.538 90.12C184.564 90.12 183.704 89.9133 182.958 89.5C182.211 89.0867 181.631 88.5267 181.218 87.82C180.804 87.1 180.598 86.3067 180.598 85.44C180.598 84.52 180.811 83.6933 181.238 82.96C181.678 82.2133 182.271 81.6267 183.018 81.2C183.778 80.7733 184.638 80.56 185.598 80.56C186.211 80.56 186.784 80.6533 187.318 80.84C187.864 81.0267 188.351 81.2933 188.778 81.64L187.898 82.6C187.578 82.28 187.204 82.0333 186.778 81.86C186.364 81.6867 185.931 81.6 185.478 81.6C184.824 81.6 184.238 81.7533 183.718 82.06C183.211 82.3667 182.804 82.8 182.498 83.36C182.204 83.92 182.058 84.5733 182.058 85.32C182.058 86.0533 182.204 86.7 182.498 87.26C182.804 87.82 183.231 88.26 183.778 88.58C184.324 88.8867 184.964 89.04 185.698 89.04C186.204 89.04 186.664 88.9667 187.078 88.82C187.491 88.6733 187.844 88.46 188.138 88.18L188.818 89.08C188.391 89.4133 187.898 89.6733 187.338 89.86C186.791 90.0333 186.191 90.12 185.538 90.12ZM191.3 90V80.68H192.66V90H191.3ZM191.76 90V88.92H198.26V90H191.76ZM191.76 85.86V84.8H197.06V85.86H191.76ZM191.76 81.74V80.68H197.86V81.74H191.76ZM200.929 90V80.68H203.829C204.656 80.68 205.363 80.7933 205.949 81.02C206.549 81.2467 207.003 81.58 207.309 82.02C207.616 82.46 207.769 83 207.769 83.64C207.769 84.32 207.596 84.92 207.249 85.44C206.916 85.9467 206.429 86.34 205.789 86.62C205.149 86.8867 204.383 87.02 203.489 87.02H201.609V85.9H203.709C204.576 85.9 205.249 85.7267 205.729 85.38C206.223 85.02 206.469 84.5067 206.469 83.84C206.469 83.1733 206.216 82.6533 205.709 82.28C205.203 81.9067 204.503 81.72 203.609 81.72H202.249V90H200.929ZM210.1 90C210.553 89.12 210.893 88.18 211.12 87.18C211.36 86.18 211.533 85.1333 211.64 84.04C211.76 82.9467 211.86 81.8267 211.94 80.68H213.14C213.06 81.84 212.96 82.9667 212.84 84.06C212.733 85.1533 212.573 86.2 212.36 87.2C212.147 88.1867 211.827 89.12 211.4 90H210.1ZM209.18 93.38L209 89H210.4L210.22 93.38H209.18ZM209.5 90L209.34 89H219.8L219.2 90H209.5ZM218.6 93.38L218.42 89H219.8L219.62 93.38H218.6ZM216.76 90V80.68H218.08V90H216.76ZM212.64 81.72V80.68H217.38V81.72H212.64ZM222.023 90V80.68H223.383V90H222.023ZM222.483 90V88.92H228.983V90H222.483ZM222.483 85.86V84.8H227.783V85.86H222.483ZM222.483 81.74V80.68H228.583V81.74H222.483ZM238.352 90V80.68H239.732V90H238.352ZM232.312 90V88.98H239.072V90H232.312ZM231.652 90V80.68H233.032V90H231.652ZM238.992 90V88.98H241.272L240.672 90H238.992ZM240.092 93.38L239.892 88.98H241.272L241.152 93.38H240.092Z" fill="black"/>
</g>
<rect x="0.5" y="0.5" width="349" height="180" rx="14.5" stroke="black"/>
<defs>
<linearGradient id="paint0_linear_72_24" x1="175" y1="0" x2="175" y2="223.018" gradientUnits="userSpaceOnUse">
<stop stop-color="white"/>
<stop offset="1" stop-color="#E5E4FF"/>
</linearGradient>
<linearGradient id="paint1_linear_72_24" x1="145.683" y1="28.3653" x2="-149.441" y2="259.724" gradientUnits="userSpaceOnUse">
<stop stop-color="#E8DBFF" stop-opacity="0.9"/>
<stop offset="1" stop-color="white"/>
</linearGradient>
<clipPath id="clip0_72_24">
<rect width="350" height="181" rx="15" fill="white"/>
</clipPath>
</defs>
</svg>
