<svg width="54" height="50" viewBox="0 0 54 50" fill="none" xmlns="http://www.w3.org/2000/svg">
<g filter="url(#filter0_d_37_19)">
<path d="M21.9946 39.1375V26.6375H31.9946V39.1375C31.9946 40.5125 33.1196 41.6375 34.4946 41.6375H41.9946C43.3696 41.6375 44.4946 40.5125 44.4946 39.1375V21.6375H48.7446C49.8946 21.6375 50.4446 20.2125 49.5696 19.4625L28.6696 0.6375C27.7196 -0.2125 26.2696 -0.2125 25.3196 0.6375L4.41963 19.4625C3.56963 20.2125 4.09463 21.6375 5.24463 21.6375H9.49463V39.1375C9.49463 40.5125 10.6196 41.6375 11.9946 41.6375H19.4946C20.8696 41.6375 21.9946 40.5125 21.9946 39.1375Z" fill="white"/>
</g>
<defs>
<filter id="filter0_d_37_19" x="0" y="0" width="54.0004" height="49.6375" filterUnits="userSpaceOnUse" color-interpolation-filters="sRGB">
<feFlood flood-opacity="0" result="BackgroundImageFix"/>
<feColorMatrix in="SourceAlpha" type="matrix" values="0 0 0 0 0 0 0 0 0 0 0 0 0 0 0 0 0 0 127 0" result="hardAlpha"/>
<feOffset dy="4"/>
<feGaussianBlur stdDeviation="2"/>
<feComposite in2="hardAlpha" operator="out"/>
<feColorMatrix type="matrix" values="0 0 0 0 0 0 0 0 0 0 0 0 0 0 0 0 0 0 0.25 0"/>
<feBlend mode="normal" in2="BackgroundImageFix" result="effect1_dropShadow_37_19"/>
<feBlend mode="normal" in="SourceGraphic" in2="effect1_dropShadow_37_19" result="shape"/>
</filter>
</defs>
</svg>
