<svg width="49" height="48" viewBox="0 0 49 48" fill="none" xmlns="http://www.w3.org/2000/svg">
<g filter="url(#filter0_d_37_28)">
<path d="M29.8527 39.7746L17.6666 35.5493L7.07499 39.6056C6.69536 39.7559 6.32485 39.8032 5.96344 39.7476C5.60203 39.692 5.27024 39.5696 4.96805 39.3803C4.66587 39.191 4.42898 38.9378 4.25739 38.6208C4.0858 38.3039 4 37.9373 4 37.5211V5.91549C4 5.42723 4.14274 4.99531 4.42822 4.61972C4.7137 4.24413 5.10244 3.96244 5.59444 3.77465L16.1861 0.225352C16.4139 0.150235 16.6515 0.0938969 16.899 0.0563382C17.1465 0.0187796 17.4024 0 17.6666 0C17.9309 0 18.1875 0.0187796 18.4365 0.0563382C18.6856 0.0938969 18.9225 0.150235 19.1472 0.225352L31.3333 4.4507L41.9249 0.394366C42.3046 0.244131 42.6751 0.197559 43.0365 0.254648C43.3979 0.311737 43.7297 0.433427 44.0319 0.619719C44.3341 0.80601 44.5717 1.05991 44.7448 1.38141C44.9179 1.70291 45.003 2.06873 44.9999 2.47887V34.0845C44.9999 34.5728 44.8579 35.0047 44.574 35.3803C44.29 35.7559 43.9005 36.0376 43.4055 36.2254L32.8138 39.7746C32.5861 39.8498 32.3492 39.9061 32.1032 39.9437C31.8572 39.9812 31.6005 40 31.3333 40C31.066 40 30.8102 39.9812 30.5657 39.9437C30.3212 39.9061 30.0835 39.8498 29.8527 39.7746ZM29.0555 34.7606V8.39437L19.9444 5.23944V31.6056L29.0555 34.7606Z" fill="white"/>
</g>
<defs>
<filter id="filter0_d_37_28" x="0" y="0" width="49" height="48" filterUnits="userSpaceOnUse" color-interpolation-filters="sRGB">
<feFlood flood-opacity="0" result="BackgroundImageFix"/>
<feColorMatrix in="SourceAlpha" type="matrix" values="0 0 0 0 0 0 0 0 0 0 0 0 0 0 0 0 0 0 127 0" result="hardAlpha"/>
<feOffset dy="4"/>
<feGaussianBlur stdDeviation="2"/>
<feComposite in2="hardAlpha" operator="out"/>
<feColorMatrix type="matrix" values="0 0 0 0 0 0 0 0 0 0 0 0 0 0 0 0 0 0 0.25 0"/>
<feBlend mode="normal" in2="BackgroundImageFix" result="effect1_dropShadow_37_28"/>
<feBlend mode="normal" in="SourceGraphic" in2="effect1_dropShadow_37_28" result="shape"/>
</filter>
</defs>
</svg>
