<svg width="157" height="157" viewBox="0 0 157 157" fill="none" xmlns="http://www.w3.org/2000/svg">
<g clip-path="url(#clip0_15_209)">
<rect width="157" height="157" rx="15" fill="white"/>
<path d="M102.151 -21.1954C72.7052 -50.6416 32.6256 -41.9397 0.727567 -38.1376C-10.5234 -36.7928 -21.2593 -35.394 -27.3266 -29.3266C-33.394 -23.2593 -34.7989 -12.5295 -36.1316 -1.26636C-39.9519 30.6257 -48.6416 70.7052 -19.2015 100.145C10.2386 129.585 64.5053 117.111 63.4944 61.4945C119.111 62.5053 131.597 8.25073 102.151 -21.1954Z" fill="url(#paint0_linear_15_209)"/>
<path d="M45.2052 212.469C77.7833 238.408 116.626 225.243 147.892 217.869C158.92 215.264 169.43 212.664 174.774 205.951C180.119 199.238 180.305 188.418 180.36 177.077C180.56 144.958 184.676 104.154 152.104 78.2205C119.533 52.2871 67.0187 70.7996 74.2932 125.948C18.917 131.214 12.627 186.53 45.2052 212.469Z" fill="url(#paint1_linear_15_209)"/>
<path d="M30.328 70V59.472H31.512V70H30.328ZM22.744 70V59.472H23.928V70H22.744ZM23.144 65.136V64.176H31.128V65.136H23.144ZM33.714 70L36.882 62.544H38.162L41.346 70H40.194L37.33 62.992H37.65L34.866 70H33.714ZM35.314 67.392L35.586 66.592H39.234L39.634 67.392H35.314ZM43.7965 70V69.184H53.1885V70H43.7965ZM43.2685 70V62.544H44.3565V70H43.2685ZM47.9565 70V62.544H49.0285V70H47.9565ZM52.6285 70V62.544H53.7165V70H52.6285ZM57.1879 70V69.456L62.3239 62.544H62.9799V63.104L57.8439 70H57.1879ZM56.6279 70V62.544H57.6679L57.6199 70H56.6279ZM62.4519 70L62.4999 62.544H63.4919V70H62.4519ZM22.456 100V92.544H25.48C26.2053 92.544 26.7813 92.7093 27.208 93.04C27.6347 93.36 27.848 93.7973 27.848 94.352C27.848 94.736 27.7413 95.088 27.528 95.408C27.3253 95.7173 27.032 95.968 26.648 96.16C26.2747 96.3413 25.8427 96.432 25.352 96.432L25.528 95.776C26.136 95.776 26.6533 95.8613 27.08 96.032C27.5173 96.192 27.8533 96.4267 28.088 96.736C28.3227 97.0453 28.44 97.4187 28.44 97.856C28.44 98.2827 28.328 98.6613 28.104 98.992C27.8907 99.312 27.576 99.5627 27.16 99.744C26.744 99.9147 26.2373 100 25.64 100H22.456ZM23.48 99.152H25.672C26.2373 99.152 26.664 99.04 26.952 98.816C27.24 98.5813 27.384 98.2613 27.384 97.856C27.384 97.4293 27.2133 97.104 26.872 96.88C26.5413 96.6453 26.0133 96.528 25.288 96.528H23.208V95.696H25.48C25.9173 95.696 26.2533 95.5947 26.488 95.392C26.7333 95.1787 26.856 94.8907 26.856 94.528C26.856 94.208 26.7333 93.936 26.488 93.712C26.2533 93.488 25.8693 93.376 25.336 93.376H23.48V99.152ZM33.8123 100.096C33.0763 100.096 32.4149 99.9307 31.8283 99.6C31.2416 99.2693 30.7829 98.8213 30.4523 98.256C30.1216 97.6907 29.9563 97.056 29.9563 96.352C29.9563 95.616 30.1269 94.9547 30.4683 94.368C30.8096 93.7813 31.2843 93.3173 31.8923 92.976C32.5003 92.624 33.1883 92.448 33.9563 92.448C34.7029 92.448 35.3696 92.6133 35.9563 92.944C36.5429 93.2747 37.0016 93.728 37.3323 94.304C37.6736 94.8693 37.8443 95.5147 37.8443 96.24C37.8443 96.9867 37.6629 97.6533 37.3003 98.24C36.9483 98.816 36.4683 99.2693 35.8603 99.6C35.2523 99.9307 34.5696 100.096 33.8123 100.096ZM33.9243 99.264C34.4576 99.264 34.9269 99.1413 35.3323 98.896C35.7483 98.6507 36.0736 98.3093 36.3083 97.872C36.5429 97.4347 36.6603 96.9227 36.6603 96.336C36.6603 95.7387 36.5376 95.2107 36.2923 94.752C36.0576 94.2827 35.7269 93.92 35.3003 93.664C34.8843 93.408 34.4043 93.28 33.8602 93.28C33.3376 93.28 32.8683 93.4027 32.4523 93.648C32.0469 93.8933 31.7216 94.24 31.4763 94.688C31.2416 95.136 31.1243 95.6533 31.1243 96.24C31.1243 96.8373 31.2416 97.3653 31.4763 97.824C31.7216 98.272 32.0523 98.624 32.4683 98.88C32.8949 99.136 33.3803 99.264 33.9243 99.264ZM43.3926 100.096C42.614 100.096 41.926 99.9307 41.3286 99.6C40.7313 99.2693 40.2673 98.8213 39.9366 98.256C39.606 97.68 39.4406 97.0453 39.4406 96.352C39.4406 95.616 39.6113 94.9547 39.9526 94.368C40.3046 93.7707 40.7793 93.3013 41.3766 92.96C41.9846 92.6187 42.6726 92.448 43.4406 92.448C43.9313 92.448 44.39 92.5227 44.8166 92.672C45.254 92.8213 45.6433 93.0347 45.9846 93.312L45.2806 94.08C45.0246 93.824 44.726 93.6267 44.3846 93.488C44.054 93.3493 43.7073 93.28 43.3446 93.28C42.822 93.28 42.3526 93.4027 41.9366 93.648C41.5313 93.8933 41.206 94.24 40.9606 94.688C40.726 95.136 40.6086 95.6587 40.6086 96.256C40.6086 96.8427 40.726 97.36 40.9606 97.808C41.206 98.256 41.5473 98.608 41.9846 98.864C42.422 99.1093 42.934 99.232 43.5206 99.232C43.926 99.232 44.294 99.1733 44.6246 99.056C44.9553 98.9387 45.238 98.768 45.4726 98.544L46.0166 99.264C45.6753 99.5307 45.2806 99.7387 44.8326 99.888C44.3953 100.027 43.9153 100.096 43.3926 100.096ZM53.5709 100V92.544H54.6749V100H53.5709ZM48.0029 100V92.544H49.1229V100H48.0029ZM48.3709 93.424V92.544H54.3069V93.424H48.3709ZM60.7966 100.096C60.0606 100.096 59.3993 99.9307 58.8126 99.6C58.226 99.2693 57.7673 98.8213 57.4366 98.256C57.106 97.6907 56.9406 97.056 56.9406 96.352C56.9406 95.616 57.1113 94.9547 57.4526 94.368C57.794 93.7813 58.2686 93.3173 58.8766 92.976C59.4846 92.624 60.1726 92.448 60.9406 92.448C61.6873 92.448 62.354 92.6133 62.9406 92.944C63.5273 93.2747 63.986 93.728 64.3166 94.304C64.658 94.8693 64.8286 95.5147 64.8286 96.24C64.8286 96.9867 64.6473 97.6533 64.2846 98.24C63.9326 98.816 63.4526 99.2693 62.8446 99.6C62.2366 99.9307 61.554 100.096 60.7966 100.096ZM60.9086 99.264C61.442 99.264 61.9113 99.1413 62.3166 98.896C62.7326 98.6507 63.058 98.3093 63.2926 97.872C63.5273 97.4347 63.6446 96.9227 63.6446 96.336C63.6446 95.7387 63.522 95.2107 63.2766 94.752C63.042 94.2827 62.7113 93.92 62.2846 93.664C61.8686 93.408 61.3886 93.28 60.8446 93.28C60.322 93.28 59.8526 93.4027 59.4366 93.648C59.0313 93.8933 58.706 94.24 58.4606 94.688C58.226 95.136 58.1086 95.6533 58.1086 96.24C58.1086 96.8373 58.226 97.3653 58.4606 97.824C58.706 98.272 59.0366 98.624 59.4526 98.88C59.8793 99.136 60.3646 99.264 60.9086 99.264ZM74.393 100L74.041 93.04L74.377 92.912L71.545 99.696H70.937L67.817 92.864L68.073 92.544H68.697L71.529 98.592H71.049L73.769 92.544H75.001L75.497 100H74.393ZM67.001 100L67.433 92.544H68.233L68.025 100H67.001ZM78.9066 100V99.456L84.0426 92.544H84.6986V93.104L79.5626 100H78.9066ZM78.3466 100V92.544H79.3866L79.3386 100H78.3466ZM84.1706 100L84.2186 92.544H85.2106V100H84.1706ZM93.8079 100V92.544H94.9279V100H93.8079ZM88.1279 100V92.544H89.2479V100H88.1279ZM88.4959 96.528V95.648H94.5439V96.528H88.4959ZM96.8546 100L100.023 92.544H101.303L104.487 100H103.335L100.471 92.992H100.791L98.0066 100H96.8546ZM98.4546 97.392L98.7266 96.592H102.375L102.775 97.392H98.4546ZM112.089 100V92.544H113.209V100H112.089ZM106.409 100V92.544H107.529V100H106.409ZM106.777 96.528V95.648H112.825V96.528H106.777ZM116.688 100V99.456L121.824 92.544H122.48V93.104L117.344 100H116.688ZM116.128 100V92.544H117.168L117.12 100H116.128ZM121.952 100L122 92.544H122.992V100H121.952ZM130.165 100V93.344H128.677C128.112 93.344 127.674 93.4667 127.365 93.712C127.056 93.9573 126.901 94.2933 126.901 94.72C126.901 95.1787 127.082 95.5307 127.445 95.776C127.818 96.0213 128.309 96.144 128.917 96.144C129.205 96.144 129.493 96.1333 129.781 96.112C130.069 96.08 130.357 96.0373 130.645 95.984V96.752C130.325 96.816 130.005 96.8587 129.685 96.88C129.376 96.9013 129.066 96.912 128.757 96.912C128.17 96.912 127.648 96.832 127.189 96.672C126.741 96.512 126.389 96.2773 126.133 95.968C125.877 95.6587 125.749 95.2853 125.749 94.848C125.749 94.3467 125.872 93.9307 126.117 93.6C126.362 93.2587 126.714 92.9973 127.173 92.816C127.632 92.6347 128.192 92.544 128.853 92.544H131.221V100H130.165ZM125.253 100L127.669 96.416L128.421 96.736L126.549 100H125.253Z" fill="black"/>
<path d="M98.815 69.6327L94.784 73.6637H92.115V76.3317H89.447V78.9997H85V74.5527L94.368 65.1847C94.0515 64.3435 93.8908 63.4516 93.894 62.5527C93.8943 60.9416 94.4096 59.3728 95.3648 58.0754C96.32 56.778 97.6649 55.82 99.2032 55.3413C100.741 54.8625 102.393 54.8881 103.915 55.4143C105.438 55.9405 106.753 56.9398 107.667 58.2661C108.582 59.5925 109.048 61.1765 108.998 62.7869C108.949 64.3972 108.386 65.9494 107.391 67.2169C106.397 68.4844 105.023 69.4008 103.471 69.8322C101.918 70.2636 100.269 70.1874 98.763 69.6147L98.815 69.6327ZM106.347 60.3227V60.3197C106.347 59.7921 106.191 59.2763 105.897 58.8376C105.604 58.3988 105.188 58.0569 104.7 57.8549C104.213 57.6529 103.676 57.6 103.159 57.7029C102.641 57.8058 102.166 58.0598 101.793 58.4328C101.42 58.8058 101.165 59.2811 101.062 59.7986C100.959 60.3161 101.012 60.8525 101.214 61.34C101.416 61.8276 101.757 62.2443 102.196 62.5376C102.635 62.8309 103.15 62.9875 103.678 62.9877H103.679C104.386 62.9872 105.064 62.7063 105.564 62.2068C106.064 61.7072 106.346 61.0296 106.347 60.3227Z" fill="black"/>
</g>
<rect x="0.5" y="0.5" width="156" height="156" rx="14.5" stroke="black"/>
<defs>
<linearGradient id="paint0_linear_15_209" x1="48.2119" y1="-46.2176" x2="51.5287" y2="120.067" gradientUnits="userSpaceOnUse">
<stop stop-color="#C9C7FF"/>
<stop offset="0.986434" stop-color="white"/>
</linearGradient>
<linearGradient id="paint1_linear_15_209" x1="101.622" y1="231.25" x2="79.5792" y2="66.3998" gradientUnits="userSpaceOnUse">
<stop stop-color="#C9C7FF"/>
<stop offset="0.986434" stop-color="white"/>
</linearGradient>
<clipPath id="clip0_15_209">
<rect width="157" height="157" rx="15" fill="white"/>
</clipPath>
</defs>
</svg>
