<svg width="350" height="532" viewBox="0 0 350 532" fill="none" xmlns="http://www.w3.org/2000/svg">
<g clip-path="url(#clip0_5_102)">
<rect width="350" height="532" rx="15" fill="url(#paint0_linear_5_102)"/>
<path d="M-10 346.871C-10 346.871 8.05429 404.892 67.5 398C126.007 391.217 131.185 342.687 188.5 329C222 321 254.162 353.692 284.673 358.028C313.735 362.158 359 346.871 359 346.871V712H-10V346.871Z" fill="#FD9292"/>
<path d="M-158 372.116C-158 372.116 -79.5377 429.253 2.30057 422.593C82.8468 416.037 69.3768 347.671 150.429 350.061C192.847 351.312 205.671 378.708 247.674 382.899C287.684 386.891 350 372.116 350 372.116V725H-158V372.116Z" fill="url(#paint1_linear_5_102)" fill-opacity="0.8"/>
<path d="M458 428.159C458 428.159 392.405 472.629 312.5 465.72C233.856 458.92 243.991 375.626 157.357 410.221C93.5 435.72 72.5112 373.873 31.5 378.22C-7.56476 382.361 -38 428.159 -38 428.159V794.221H458V428.159Z" fill="#FFDBDB" fill-opacity="0.9"/>
<path d="M112.34 194V180.84H113.82V194H112.34ZM103.18 194V180.84H104.66V194H103.18ZM103.68 182.02V180.84H113.34V182.02H103.68ZM121.82 194.12C120.9 194.12 120.073 193.913 119.34 193.5C118.607 193.087 118.033 192.527 117.62 191.82C117.207 191.113 117 190.32 117 189.44C117 188.52 117.213 187.693 117.64 186.96C118.067 186.227 118.66 185.647 119.42 185.22C120.18 184.78 121.04 184.56 122 184.56C122.933 184.56 123.767 184.767 124.5 185.18C125.233 185.593 125.807 186.16 126.22 186.88C126.647 187.587 126.86 188.393 126.86 189.3C126.86 190.233 126.633 191.067 126.18 191.8C125.74 192.52 125.14 193.087 124.38 193.5C123.62 193.913 122.767 194.12 121.82 194.12ZM121.96 193.08C122.627 193.08 123.213 192.927 123.72 192.62C124.24 192.313 124.647 191.887 124.94 191.34C125.233 190.793 125.38 190.153 125.38 189.42C125.38 188.673 125.227 188.013 124.92 187.44C124.627 186.853 124.213 186.4 123.68 186.08C123.16 185.76 122.56 185.6 121.88 185.6C121.227 185.6 120.64 185.753 120.12 186.06C119.613 186.367 119.207 186.8 118.9 187.36C118.607 187.92 118.46 188.567 118.46 189.3C118.46 190.047 118.607 190.707 118.9 191.28C119.207 191.84 119.62 192.28 120.14 192.6C120.673 192.92 121.28 193.08 121.96 193.08ZM130.375 194V193.32L136.795 184.68H137.615V185.38L131.195 194H130.375ZM129.675 194V184.68H130.975L130.915 194H129.675ZM136.955 194L137.015 184.68H138.255V194H136.955ZM133.795 183.46C133.235 183.46 132.702 183.32 132.195 183.04C131.702 182.76 131.309 182.353 131.015 181.82L131.955 180.98C132.249 181.513 132.589 181.88 132.975 182.08C133.375 182.28 133.769 182.38 134.155 182.38C134.582 182.38 134.975 182.267 135.335 182.04C135.709 181.8 136.015 181.433 136.255 180.94L136.895 181.36C136.615 182.067 136.189 182.593 135.615 182.94C135.042 183.287 134.435 183.46 133.795 183.46ZM151.042 194L150.602 185.3L151.022 185.14L147.482 193.62H146.722L142.822 185.08L143.142 184.68H143.922L147.462 192.24H146.862L150.262 184.68H151.802L152.422 194H151.042ZM141.802 194L142.342 184.68H143.342L143.082 194H141.802ZM156.684 194V193.32L163.104 184.68H163.924V185.38L157.504 194H156.684ZM155.984 194V184.68H157.284L157.224 194H155.984ZM163.264 194L163.324 184.68H164.564V194H163.264ZM173.133 194V184.68H179.953V185.72H174.413V192.94H176.953C177.726 192.94 178.306 192.8 178.693 192.52C179.093 192.24 179.293 191.813 179.293 191.24C179.293 190.68 179.093 190.26 178.693 189.98C178.306 189.7 177.619 189.56 176.633 189.56C176.353 189.56 175.979 189.573 175.513 189.6C175.046 189.627 174.566 189.687 174.073 189.78V188.92C174.673 188.76 175.253 188.66 175.813 188.62C176.386 188.567 176.879 188.54 177.293 188.54C178.399 188.54 179.226 188.753 179.773 189.18C180.333 189.593 180.613 190.213 180.613 191.04C180.613 191.64 180.466 192.16 180.173 192.6C179.879 193.04 179.446 193.387 178.873 193.64C178.313 193.88 177.619 194 176.793 194H173.133ZM183.23 194V184.68H184.59V194H183.23ZM183.69 194V192.92H190.19V194H183.69ZM183.69 189.86V188.8H188.99V189.86H183.69ZM183.69 185.74V184.68H189.79V185.74H183.69ZM195.579 194.1C194.646 194.1 193.859 193.913 193.219 193.54C192.579 193.153 192.152 192.653 191.939 192.04L193.099 191.54C193.232 191.913 193.426 192.22 193.679 192.46C193.932 192.687 194.232 192.853 194.579 192.96C194.926 193.067 195.286 193.12 195.659 193.12C196.366 193.12 196.926 192.96 197.339 192.64C197.766 192.32 197.979 191.887 197.979 191.34C197.979 190.833 197.792 190.427 197.419 190.12C197.046 189.813 196.379 189.66 195.419 189.66H194.539V188.7H195.419C196.099 188.7 196.619 188.553 196.979 188.26C197.339 187.953 197.519 187.553 197.519 187.06C197.519 186.62 197.339 186.26 196.979 185.98C196.632 185.687 196.159 185.54 195.559 185.54C194.906 185.54 194.372 185.693 193.959 186C193.559 186.293 193.292 186.707 193.159 187.24L191.999 186.98C192.199 186.407 192.472 185.947 192.819 185.6C193.166 185.24 193.572 184.98 194.039 184.82C194.519 184.647 195.032 184.56 195.579 184.56C196.206 184.56 196.759 184.66 197.239 184.86C197.732 185.047 198.112 185.313 198.379 185.66C198.659 186.007 198.799 186.413 198.799 186.88C198.799 187.413 198.646 187.867 198.339 188.24C198.046 188.6 197.652 188.88 197.159 189.08C196.666 189.28 196.112 189.38 195.499 189.38V188.9C196.286 188.9 196.952 188.993 197.499 189.18C198.059 189.353 198.486 189.627 198.779 190C199.072 190.36 199.219 190.82 199.219 191.38C199.219 191.953 199.059 192.447 198.739 192.86C198.419 193.26 197.986 193.567 197.439 193.78C196.892 193.993 196.272 194.1 195.579 194.1ZM210.924 194.12C209.951 194.12 209.091 193.913 208.344 193.5C207.598 193.087 207.018 192.527 206.604 191.82C206.191 191.1 205.984 190.307 205.984 189.44C205.984 188.52 206.198 187.693 206.624 186.96C207.064 186.213 207.658 185.627 208.404 185.2C209.164 184.773 210.024 184.56 210.984 184.56C211.598 184.56 212.171 184.653 212.704 184.84C213.251 185.027 213.738 185.293 214.164 185.64L213.284 186.6C212.964 186.28 212.591 186.033 212.164 185.86C211.751 185.687 211.318 185.6 210.864 185.6C210.211 185.6 209.624 185.753 209.104 186.06C208.598 186.367 208.191 186.8 207.884 187.36C207.591 187.92 207.444 188.573 207.444 189.32C207.444 190.053 207.591 190.7 207.884 191.26C208.191 191.82 208.618 192.26 209.164 192.58C209.711 192.887 210.351 193.04 211.084 193.04C211.591 193.04 212.051 192.967 212.464 192.82C212.878 192.673 213.231 192.46 213.524 192.18L214.204 193.08C213.778 193.413 213.284 193.673 212.724 193.86C212.178 194.033 211.578 194.12 210.924 194.12ZM216.547 194.16C216.307 194.16 216.067 194.133 215.827 194.08C215.601 194.04 215.394 193.98 215.207 193.9L215.427 193.26C215.534 193.3 215.634 193.327 215.727 193.34C215.821 193.353 215.907 193.36 215.987 193.36C216.361 193.36 216.661 193.14 216.887 192.7C217.114 192.26 217.287 191.653 217.407 190.88C217.541 190.093 217.647 189.173 217.727 188.12C217.807 187.053 217.887 185.907 217.967 184.68H219.147C219.067 186.333 218.987 187.76 218.907 188.96C218.827 190.147 218.701 191.127 218.527 191.9C218.367 192.66 218.127 193.227 217.807 193.6C217.501 193.973 217.081 194.16 216.547 194.16ZM223.087 194V184.68H224.447V194H223.087ZM218.407 185.7V184.68H223.687V185.7H218.407ZM232.093 194.12C231.173 194.12 230.347 193.913 229.613 193.5C228.88 193.087 228.307 192.527 227.893 191.82C227.48 191.113 227.273 190.32 227.273 189.44C227.273 188.52 227.487 187.693 227.913 186.96C228.34 186.227 228.933 185.647 229.693 185.22C230.453 184.78 231.313 184.56 232.273 184.56C233.207 184.56 234.04 184.767 234.773 185.18C235.507 185.593 236.08 186.16 236.493 186.88C236.92 187.587 237.133 188.393 237.133 189.3C237.133 190.233 236.907 191.067 236.453 191.8C236.013 192.52 235.413 193.087 234.653 193.5C233.893 193.913 233.04 194.12 232.093 194.12ZM232.233 193.08C232.9 193.08 233.487 192.927 233.993 192.62C234.513 192.313 234.92 191.887 235.213 191.34C235.507 190.793 235.653 190.153 235.653 189.42C235.653 188.673 235.5 188.013 235.193 187.44C234.9 186.853 234.487 186.4 233.953 186.08C233.433 185.76 232.833 185.6 232.153 185.6C231.5 185.6 230.913 185.753 230.393 186.06C229.887 186.367 229.48 186.8 229.173 187.36C228.88 187.92 228.733 188.567 228.733 189.3C228.733 190.047 228.88 190.707 229.173 191.28C229.48 191.84 229.893 192.28 230.413 192.6C230.947 192.92 231.553 193.08 232.233 193.08ZM239.949 194V184.68H243.729C244.636 184.68 245.356 184.887 245.889 185.3C246.422 185.7 246.689 186.247 246.689 186.94C246.689 187.42 246.556 187.86 246.289 188.26C246.036 188.647 245.669 188.96 245.189 189.2C244.722 189.427 244.182 189.54 243.569 189.54L243.789 188.72C244.549 188.72 245.196 188.827 245.729 189.04C246.276 189.24 246.696 189.533 246.989 189.92C247.282 190.307 247.429 190.773 247.429 191.32C247.429 191.853 247.289 192.327 247.009 192.74C246.742 193.14 246.349 193.453 245.829 193.68C245.309 193.893 244.676 194 243.929 194H239.949ZM241.229 192.94H243.969C244.676 192.94 245.209 192.8 245.569 192.52C245.929 192.227 246.109 191.827 246.109 191.32C246.109 190.787 245.896 190.38 245.469 190.1C245.056 189.807 244.396 189.66 243.489 189.66H240.889V188.62H243.729C244.276 188.62 244.696 188.493 244.989 188.24C245.296 187.973 245.449 187.613 245.449 187.16C245.449 186.76 245.296 186.42 244.989 186.14C244.696 185.86 244.216 185.72 243.549 185.72H241.229V192.94Z" fill="black"/>
</g>
<rect x="0.5" y="0.5" width="349" height="531" rx="14.5" stroke="black"/>
<defs>
<linearGradient id="paint0_linear_5_102" x1="175" y1="0" x2="175" y2="655.5" gradientUnits="userSpaceOnUse">
<stop stop-color="white"/>
<stop offset="1" stop-color="#E5E4FF"/>
</linearGradient>
<linearGradient id="paint1_linear_5_102" x1="96" y1="354" x2="96" y2="729" gradientUnits="userSpaceOnUse">
<stop stop-color="#F2C2C2"/>
<stop offset="1" stop-color="white"/>
</linearGradient>
<clipPath id="clip0_5_102">
<rect width="350" height="532" rx="15" fill="white"/>
</clipPath>
</defs>
</svg>
