<svg width="350" height="532" viewBox="0 0 350 532" fill="none" xmlns="http://www.w3.org/2000/svg">
<g clip-path="url(#clip0_42_64)">
<rect width="350" height="532" rx="15" fill="url(#paint0_linear_42_64)"/>
<path d="M156.169 12.9752C109.531 -33.6627 46.0513 -19.8805 -4.46997 -13.8584C-22.2897 -11.7285 -39.2936 -9.51298 -48.9032 0.0967012C-58.5129 9.70638 -60.738 26.7006 -62.8488 44.5396C-68.8996 95.0513 -82.6627 158.531 -36.0344 205.159C10.5939 251.787 96.5435 232.031 94.9425 143.942C183.031 145.543 202.807 59.6131 156.169 12.9752Z" fill="url(#paint1_linear_42_64)"/>
<path d="M141.18 579.686C192.019 630.525 261.217 615.501 316.289 608.937C335.714 606.615 354.249 604.2 364.725 593.725C375.2 583.25 377.626 564.725 379.926 545.279C386.522 490.217 401.525 421.02 350.697 370.191C299.868 319.363 206.177 340.899 207.922 436.922C111.899 435.177 90.3416 528.847 141.18 579.686Z" fill="url(#paint2_linear_42_64)"/>
<rect x="34" y="261" width="282" height="68" rx="15" fill="#C9C7FF"/>
<path d="M86.66 222V208.84H88.14V222H86.66ZM77.18 222V208.84H78.66V222H77.18ZM77.68 215.92V214.72H87.66V215.92H77.68ZM90.8925 222L94.8525 212.68H96.4525L100.433 222H98.9925L95.4125 213.24H95.8125L92.3325 222H90.8925ZM92.8925 218.74L93.2325 217.74H97.7925L98.2925 218.74H92.8925ZM103.496 222V220.98H115.236V222H103.496ZM102.836 222V212.68H104.196V222H102.836ZM108.696 222V212.68H110.036V222H108.696ZM114.536 222V212.68H115.896V222H114.536ZM120.235 222V221.32L126.655 212.68H127.475V213.38L121.055 222H120.235ZM119.535 222V212.68H120.835L120.775 222H119.535ZM126.815 222L126.875 212.68H128.115V222H126.815ZM136.683 222V212.68H140.463C141.37 212.68 142.09 212.887 142.623 213.3C143.157 213.7 143.423 214.247 143.423 214.94C143.423 215.42 143.29 215.86 143.023 216.26C142.77 216.647 142.403 216.96 141.923 217.2C141.457 217.427 140.917 217.54 140.303 217.54L140.523 216.72C141.283 216.72 141.93 216.827 142.463 217.04C143.01 217.24 143.43 217.533 143.723 217.92C144.017 218.307 144.163 218.773 144.163 219.32C144.163 219.853 144.023 220.327 143.743 220.74C143.477 221.14 143.083 221.453 142.563 221.68C142.043 221.893 141.41 222 140.663 222H136.683ZM137.963 220.94H140.703C141.41 220.94 141.943 220.8 142.303 220.52C142.663 220.227 142.843 219.827 142.843 219.32C142.843 218.787 142.63 218.38 142.203 218.1C141.79 217.807 141.13 217.66 140.223 217.66H137.623V216.62H140.463C141.01 216.62 141.43 216.493 141.723 216.24C142.03 215.973 142.183 215.613 142.183 215.16C142.183 214.76 142.03 214.42 141.723 214.14C141.43 213.86 140.95 213.72 140.283 213.72H137.963V220.94ZM150.879 222.12C149.959 222.12 149.132 221.913 148.399 221.5C147.665 221.087 147.092 220.527 146.679 219.82C146.265 219.113 146.059 218.32 146.059 217.44C146.059 216.52 146.272 215.693 146.699 214.96C147.125 214.227 147.719 213.647 148.479 213.22C149.239 212.78 150.099 212.56 151.059 212.56C151.992 212.56 152.825 212.767 153.559 213.18C154.292 213.593 154.865 214.16 155.279 214.88C155.705 215.587 155.919 216.393 155.919 217.3C155.919 218.233 155.692 219.067 155.239 219.8C154.799 220.52 154.199 221.087 153.439 221.5C152.679 221.913 151.825 222.12 150.879 222.12ZM151.019 221.08C151.685 221.08 152.272 220.927 152.779 220.62C153.299 220.313 153.705 219.887 153.999 219.34C154.292 218.793 154.439 218.153 154.439 217.42C154.439 216.673 154.285 216.013 153.979 215.44C153.685 214.853 153.272 214.4 152.739 214.08C152.219 213.76 151.619 213.6 150.939 213.6C150.285 213.6 149.699 213.753 149.179 214.06C148.672 214.367 148.265 214.8 147.959 215.36C147.665 215.92 147.519 216.567 147.519 217.3C147.519 218.047 147.665 218.707 147.959 219.28C148.265 219.84 148.679 220.28 149.199 220.6C149.732 220.92 150.339 221.08 151.019 221.08ZM162.854 222.12C161.881 222.12 161.021 221.913 160.274 221.5C159.527 221.087 158.947 220.527 158.534 219.82C158.121 219.1 157.914 218.307 157.914 217.44C157.914 216.52 158.127 215.693 158.554 214.96C158.994 214.213 159.587 213.627 160.334 213.2C161.094 212.773 161.954 212.56 162.914 212.56C163.527 212.56 164.101 212.653 164.634 212.84C165.181 213.027 165.667 213.293 166.094 213.64L165.214 214.6C164.894 214.28 164.521 214.033 164.094 213.86C163.681 213.687 163.247 213.6 162.794 213.6C162.141 213.6 161.554 213.753 161.034 214.06C160.527 214.367 160.121 214.8 159.814 215.36C159.521 215.92 159.374 216.573 159.374 217.32C159.374 218.053 159.521 218.7 159.814 219.26C160.121 219.82 160.547 220.26 161.094 220.58C161.641 220.887 162.281 221.04 163.014 221.04C163.521 221.04 163.981 220.967 164.394 220.82C164.807 220.673 165.161 220.46 165.454 220.18L166.134 221.08C165.707 221.413 165.214 221.673 164.654 221.86C164.107 222.033 163.507 222.12 162.854 222.12ZM175.577 222V212.68H176.957V222H175.577ZM168.617 222V212.68H170.017V222H168.617ZM169.077 213.78V212.68H176.497V213.78H169.077ZM184.609 222.12C183.689 222.12 182.862 221.913 182.129 221.5C181.396 221.087 180.822 220.527 180.409 219.82C179.996 219.113 179.789 218.32 179.789 217.44C179.789 216.52 180.002 215.693 180.429 214.96C180.856 214.227 181.449 213.647 182.209 213.22C182.969 212.78 183.829 212.56 184.789 212.56C185.722 212.56 186.556 212.767 187.289 213.18C188.022 213.593 188.596 214.16 189.009 214.88C189.436 215.587 189.649 216.393 189.649 217.3C189.649 218.233 189.422 219.067 188.969 219.8C188.529 220.52 187.929 221.087 187.169 221.5C186.409 221.913 185.556 222.12 184.609 222.12ZM184.749 221.08C185.416 221.08 186.002 220.927 186.509 220.62C187.029 220.313 187.436 219.887 187.729 219.34C188.022 218.793 188.169 218.153 188.169 217.42C188.169 216.673 188.016 216.013 187.709 215.44C187.416 214.853 187.002 214.4 186.469 214.08C185.949 213.76 185.349 213.6 184.669 213.6C184.016 213.6 183.429 213.753 182.909 214.06C182.402 214.367 181.996 214.8 181.689 215.36C181.396 215.92 181.249 216.567 181.249 217.3C181.249 218.047 181.396 218.707 181.689 219.28C181.996 219.84 182.409 220.28 182.929 220.6C183.462 220.92 184.069 221.08 184.749 221.08ZM201.605 222L201.165 213.3L201.585 213.14L198.045 221.62H197.285L193.385 213.08L193.705 212.68H194.485L198.025 220.24H197.425L200.825 212.68H202.365L202.985 222H201.605ZM192.365 222L192.905 212.68H193.905L193.645 222H192.365ZM207.247 222V221.32L213.667 212.68H214.487V213.38L208.067 222H207.247ZM206.547 222V212.68H207.847L207.787 222H206.547ZM213.827 222L213.887 212.68H215.127V222H213.827ZM225.873 222V212.68H227.273V222H225.873ZM218.773 222V212.68H220.173V222H218.773ZM219.233 217.66V216.56H226.793V217.66H219.233ZM229.682 222L233.642 212.68H235.242L239.222 222H237.782L234.202 213.24H234.602L231.122 222H229.682ZM231.682 218.74L232.022 217.74H236.582L237.082 218.74H231.682ZM248.725 222V212.68H250.125V222H248.725ZM241.625 222V212.68H243.025V222H241.625ZM242.085 217.66V216.56H249.645V217.66H242.085ZM254.473 222V221.32L260.893 212.68H261.713V213.38L255.293 222H254.473ZM253.773 222V212.68H255.073L255.013 222H253.773ZM261.053 222L261.113 212.68H262.353V222H261.053ZM271.32 222V213.68H269.46C268.753 213.68 268.206 213.833 267.82 214.14C267.433 214.447 267.24 214.867 267.24 215.4C267.24 215.973 267.466 216.413 267.92 216.72C268.386 217.027 269 217.18 269.76 217.18C270.12 217.18 270.48 217.167 270.84 217.14C271.2 217.1 271.56 217.047 271.92 216.98V217.94C271.52 218.02 271.12 218.073 270.72 218.1C270.333 218.127 269.946 218.14 269.56 218.14C268.826 218.14 268.173 218.04 267.6 217.84C267.04 217.64 266.6 217.347 266.28 216.96C265.96 216.573 265.8 216.107 265.8 215.56C265.8 214.933 265.953 214.413 266.26 214C266.566 213.573 267.006 213.247 267.58 213.02C268.153 212.793 268.853 212.68 269.68 212.68H272.64V222H271.32ZM265.18 222L268.2 217.52L269.14 217.92L266.8 222H265.18Z" fill="black"/>
<path d="M59.5909 291L63.4469 285.72L59.7669 280.472H61.2229L64.1989 284.824L67.1269 280.472H68.4549L64.7749 285.592L68.6469 291H67.1909L64.0069 286.488L60.9349 291H59.5909ZM70.5966 291V283.544H72.9166C73.578 283.544 74.1433 283.635 74.6126 283.816C75.0926 283.997 75.4553 284.264 75.7006 284.616C75.946 284.968 76.0686 285.4 76.0686 285.912C76.0686 286.456 75.93 286.936 75.6526 287.352C75.386 287.757 74.9966 288.072 74.4846 288.296C73.9726 288.509 73.3593 288.616 72.6446 288.616H71.1406V287.72H72.8206C73.514 287.72 74.0526 287.581 74.4366 287.304C74.8313 287.016 75.0286 286.605 75.0286 286.072C75.0286 285.539 74.826 285.123 74.4206 284.824C74.0153 284.525 73.4553 284.376 72.7406 284.376H71.6526V291H70.5966ZM77.2453 291L80.4133 283.544H81.6933L84.8773 291H83.7253L80.8613 283.992H81.1813L78.3973 291H77.2453ZM78.8453 288.392L79.1173 287.592H82.7653L83.1653 288.392H78.8453ZM92.4798 291V283.544H93.5998V291H92.4798ZM86.7998 291V283.544H87.9198V291H86.7998ZM87.1678 287.528V286.648H93.2158V287.528H87.1678ZM97.0785 291V290.456L102.215 283.544H102.871V284.104L97.7345 291H97.0785ZM96.5185 291V283.544H97.5585L97.5105 291H96.5185ZM102.343 291L102.391 283.544H103.383V291H102.343ZM108.172 291V283.544H109.276V291H108.172ZM105.228 284.424V283.544H112.204V284.424H105.228ZM114.05 291V283.544H115.138V291H114.05ZM114.418 291V290.136H119.618V291H114.418ZM114.418 287.688V286.84H118.658V287.688H114.418ZM114.418 284.392V283.544H119.298V284.392H114.418ZM126.25 291V290.456L131.386 283.544H132.042V284.104L126.906 291H126.25ZM125.69 291V283.544H126.73L126.682 291H125.69ZM131.514 291L131.562 283.544H132.554V291H131.514ZM138.768 291.096C137.989 291.096 137.301 290.931 136.704 290.6C136.106 290.269 135.642 289.821 135.312 289.256C134.981 288.68 134.816 288.045 134.816 287.352C134.816 286.616 134.986 285.955 135.328 285.368C135.68 284.771 136.154 284.301 136.752 283.96C137.36 283.619 138.048 283.448 138.816 283.448C139.306 283.448 139.765 283.523 140.192 283.672C140.629 283.821 141.018 284.035 141.36 284.312L140.656 285.08C140.4 284.824 140.101 284.627 139.76 284.488C139.429 284.349 139.082 284.28 138.72 284.28C138.197 284.28 137.728 284.403 137.312 284.648C136.906 284.893 136.581 285.24 136.336 285.688C136.101 286.136 135.984 286.659 135.984 287.256C135.984 287.843 136.101 288.36 136.336 288.808C136.581 289.256 136.922 289.608 137.36 289.864C137.797 290.109 138.309 290.232 138.896 290.232C139.301 290.232 139.669 290.173 140 290.056C140.33 289.939 140.613 289.768 140.848 289.544L141.392 290.264C141.05 290.531 140.656 290.739 140.208 290.888C139.77 291.027 139.29 291.096 138.768 291.096ZM145.25 291V283.544H146.354V291H145.25ZM142.306 284.424V283.544H149.282V284.424H142.306ZM154.328 291.096C153.592 291.096 152.931 290.931 152.344 290.6C151.757 290.269 151.299 289.821 150.968 289.256C150.637 288.691 150.472 288.056 150.472 287.352C150.472 286.616 150.643 285.955 150.984 285.368C151.325 284.781 151.8 284.317 152.408 283.976C153.016 283.624 153.704 283.448 154.472 283.448C155.219 283.448 155.885 283.613 156.472 283.944C157.059 284.275 157.517 284.728 157.848 285.304C158.189 285.869 158.36 286.515 158.36 287.24C158.36 287.987 158.179 288.653 157.816 289.24C157.464 289.816 156.984 290.269 156.376 290.6C155.768 290.931 155.085 291.096 154.328 291.096ZM154.44 290.264C154.973 290.264 155.443 290.141 155.848 289.896C156.264 289.651 156.589 289.309 156.824 288.872C157.059 288.435 157.176 287.923 157.176 287.336C157.176 286.739 157.053 286.211 156.808 285.752C156.573 285.283 156.243 284.92 155.816 284.664C155.4 284.408 154.92 284.28 154.376 284.28C153.853 284.28 153.384 284.403 152.968 284.648C152.563 284.893 152.237 285.24 151.992 285.688C151.757 286.136 151.64 286.653 151.64 287.24C151.64 287.837 151.757 288.365 151.992 288.824C152.237 289.272 152.568 289.624 152.984 289.88C153.411 290.136 153.896 290.264 154.44 290.264ZM160.612 291V283.544H162.932C163.594 283.544 164.159 283.635 164.628 283.816C165.108 283.997 165.471 284.264 165.716 284.616C165.962 284.968 166.084 285.4 166.084 285.912C166.084 286.456 165.946 286.936 165.668 287.352C165.402 287.757 165.012 288.072 164.5 288.296C163.988 288.509 163.375 288.616 162.66 288.616H161.156V287.72H162.836C163.53 287.72 164.068 287.581 164.452 287.304C164.847 287.016 165.044 286.605 165.044 286.072C165.044 285.539 164.842 285.123 164.436 284.824C164.031 284.525 163.471 284.376 162.756 284.376H161.668V291H160.612ZM168.813 291V290.456L173.949 283.544H174.605V284.104L169.469 291H168.813ZM168.253 291V283.544H169.293L169.245 291H168.253ZM174.077 291L174.125 283.544H175.117V291H174.077ZM178.034 291V283.544H179.106V291H178.034ZM178.402 287.608V286.728H181.346V287.608H178.402ZM184.258 291.096C183.565 291.096 182.951 290.931 182.418 290.6C181.895 290.269 181.485 289.821 181.186 289.256C180.887 288.691 180.738 288.056 180.738 287.352C180.738 286.616 180.893 285.955 181.202 285.368C181.511 284.781 181.938 284.317 182.482 283.976C183.037 283.624 183.671 283.448 184.386 283.448C185.079 283.448 185.703 283.608 186.258 283.928C186.813 284.248 187.25 284.691 187.57 285.256C187.901 285.821 188.066 286.483 188.066 287.24C188.066 288.019 187.89 288.701 187.538 289.288C187.197 289.864 186.738 290.312 186.162 290.632C185.597 290.941 184.962 291.096 184.258 291.096ZM184.338 290.264C184.829 290.264 185.266 290.152 185.65 289.928C186.034 289.693 186.333 289.357 186.546 288.92C186.77 288.472 186.882 287.944 186.882 287.336C186.882 286.696 186.765 286.152 186.53 285.704C186.306 285.245 185.997 284.893 185.602 284.648C185.207 284.403 184.77 284.28 184.29 284.28C183.81 284.28 183.383 284.403 183.01 284.648C182.647 284.893 182.359 285.24 182.146 285.688C181.943 286.125 181.842 286.643 181.842 287.24C181.842 287.837 181.943 288.365 182.146 288.824C182.359 289.272 182.653 289.624 183.026 289.88C183.41 290.136 183.847 290.264 184.338 290.264ZM194.253 291V283.544H197.277C198.002 283.544 198.578 283.709 199.005 284.04C199.432 284.36 199.645 284.797 199.645 285.352C199.645 285.736 199.538 286.088 199.325 286.408C199.122 286.717 198.829 286.968 198.445 287.16C198.072 287.341 197.64 287.432 197.149 287.432L197.325 286.776C197.933 286.776 198.45 286.861 198.877 287.032C199.314 287.192 199.65 287.427 199.885 287.736C200.12 288.045 200.237 288.419 200.237 288.856C200.237 289.283 200.125 289.661 199.901 289.992C199.688 290.312 199.373 290.563 198.957 290.744C198.541 290.915 198.034 291 197.437 291H194.253ZM195.277 290.152H197.469C198.034 290.152 198.461 290.04 198.749 289.816C199.037 289.581 199.181 289.261 199.181 288.856C199.181 288.429 199.01 288.104 198.669 287.88C198.338 287.645 197.81 287.528 197.085 287.528H195.005V286.696H197.277C197.714 286.696 198.05 286.595 198.285 286.392C198.53 286.179 198.653 285.891 198.653 285.528C198.653 285.208 198.53 284.936 198.285 284.712C198.05 284.488 197.666 284.376 197.133 284.376H195.277V290.152ZM201.417 291L204.585 283.544H205.865L209.049 291H207.897L205.033 283.992H205.353L202.569 291H201.417ZM203.017 288.392L203.289 287.592H206.937L207.337 288.392H203.017ZM211.5 291V290.184H220.892V291H211.5ZM210.972 291V283.544H212.06V291H210.972ZM215.66 291V283.544H216.732V291H215.66ZM220.332 291V283.544H221.42V291H220.332ZM224.891 291V290.456L230.027 283.544H230.683V284.104L225.547 291H224.891ZM224.331 291V283.544H225.371L225.323 291H224.331ZM230.155 291L230.203 283.544H231.195V291H230.155ZM232.928 291L235.936 287.096L233.216 283.544H234.512L236.544 286.344L238.544 283.544H239.84L237.072 287.112L240.032 291H238.72L236.464 287.864L234.256 291H232.928ZM249.002 291.096C248.223 291.096 247.535 290.931 246.938 290.6C246.341 290.269 245.877 289.821 245.546 289.256C245.215 288.68 245.05 288.045 245.05 287.352C245.05 286.616 245.221 285.955 245.562 285.368C245.914 284.771 246.389 284.301 246.986 283.96C247.594 283.619 248.282 283.448 249.05 283.448C249.541 283.448 249.999 283.523 250.426 283.672C250.863 283.821 251.253 284.035 251.594 284.312L250.89 285.08C250.634 284.824 250.335 284.627 249.994 284.488C249.663 284.349 249.317 284.28 248.954 284.28C248.431 284.28 247.962 284.403 247.546 284.648C247.141 284.893 246.815 285.24 246.57 285.688C246.335 286.136 246.218 286.659 246.218 287.256C246.218 287.843 246.335 288.36 246.57 288.808C246.815 289.256 247.157 289.608 247.594 289.864C248.031 290.109 248.543 290.232 249.13 290.232C249.535 290.232 249.903 290.173 250.234 290.056C250.565 289.939 250.847 289.768 251.082 289.544L251.626 290.264C251.285 290.531 250.89 290.739 250.442 290.888C250.005 291.027 249.525 291.096 249.002 291.096ZM252.62 291L255.788 283.544H257.068L260.252 291H259.1L256.236 283.992H256.556L253.772 291H252.62ZM254.22 288.392L254.492 287.592H258.14L258.54 288.392H254.22ZM269.487 291L269.135 284.04L269.471 283.912L266.639 290.696H266.031L262.911 283.864L263.167 283.544H263.791L266.623 289.592H266.143L268.863 283.544H270.095L270.591 291H269.487ZM262.095 291L262.527 283.544H263.327L263.119 291H262.095ZM273.44 291V283.544H274.496V290.152H276.336C276.848 290.152 277.248 290.024 277.536 289.768C277.835 289.501 277.984 289.139 277.984 288.68C277.984 288.232 277.824 287.875 277.504 287.608C277.184 287.331 276.678 287.192 275.984 287.192C275.824 287.192 275.574 287.203 275.232 287.224C274.891 287.235 274.544 287.277 274.192 287.352V286.648C274.619 286.509 275.035 286.424 275.44 286.392C275.856 286.349 276.171 286.328 276.384 286.328C277.248 286.328 277.904 286.525 278.352 286.92C278.811 287.315 279.04 287.843 279.04 288.504C279.04 288.984 278.923 289.416 278.688 289.8C278.454 290.173 278.123 290.467 277.696 290.68C277.28 290.893 276.784 291 276.208 291H273.44ZM280.704 291V283.544H281.824V291H280.704ZM283.569 291L286.577 287.096L283.857 283.544H285.153L287.185 286.344L289.185 283.544H290.481L287.713 287.112L290.673 291H289.361L287.105 287.864L284.897 291H283.569ZM82.3379 312.096C81.5593 312.096 80.8713 311.931 80.2739 311.6C79.6766 311.269 79.2126 310.821 78.8819 310.256C78.5513 309.68 78.3859 309.045 78.3859 308.352C78.3859 307.616 78.5566 306.955 78.8979 306.368C79.2499 305.771 79.7246 305.301 80.3219 304.96C80.9299 304.619 81.6179 304.448 82.3859 304.448C82.8766 304.448 83.3353 304.523 83.7619 304.672C84.1993 304.821 84.5886 305.035 84.9299 305.312L84.2259 306.08C83.9699 305.824 83.6713 305.627 83.3299 305.488C82.9993 305.349 82.6526 305.28 82.2899 305.28C81.7673 305.28 81.2979 305.403 80.8819 305.648C80.4766 305.893 80.1513 306.24 79.9059 306.688C79.6713 307.136 79.5539 307.659 79.5539 308.256C79.5539 308.843 79.6713 309.36 79.9059 309.808C80.1513 310.256 80.4926 310.608 80.9299 310.864C81.3673 311.109 81.8793 311.232 82.4659 311.232C82.8713 311.232 83.2393 311.173 83.5699 311.056C83.9006 310.939 84.1833 310.768 84.4179 310.544L84.9619 311.264C84.6206 311.531 84.2259 311.739 83.7779 311.888C83.3406 312.027 82.8606 312.096 82.3379 312.096ZM89.2362 309.36C88.4362 309.36 87.7962 309.147 87.3162 308.72C86.8469 308.283 86.6122 307.691 86.6122 306.944V304.544H87.6842V306.576C87.6842 307.184 87.8442 307.664 88.1642 308.016C88.4949 308.368 88.9589 308.544 89.5562 308.544C89.8015 308.544 90.0682 308.523 90.3562 308.48C90.6442 308.437 90.9162 308.373 91.1722 308.288C91.4282 308.203 91.6202 308.107 91.7482 308L92.0362 308.528C91.8442 308.699 91.5882 308.848 91.2682 308.976C90.9589 309.104 90.6229 309.2 90.2602 309.264C89.9082 309.328 89.5669 309.36 89.2362 309.36ZM91.5562 312V304.544H92.6602V312H91.5562ZM94.5812 312L97.7492 304.544H99.0292L102.213 312H101.061L98.1972 304.992H98.5172L95.7332 312H94.5812ZM96.1812 309.392L96.4532 308.592H100.101L100.501 309.392H96.1812ZM107.432 312.096C106.653 312.096 105.965 311.931 105.368 311.6C104.77 311.269 104.306 310.821 103.976 310.256C103.645 309.68 103.48 309.045 103.48 308.352C103.48 307.616 103.65 306.955 103.992 306.368C104.344 305.771 104.818 305.301 105.416 304.96C106.024 304.619 106.712 304.448 107.48 304.448C107.97 304.448 108.429 304.523 108.856 304.672C109.293 304.821 109.682 305.035 110.024 305.312L109.32 306.08C109.064 305.824 108.765 305.627 108.424 305.488C108.093 305.349 107.746 305.28 107.384 305.28C106.861 305.28 106.392 305.403 105.976 305.648C105.57 305.893 105.245 306.24 105 306.688C104.765 307.136 104.648 307.659 104.648 308.256C104.648 308.843 104.765 309.36 105 309.808C105.245 310.256 105.586 310.608 106.024 310.864C106.461 311.109 106.973 311.232 107.56 311.232C107.965 311.232 108.333 311.173 108.664 311.056C108.994 310.939 109.277 310.768 109.512 310.544L110.056 311.264C109.714 311.531 109.32 311.739 108.872 311.888C108.434 312.027 107.954 312.096 107.432 312.096ZM113.914 312V304.544H115.018V312H113.914ZM110.97 305.424V304.544H117.946V305.424H110.97ZM120.352 312V311.456L125.488 304.544H126.144V305.104L121.008 312H120.352ZM119.792 312V304.544H120.832L120.784 312H119.792ZM125.616 312L125.664 304.544H126.656V312H125.616ZM129.573 312V304.544H132.597C133.323 304.544 133.899 304.709 134.325 305.04C134.752 305.36 134.965 305.797 134.965 306.352C134.965 306.736 134.859 307.088 134.645 307.408C134.443 307.717 134.149 307.968 133.765 308.16C133.392 308.341 132.96 308.432 132.469 308.432L132.645 307.776C133.253 307.776 133.771 307.861 134.197 308.032C134.635 308.192 134.971 308.427 135.205 308.736C135.44 309.045 135.557 309.419 135.557 309.856C135.557 310.283 135.445 310.661 135.221 310.992C135.008 311.312 134.693 311.563 134.277 311.744C133.861 311.915 133.355 312 132.757 312H129.573ZM130.597 311.152H132.789C133.355 311.152 133.781 311.04 134.069 310.816C134.357 310.581 134.501 310.261 134.501 309.856C134.501 309.429 134.331 309.104 133.989 308.88C133.659 308.645 133.131 308.528 132.405 308.528H130.325V307.696H132.597C133.035 307.696 133.371 307.595 133.605 307.392C133.851 307.179 133.973 306.891 133.973 306.528C133.973 306.208 133.851 305.936 133.605 305.712C133.371 305.488 132.987 305.376 132.453 305.376H130.597V311.152ZM137.729 312V304.544H138.785V311.152H140.625C141.137 311.152 141.537 311.024 141.825 310.768C142.124 310.501 142.273 310.139 142.273 309.68C142.273 309.232 142.113 308.875 141.793 308.608C141.473 308.331 140.967 308.192 140.273 308.192C140.113 308.192 139.863 308.203 139.521 308.224C139.18 308.235 138.833 308.277 138.481 308.352V307.648C138.908 307.509 139.324 307.424 139.729 307.392C140.145 307.349 140.46 307.328 140.673 307.328C141.537 307.328 142.193 307.525 142.641 307.92C143.1 308.315 143.329 308.843 143.329 309.504C143.329 309.984 143.212 310.416 142.977 310.8C142.743 311.173 142.412 311.467 141.985 311.68C141.569 311.893 141.073 312 140.497 312H137.729ZM144.993 312V304.544H146.113V312H144.993ZM147.858 312L150.866 308.096L148.146 304.544H149.442L151.474 307.344L153.474 304.544H154.77L152.002 308.112L154.962 312H153.65L151.394 308.864L149.186 312H147.858ZM160.636 312V304.544H163.66C164.385 304.544 164.961 304.709 165.388 305.04C165.814 305.36 166.028 305.797 166.028 306.352C166.028 306.736 165.921 307.088 165.708 307.408C165.505 307.717 165.212 307.968 164.828 308.16C164.454 308.341 164.022 308.432 163.532 308.432L163.708 307.776C164.316 307.776 164.833 307.861 165.26 308.032C165.697 308.192 166.033 308.427 166.268 308.736C166.502 309.045 166.62 309.419 166.62 309.856C166.62 310.283 166.508 310.661 166.284 310.992C166.07 311.312 165.756 311.563 165.34 311.744C164.924 311.915 164.417 312 163.82 312H160.636ZM161.66 311.152H163.852C164.417 311.152 164.844 311.04 165.132 310.816C165.42 310.581 165.564 310.261 165.564 309.856C165.564 309.429 165.393 309.104 165.052 308.88C164.721 308.645 164.193 308.528 163.468 308.528H161.388V307.696H163.66C164.097 307.696 164.433 307.595 164.668 307.392C164.913 307.179 165.036 306.891 165.036 306.528C165.036 306.208 164.913 305.936 164.668 305.712C164.433 305.488 164.049 305.376 163.516 305.376H161.66V311.152ZM171.992 312.096C171.256 312.096 170.595 311.931 170.008 311.6C169.421 311.269 168.963 310.821 168.632 310.256C168.301 309.691 168.136 309.056 168.136 308.352C168.136 307.616 168.307 306.955 168.648 306.368C168.989 305.781 169.464 305.317 170.072 304.976C170.68 304.624 171.368 304.448 172.136 304.448C172.883 304.448 173.549 304.613 174.136 304.944C174.723 305.275 175.181 305.728 175.512 306.304C175.853 306.869 176.024 307.515 176.024 308.24C176.024 308.987 175.843 309.653 175.48 310.24C175.128 310.816 174.648 311.269 174.04 311.6C173.432 311.931 172.749 312.096 171.992 312.096ZM172.104 311.264C172.637 311.264 173.107 311.141 173.512 310.896C173.928 310.651 174.253 310.309 174.488 309.872C174.723 309.435 174.84 308.923 174.84 308.336C174.84 307.739 174.717 307.211 174.472 306.752C174.237 306.283 173.907 305.92 173.48 305.664C173.064 305.408 172.584 305.28 172.04 305.28C171.517 305.28 171.048 305.403 170.632 305.648C170.227 305.893 169.901 306.24 169.656 306.688C169.421 307.136 169.304 307.653 169.304 308.24C169.304 308.837 169.421 309.365 169.656 309.824C169.901 310.272 170.232 310.624 170.648 310.88C171.075 311.136 171.56 311.264 172.104 311.264ZM181.572 312.096C180.794 312.096 180.106 311.931 179.508 311.6C178.911 311.269 178.447 310.821 178.116 310.256C177.786 309.68 177.62 309.045 177.62 308.352C177.62 307.616 177.791 306.955 178.132 306.368C178.484 305.771 178.959 305.301 179.556 304.96C180.164 304.619 180.852 304.448 181.62 304.448C182.111 304.448 182.57 304.523 182.996 304.672C183.434 304.821 183.823 305.035 184.164 305.312L183.46 306.08C183.204 305.824 182.906 305.627 182.564 305.488C182.234 305.349 181.887 305.28 181.524 305.28C181.002 305.28 180.532 305.403 180.116 305.648C179.711 305.893 179.386 306.24 179.14 306.688C178.906 307.136 178.788 307.659 178.788 308.256C178.788 308.843 178.906 309.36 179.14 309.808C179.386 310.256 179.727 310.608 180.164 310.864C180.602 311.109 181.114 311.232 181.7 311.232C182.106 311.232 182.474 311.173 182.804 311.056C183.135 310.939 183.418 310.768 183.652 310.544L184.196 311.264C183.855 311.531 183.46 311.739 183.012 311.888C182.575 312.027 182.095 312.096 181.572 312.096ZM191.751 312V304.544H192.855V312H191.751ZM186.183 312V304.544H187.303V312H186.183ZM186.551 305.424V304.544H192.487V305.424H186.551ZM198.976 312.096C198.24 312.096 197.579 311.931 196.992 311.6C196.406 311.269 195.947 310.821 195.616 310.256C195.286 309.691 195.12 309.056 195.12 308.352C195.12 307.616 195.291 306.955 195.632 306.368C195.974 305.781 196.448 305.317 197.056 304.976C197.664 304.624 198.352 304.448 199.12 304.448C199.867 304.448 200.534 304.613 201.12 304.944C201.707 305.275 202.166 305.728 202.496 306.304C202.838 306.869 203.008 307.515 203.008 308.24C203.008 308.987 202.827 309.653 202.464 310.24C202.112 310.816 201.632 311.269 201.024 311.6C200.416 311.931 199.734 312.096 198.976 312.096ZM199.088 311.264C199.622 311.264 200.091 311.141 200.496 310.896C200.912 310.651 201.238 310.309 201.472 309.872C201.707 309.435 201.824 308.923 201.824 308.336C201.824 307.739 201.702 307.211 201.456 306.752C201.222 306.283 200.891 305.92 200.464 305.664C200.048 305.408 199.568 305.28 199.024 305.28C198.502 305.28 198.032 305.403 197.616 305.648C197.211 305.893 196.886 306.24 196.64 306.688C196.406 307.136 196.288 307.653 196.288 308.24C196.288 308.837 196.406 309.365 196.64 309.824C196.886 310.272 197.216 310.624 197.632 310.88C198.059 311.136 198.544 311.264 199.088 311.264ZM212.573 312L212.221 305.04L212.557 304.912L209.725 311.696H209.117L205.997 304.864L206.253 304.544H206.877L209.709 310.592H209.229L211.949 304.544H213.181L213.677 312H212.573ZM205.181 312L205.613 304.544H206.413L206.205 312H205.181ZM217.086 312V311.456L222.222 304.544H222.878V305.104L217.742 312H217.086ZM216.526 312V304.544H217.566L217.518 312H216.526ZM222.35 312L222.398 304.544H223.39V312H222.35ZM231.988 312V304.544H233.108V312H231.988ZM226.308 312V304.544H227.428V312H226.308ZM226.676 308.528V307.648H232.724V308.528H226.676ZM235.034 312L238.202 304.544H239.482L242.666 312H241.514L238.65 304.992H238.97L236.186 312H235.034ZM236.634 309.392L236.906 308.592H240.554L240.954 309.392H236.634ZM250.269 312V304.544H251.389V312H250.269ZM244.589 312V304.544H245.709V312H244.589ZM244.957 308.528V307.648H251.005V308.528H244.957ZM254.868 312V311.456L260.004 304.544H260.66V305.104L255.524 312H254.868ZM254.308 312V304.544H255.348L255.3 312H254.308ZM260.132 312L260.18 304.544H261.172V312H260.132ZM264.649 312V311.456L269.785 304.544H270.441V305.104L265.305 312H264.649ZM264.089 312V304.544H265.129L265.081 312H264.089ZM269.913 312L269.961 304.544H270.953V312H269.913ZM267.385 303.568C266.937 303.568 266.51 303.456 266.105 303.232C265.71 303.008 265.395 302.683 265.161 302.256L265.913 301.584C266.147 302.011 266.419 302.304 266.729 302.464C267.049 302.624 267.363 302.704 267.673 302.704C268.014 302.704 268.329 302.613 268.617 302.432C268.915 302.24 269.161 301.947 269.353 301.552L269.865 301.888C269.641 302.453 269.299 302.875 268.841 303.152C268.382 303.429 267.897 303.568 267.385 303.568Z" fill="black"/>
</g>
<rect x="0.5" y="0.5" width="349" height="531" rx="14.5" stroke="black"/>
<defs>
<linearGradient id="paint0_linear_42_64" x1="175" y1="0" x2="175" y2="655.5" gradientUnits="userSpaceOnUse">
<stop stop-color="white"/>
<stop offset="1" stop-color="#E5E4FF"/>
</linearGradient>
<linearGradient id="paint1_linear_42_64" x1="119" y1="221" x2="-39.5" y2="69.5" gradientUnits="userSpaceOnUse">
<stop stop-color="#C9C7FF"/>
<stop offset="0.986434" stop-color="white"/>
</linearGradient>
<linearGradient id="paint2_linear_42_64" x1="255.331" y1="337.769" x2="207.556" y2="620.915" gradientUnits="userSpaceOnUse">
<stop stop-color="#C9C7FF"/>
<stop offset="0.986434" stop-color="white"/>
</linearGradient>
<clipPath id="clip0_42_64">
<rect width="350" height="532" rx="15" fill="white"/>
</clipPath>
</defs>
</svg>
