<svg width="350" height="532" viewBox="0 0 350 532" fill="none" xmlns="http://www.w3.org/2000/svg">
<g clip-path="url(#clip0_5_122)">
<rect width="350" height="532" rx="15" fill="url(#paint0_linear_5_122)"/>
<path d="M-10 346.871C-10 346.871 8.05429 404.892 67.5 398C126.007 391.217 131.185 342.687 188.5 329C222 321 254.162 353.692 284.673 358.028C313.735 362.158 359 346.871 359 346.871V712H-10V346.871Z" fill="#FFDBDB" fill-opacity="0.9"/>
<path d="M-158 372.116C-158 372.116 -79.5377 429.253 2.30057 422.593C82.8468 416.037 69.3768 347.671 150.429 350.061C192.847 351.312 205.671 378.708 247.674 382.899C287.684 386.891 350 372.116 350 372.116V725H-158V372.116Z" fill="#C9C7FF" fill-opacity="0.8"/>
<path d="M458 428.159C458 428.159 392.405 472.629 312.5 465.72C233.856 458.92 243.991 375.626 157.357 410.221C93.5 435.72 72.5112 373.873 31.5 378.22C-7.56476 382.361 -38 428.159 -38 428.159V794.221H458V428.159Z" fill="#E8DBFF" fill-opacity="0.9"/>
<path d="M133.114 54V36.5455H139.011C140.381 36.5455 141.5 36.7926 142.369 37.2869C143.244 37.7756 143.892 38.4375 144.312 39.2727C144.733 40.108 144.943 41.0398 144.943 42.0682C144.943 43.0966 144.733 44.0312 144.312 44.8722C143.898 45.7131 143.256 46.3835 142.386 46.8835C141.517 47.3778 140.403 47.625 139.045 47.625H134.818V45.75H138.977C139.915 45.75 140.668 45.5881 141.236 45.2642C141.804 44.9403 142.216 44.5028 142.472 43.9517C142.733 43.3949 142.864 42.767 142.864 42.0682C142.864 41.3693 142.733 40.7443 142.472 40.1932C142.216 39.642 141.801 39.2102 141.227 38.8977C140.653 38.5795 139.892 38.4205 138.943 38.4205H135.227V54H133.114ZM151.928 54.3068C151.098 54.3068 150.345 54.1506 149.669 53.8381C148.993 53.5199 148.456 53.0625 148.058 52.4659C147.661 51.8636 147.462 51.1364 147.462 50.2841C147.462 49.5341 147.609 48.9261 147.905 48.4602C148.2 47.9886 148.595 47.6193 149.089 47.3523C149.584 47.0852 150.129 46.8864 150.726 46.7557C151.328 46.6193 151.933 46.5114 152.541 46.4318C153.337 46.3295 153.982 46.2528 154.476 46.2017C154.976 46.1449 155.339 46.0511 155.567 45.9205C155.8 45.7898 155.916 45.5625 155.916 45.2386V45.1705C155.916 44.3295 155.686 43.6761 155.226 43.2102C154.771 42.7443 154.081 42.5114 153.155 42.5114C152.195 42.5114 151.442 42.7216 150.896 43.142C150.351 43.5625 149.967 44.0114 149.746 44.4886L147.837 43.8068C148.178 43.0114 148.632 42.392 149.2 41.9489C149.774 41.5 150.399 41.1875 151.075 41.0114C151.757 40.8295 152.428 40.7386 153.087 40.7386C153.507 40.7386 153.99 40.7898 154.536 40.892C155.087 40.9886 155.618 41.1903 156.129 41.4972C156.646 41.804 157.075 42.267 157.416 42.8864C157.757 43.5057 157.928 44.3352 157.928 45.375V54H155.916V52.2273H155.814C155.678 52.5114 155.45 52.8153 155.132 53.1392C154.814 53.4631 154.391 53.7386 153.862 53.9659C153.334 54.1932 152.689 54.3068 151.928 54.3068ZM152.234 52.5C153.03 52.5 153.7 52.3438 154.246 52.0312C154.797 51.7188 155.212 51.3153 155.49 50.821C155.774 50.3267 155.916 49.8068 155.916 49.2614V47.4205C155.831 47.5227 155.643 47.6165 155.354 47.7017C155.07 47.7812 154.74 47.8523 154.365 47.9148C153.996 47.9716 153.635 48.0227 153.283 48.0682C152.936 48.108 152.655 48.142 152.439 48.1705C151.916 48.2386 151.428 48.3494 150.973 48.5028C150.524 48.6506 150.161 48.875 149.882 49.1761C149.609 49.4716 149.473 49.875 149.473 50.3864C149.473 51.0852 149.732 51.6136 150.249 51.9716C150.771 52.3239 151.433 52.5 152.234 52.5ZM162.425 58.9091C162.085 58.9091 161.781 58.8807 161.513 58.8239C161.246 58.7727 161.062 58.7216 160.96 58.6705L161.471 56.8977C161.96 57.0227 162.391 57.0682 162.766 57.0341C163.141 57 163.474 56.8324 163.763 56.5312C164.059 56.2358 164.329 55.7557 164.573 55.0909L164.948 54.0682L160.107 40.9091H162.289L165.903 51.3409H166.039L169.653 40.9091H171.835L166.278 55.9091C166.028 56.5852 165.718 57.1449 165.349 57.5881C164.979 58.0369 164.55 58.3693 164.062 58.5852C163.579 58.8011 163.033 58.9091 162.425 58.9091ZM183.251 46.5341V48.4091H176.023V46.5341H183.251ZM176.501 40.9091V54H174.489V40.9091H176.501ZM184.785 40.9091V54H182.773V40.9091H184.785ZM187.06 57.75V52.125H188.151C188.418 51.8466 188.648 51.5455 188.842 51.2216C189.035 50.8977 189.202 50.5142 189.344 50.071C189.492 49.6222 189.617 49.0767 189.719 48.4347C189.822 47.7869 189.913 47.0057 189.992 46.0909L190.435 40.9091H198.754V52.125H200.765V57.75H198.754V54H189.072V57.75H187.06ZM190.435 52.125H196.742V42.7841H192.31L191.969 46.0909C191.827 47.4602 191.651 48.6562 191.441 49.679C191.231 50.7017 190.896 51.517 190.435 52.125ZM210.151 54V52.4659L215.912 46.1591C216.588 45.4205 217.145 44.7784 217.582 44.233C218.02 43.6818 218.344 43.1648 218.554 42.6818C218.77 42.1932 218.878 41.6818 218.878 41.1477C218.878 40.5341 218.73 40.0028 218.435 39.554C218.145 39.1051 217.747 38.7585 217.241 38.5142C216.736 38.2699 216.168 38.1477 215.537 38.1477C214.866 38.1477 214.281 38.2869 213.781 38.5653C213.287 38.8381 212.903 39.2216 212.631 39.7159C212.364 40.2102 212.23 40.7898 212.23 41.4545H210.219C210.219 40.4318 210.455 39.5341 210.926 38.7614C211.398 37.9886 212.04 37.3864 212.852 36.9545C213.67 36.5227 214.588 36.3068 215.605 36.3068C216.628 36.3068 217.534 36.5227 218.324 36.9545C219.114 37.3864 219.733 37.9687 220.182 38.7017C220.631 39.4347 220.855 40.25 220.855 41.1477C220.855 41.7898 220.739 42.4176 220.506 43.0312C220.278 43.6392 219.881 44.3182 219.312 45.0682C218.75 45.8125 217.969 46.7216 216.969 47.7955L213.048 51.9886V52.125H221.162V54H210.151Z" fill="#C9C7FF"/>
<path d="M29.2 214.18C28.5867 214.18 28.0067 214.107 27.46 213.96C26.9133 213.813 26.4133 213.6 25.96 213.32C25.5067 213.04 25.1067 212.72 24.76 212.36L25.54 211.2C26.0467 211.76 26.6333 212.213 27.3 212.56C27.98 212.893 28.7133 213.06 29.5 213.06C30.18 213.06 30.7533 212.953 31.22 212.74C31.6867 212.513 32.0467 212.2 32.3 211.8C32.5533 211.4 32.68 210.933 32.68 210.4C32.68 209.587 32.38 208.927 31.78 208.42C31.18 207.913 30.26 207.66 29.02 207.66H28.04V206.68H29.02C29.7 206.68 30.2733 206.56 30.74 206.32C31.2067 206.067 31.5533 205.747 31.78 205.36C32.02 204.96 32.14 204.553 32.14 204.14C32.14 203.393 31.8867 202.813 31.38 202.4C30.8867 201.987 30.24 201.78 29.44 201.78C28.7067 201.78 28.0533 201.947 27.48 202.28C26.9067 202.6 26.44 203.007 26.08 203.5L25.18 202.56C25.6733 201.973 26.3133 201.513 27.1 201.18C27.9 200.833 28.76 200.66 29.68 200.66C30.4533 200.66 31.1333 200.787 31.72 201.04C32.32 201.28 32.7867 201.64 33.12 202.12C33.4533 202.587 33.62 203.167 33.62 203.86C33.62 204.433 33.46 204.987 33.14 205.52C32.8333 206.04 32.4 206.46 31.84 206.78C31.28 207.1 30.62 207.26 29.86 207.26V206.76C30.74 206.76 31.5 206.9 32.14 207.18C32.78 207.447 33.2733 207.833 33.62 208.34C33.98 208.833 34.16 209.44 34.16 210.16C34.16 210.947 33.9467 211.647 33.52 212.26C33.0933 212.873 32.5 213.347 31.74 213.68C30.9933 214.013 30.1467 214.18 29.2 214.18ZM35.7128 214L39.6728 204.68H41.2728L45.2528 214H43.8128L40.2328 205.24H40.6328L37.1528 214H35.7128ZM37.7128 210.74L38.0528 209.74H42.6128L43.1128 210.74H37.7128ZM49.0584 214V204.68H50.4384V214H49.0584ZM45.3784 205.78V204.68H54.0984V205.78H45.3784ZM56.4059 214V204.68H57.7659V214H56.4059ZM56.8659 214V212.92H63.3659V214H56.8659ZM56.8659 209.86V208.8H62.1659V209.86H56.8659ZM56.8659 205.74V204.68H62.9659V205.74H56.8659ZM75.1748 214L74.7348 205.3L75.1548 205.14L71.6148 213.62H70.8548L66.9548 205.08L67.2748 204.68H68.0548L71.5948 212.24H70.9948L74.3948 204.68H75.9348L76.5548 214H75.1748ZM65.9348 214L66.4748 204.68H67.4748L67.2148 214H65.9348ZM80.5369 217.68L79.9169 217.32C80.2235 216.92 80.4502 216.473 80.5969 215.98C80.7569 215.487 80.8369 214.993 80.8369 214.5C80.8369 213.993 80.7702 213.547 80.6369 213.16C80.5035 212.773 80.3035 212.473 80.0369 212.26L81.2369 211.64C81.5969 211.933 81.8502 212.28 81.9969 212.68C82.1569 213.08 82.2369 213.513 82.2369 213.98C82.2369 214.46 82.1702 214.927 82.0369 215.38C81.9035 215.847 81.7102 216.273 81.4569 216.66C81.2035 217.06 80.8969 217.4 80.5369 217.68ZM90.6247 214V204.68H94.4047C95.3114 204.68 96.0314 204.887 96.5647 205.3C97.098 205.7 97.3647 206.247 97.3647 206.94C97.3647 207.42 97.2314 207.86 96.9647 208.26C96.7114 208.647 96.3447 208.96 95.8647 209.2C95.398 209.427 94.858 209.54 94.2447 209.54L94.4647 208.72C95.2247 208.72 95.8714 208.827 96.4047 209.04C96.9514 209.24 97.3714 209.533 97.6647 209.92C97.958 210.307 98.1047 210.773 98.1047 211.32C98.1047 211.853 97.9647 212.327 97.6847 212.74C97.418 213.14 97.0247 213.453 96.5047 213.68C95.9847 213.893 95.3514 214 94.6047 214H90.6247ZM91.9047 212.94H94.6447C95.3514 212.94 95.8847 212.8 96.2447 212.52C96.6047 212.227 96.7847 211.827 96.7847 211.32C96.7847 210.787 96.5714 210.38 96.1447 210.1C95.7314 209.807 95.0714 209.66 94.1647 209.66H91.5647V208.62H94.4047C94.9514 208.62 95.3714 208.493 95.6647 208.24C95.9714 207.973 96.1247 207.613 96.1247 207.16C96.1247 206.76 95.9714 206.42 95.6647 206.14C95.3714 205.86 94.8914 205.72 94.2247 205.72H91.9047V212.94ZM99.58 214L103.54 204.68H105.14L109.12 214H107.68L104.1 205.24H104.5L101.02 214H99.58ZM101.58 210.74L101.92 209.74H106.48L106.98 210.74H101.58ZM112.183 214V212.98H123.923V214H112.183ZM111.523 214V204.68H112.883V214H111.523ZM117.383 214V204.68H118.723V214H117.383ZM123.223 214V204.68H124.583V214H123.223ZM140.104 214V204.68H141.484V214H140.104ZM133.144 214V204.68H134.544V214H133.144ZM133.604 205.78V204.68H141.024V205.78H133.604ZM143.896 214L147.856 204.68H149.456L153.436 214H151.996L148.416 205.24H148.816L145.336 214H143.896ZM145.896 210.74L146.236 209.74H150.796L151.296 210.74H145.896ZM155.84 214V204.68H158.74C159.566 204.68 160.273 204.793 160.86 205.02C161.46 205.247 161.913 205.58 162.22 206.02C162.526 206.46 162.68 207 162.68 207.64C162.68 208.32 162.506 208.92 162.16 209.44C161.826 209.947 161.34 210.34 160.7 210.62C160.06 210.887 159.293 211.02 158.4 211.02H156.52V209.9H158.62C159.486 209.9 160.16 209.727 160.64 209.38C161.133 209.02 161.38 208.507 161.38 207.84C161.38 207.173 161.126 206.653 160.62 206.28C160.113 205.907 159.413 205.72 158.52 205.72H157.16V214H155.84ZM167.73 214V204.68H169.11V214H167.73ZM164.05 205.78V204.68H172.77V205.78H164.05ZM182.178 214V204.68H183.578V214H182.178ZM175.078 214V204.68H176.478V214H175.078ZM175.538 209.66V208.56H183.098V209.66H175.538ZM187.226 214V204.68H188.586V214H187.226ZM187.686 214V212.92H194.186V214H187.686ZM187.686 209.86V208.8H192.986V209.86H187.686ZM187.686 205.74V204.68H193.786V205.74H187.686ZM196.855 214V204.68H199.755C200.582 204.68 201.288 204.793 201.875 205.02C202.475 205.247 202.928 205.58 203.235 206.02C203.542 206.46 203.695 207 203.695 207.64C203.695 208.32 203.522 208.92 203.175 209.44C202.842 209.947 202.355 210.34 201.715 210.62C201.075 210.887 200.308 211.02 199.415 211.02H197.535V209.9H199.635C200.502 209.9 201.175 209.727 201.655 209.38C202.148 209.02 202.395 208.507 202.395 207.84C202.395 207.173 202.142 206.653 201.635 206.28C201.128 205.907 200.428 205.72 199.535 205.72H198.175V214H196.855Z" fill="black"/>
<path d="M212.988 214.18C212.694 214.18 212.408 214.14 212.128 214.06C211.861 213.993 211.608 213.907 211.368 213.8L211.688 213C211.874 213.053 212.034 213.093 212.168 213.12C212.301 213.147 212.428 213.16 212.548 213.16C213.108 213.16 213.534 212.967 213.828 212.58C214.134 212.193 214.441 211.647 214.748 210.94L217.508 204.68H219.028L215.748 211.42C215.508 211.913 215.268 212.373 215.028 212.8C214.801 213.213 214.528 213.547 214.208 213.8C213.888 214.053 213.481 214.18 212.988 214.18ZM214.348 212.4L210.228 204.68H211.728L215.048 211.48L214.348 212.4ZM221.133 214V204.68H222.533V214H221.133ZM221.133 205.78V204.68H227.573V205.78H221.133ZM227.646 214L231.606 204.68H233.206L237.186 214H235.746L232.166 205.24H232.566L229.086 214H227.646ZM229.646 210.74L229.986 209.74H234.546L235.046 210.74H229.646ZM239.21 214C239.663 213.12 240.003 212.18 240.23 211.18C240.47 210.18 240.643 209.133 240.75 208.04C240.87 206.947 240.97 205.827 241.05 204.68H242.25C242.17 205.84 242.07 206.967 241.95 208.06C241.843 209.153 241.683 210.2 241.47 211.2C241.256 212.187 240.936 213.12 240.51 214H239.21ZM238.29 217.38L238.11 213H239.51L239.33 217.38H238.29ZM238.61 214L238.45 213H248.91L248.31 214H238.61ZM247.71 217.38L247.53 213H248.91L248.73 217.38H247.71ZM245.87 214V204.68H247.19V214H245.87ZM241.75 205.72V204.68H246.49V205.72H241.75ZM251.133 214V204.68H252.453V212.94H254.753C255.393 212.94 255.893 212.78 256.253 212.46C256.626 212.127 256.813 211.673 256.813 211.1C256.813 210.54 256.613 210.093 256.213 209.76C255.813 209.413 255.179 209.24 254.312 209.24C254.113 209.24 253.799 209.253 253.373 209.28C252.946 209.293 252.513 209.347 252.073 209.44V208.56C252.606 208.387 253.126 208.28 253.633 208.24C254.153 208.187 254.546 208.16 254.813 208.16C255.893 208.16 256.713 208.407 257.273 208.9C257.846 209.393 258.133 210.053 258.133 210.88C258.133 211.48 257.986 212.02 257.693 212.5C257.399 212.967 256.986 213.333 256.453 213.6C255.933 213.867 255.313 214 254.592 214H251.133ZM260.213 214V204.68H261.613V214H260.213ZM265.273 214V204.68H269.053C269.96 204.68 270.68 204.887 271.213 205.3C271.746 205.7 272.013 206.247 272.013 206.94C272.013 207.42 271.88 207.86 271.613 208.26C271.36 208.647 270.993 208.96 270.513 209.2C270.046 209.427 269.506 209.54 268.893 209.54L269.113 208.72C269.873 208.72 270.52 208.827 271.053 209.04C271.6 209.24 272.02 209.533 272.313 209.92C272.606 210.307 272.753 210.773 272.753 211.32C272.753 211.853 272.613 212.327 272.333 212.74C272.066 213.14 271.673 213.453 271.153 213.68C270.633 213.893 270 214 269.253 214H265.273ZM266.553 212.94H269.293C270 212.94 270.533 212.8 270.893 212.52C271.253 212.227 271.433 211.827 271.433 211.32C271.433 210.787 271.22 210.38 270.793 210.1C270.38 209.807 269.72 209.66 268.813 209.66H266.213V208.62H269.053C269.6 208.62 270.02 208.493 270.313 208.24C270.62 207.973 270.773 207.613 270.773 207.16C270.773 206.76 270.62 206.42 270.313 206.14C270.02 205.86 269.54 205.72 268.873 205.72H266.553V212.94ZM274.228 214L278.188 204.68H279.788L283.768 214H282.328L278.748 205.24H279.148L275.668 214H274.228ZM276.228 210.74L276.568 209.74H281.128L281.628 210.74H276.228ZM286.172 214V204.68H287.532V214H286.172ZM286.632 214V212.92H293.132V214H286.632ZM286.632 209.86V208.8H291.932V209.86H286.632ZM286.632 205.74V204.68H292.732V205.74H286.632ZM298.14 214V204.68H299.52V214H298.14ZM294.46 205.78V204.68H303.18V205.78H294.46Z" fill="#676598"/>
</g>
<rect x="0.5" y="0.5" width="349" height="531" rx="14.5" stroke="black"/>
<defs>
<linearGradient id="paint0_linear_5_122" x1="175" y1="0" x2="175" y2="655.5" gradientUnits="userSpaceOnUse">
<stop stop-color="white"/>
<stop offset="1" stop-color="#E5E4FF"/>
</linearGradient>
<clipPath id="clip0_5_122">
<rect width="350" height="532" rx="15" fill="white"/>
</clipPath>
</defs>
</svg>
