<svg width="350" height="532" viewBox="0 0 350 532" fill="none" xmlns="http://www.w3.org/2000/svg">
<g clip-path="url(#clip0_5_76)">
<rect width="350" height="532" rx="15" fill="url(#paint0_linear_5_76)"/>
<path d="M-10 346.871C-10 346.871 8.05429 404.892 67.5 398C126.007 391.217 131.185 342.687 188.5 329C222 321 254.162 353.692 284.673 358.028C313.735 362.158 359 346.871 359 346.871V712H-10V346.871Z" fill="#C9C7FF"/>
<path d="M-158 372.116C-158 372.116 -79.5377 429.253 2.30057 422.593C82.8468 416.037 69.3768 347.671 150.429 350.061C192.847 351.312 205.671 378.708 247.674 382.899C287.684 386.891 350 372.116 350 372.116V725H-158V372.116Z" fill="url(#paint1_linear_5_76)" fill-opacity="0.8"/>
<path d="M458 428.159C458 428.159 392.405 472.629 312.5 465.72C233.856 458.92 243.991 375.626 157.357 410.221C93.5 435.72 72.5112 373.873 31.5 378.22C-7.56476 382.361 -38 428.159 -38 428.159V794.221H458V428.159Z" fill="#FFDBDB" fill-opacity="0.9"/>
<path d="M133.114 54V36.5455H139.011C140.381 36.5455 141.5 36.7926 142.369 37.2869C143.244 37.7756 143.892 38.4375 144.312 39.2727C144.733 40.108 144.943 41.0398 144.943 42.0682C144.943 43.0966 144.733 44.0312 144.312 44.8722C143.898 45.7131 143.256 46.3835 142.386 46.8835C141.517 47.3778 140.403 47.625 139.045 47.625H134.818V45.75H138.977C139.915 45.75 140.668 45.5881 141.236 45.2642C141.804 44.9403 142.216 44.5028 142.472 43.9517C142.733 43.3949 142.864 42.767 142.864 42.0682C142.864 41.3693 142.733 40.7443 142.472 40.1932C142.216 39.642 141.801 39.2102 141.227 38.8977C140.653 38.5795 139.892 38.4205 138.943 38.4205H135.227V54H133.114ZM151.928 54.3068C151.098 54.3068 150.345 54.1506 149.669 53.8381C148.993 53.5199 148.456 53.0625 148.058 52.4659C147.661 51.8636 147.462 51.1364 147.462 50.2841C147.462 49.5341 147.609 48.9261 147.905 48.4602C148.2 47.9886 148.595 47.6193 149.089 47.3523C149.584 47.0852 150.129 46.8864 150.726 46.7557C151.328 46.6193 151.933 46.5114 152.541 46.4318C153.337 46.3295 153.982 46.2528 154.476 46.2017C154.976 46.1449 155.339 46.0511 155.567 45.9205C155.8 45.7898 155.916 45.5625 155.916 45.2386V45.1705C155.916 44.3295 155.686 43.6761 155.226 43.2102C154.771 42.7443 154.081 42.5114 153.155 42.5114C152.195 42.5114 151.442 42.7216 150.896 43.142C150.351 43.5625 149.967 44.0114 149.746 44.4886L147.837 43.8068C148.178 43.0114 148.632 42.392 149.2 41.9489C149.774 41.5 150.399 41.1875 151.075 41.0114C151.757 40.8295 152.428 40.7386 153.087 40.7386C153.507 40.7386 153.99 40.7898 154.536 40.892C155.087 40.9886 155.618 41.1903 156.129 41.4972C156.646 41.804 157.075 42.267 157.416 42.8864C157.757 43.5057 157.928 44.3352 157.928 45.375V54H155.916V52.2273H155.814C155.678 52.5114 155.45 52.8153 155.132 53.1392C154.814 53.4631 154.391 53.7386 153.862 53.9659C153.334 54.1932 152.689 54.3068 151.928 54.3068ZM152.234 52.5C153.03 52.5 153.7 52.3438 154.246 52.0312C154.797 51.7188 155.212 51.3153 155.49 50.821C155.774 50.3267 155.916 49.8068 155.916 49.2614V47.4205C155.831 47.5227 155.643 47.6165 155.354 47.7017C155.07 47.7812 154.74 47.8523 154.365 47.9148C153.996 47.9716 153.635 48.0227 153.283 48.0682C152.936 48.108 152.655 48.142 152.439 48.1705C151.916 48.2386 151.428 48.3494 150.973 48.5028C150.524 48.6506 150.161 48.875 149.882 49.1761C149.609 49.4716 149.473 49.875 149.473 50.3864C149.473 51.0852 149.732 51.6136 150.249 51.9716C150.771 52.3239 151.433 52.5 152.234 52.5ZM162.425 58.9091C162.085 58.9091 161.781 58.8807 161.513 58.8239C161.246 58.7727 161.062 58.7216 160.96 58.6705L161.471 56.8977C161.96 57.0227 162.391 57.0682 162.766 57.0341C163.141 57 163.474 56.8324 163.763 56.5312C164.059 56.2358 164.329 55.7557 164.573 55.0909L164.948 54.0682L160.107 40.9091H162.289L165.903 51.3409H166.039L169.653 40.9091H171.835L166.278 55.9091C166.028 56.5852 165.718 57.1449 165.349 57.5881C164.979 58.0369 164.55 58.3693 164.062 58.5852C163.579 58.8011 163.033 58.9091 162.425 58.9091ZM183.251 46.5341V48.4091H176.023V46.5341H183.251ZM176.501 40.9091V54H174.489V40.9091H176.501ZM184.785 40.9091V54H182.773V40.9091H184.785ZM187.06 57.75V52.125H188.151C188.418 51.8466 188.648 51.5455 188.842 51.2216C189.035 50.8977 189.202 50.5142 189.344 50.071C189.492 49.6222 189.617 49.0767 189.719 48.4347C189.822 47.7869 189.913 47.0057 189.992 46.0909L190.435 40.9091H198.754V52.125H200.765V57.75H198.754V54H189.072V57.75H187.06ZM190.435 52.125H196.742V42.7841H192.31L191.969 46.0909C191.827 47.4602 191.651 48.6562 191.441 49.679C191.231 50.7017 190.896 51.517 190.435 52.125ZM216.287 36.5455V54H214.173V38.7614H214.071L209.81 41.5909V39.4432L214.173 36.5455H216.287Z" fill="#C9C7FF"/>
<path d="M41.8 214.18C40.52 214.18 39.3733 213.893 38.36 213.32C37.36 212.747 36.5733 211.953 36 210.94C35.4267 209.927 35.14 208.773 35.14 207.48C35.14 206.467 35.3133 205.54 35.66 204.7C36.02 203.86 36.5133 203.14 37.14 202.54C37.78 201.94 38.5133 201.48 39.34 201.16C40.18 200.827 41.08 200.66 42.04 200.66C43.32 200.66 44.46 200.947 45.46 201.52C46.46 202.093 47.2467 202.887 47.82 203.9C48.3933 204.9 48.68 206.053 48.68 207.36C48.68 208.373 48.5 209.3 48.14 210.14C47.7933 210.98 47.3067 211.7 46.68 212.3C46.0533 212.9 45.32 213.367 44.48 213.7C43.6533 214.02 42.76 214.18 41.8 214.18ZM42.06 213.1C43.06 213.1 43.94 212.867 44.7 212.4C45.46 211.933 46.0467 211.287 46.46 210.46C46.8867 209.62 47.1 208.66 47.1 207.58C47.1 206.407 46.8667 205.387 46.4 204.52C45.9333 203.64 45.2933 202.96 44.48 202.48C43.68 201.987 42.7733 201.74 41.76 201.74C40.7867 201.74 39.92 201.973 39.16 202.44C38.4133 202.907 37.8267 203.553 37.4 204.38C36.9733 205.207 36.76 206.167 36.76 207.26C36.76 208.42 36.9933 209.44 37.46 210.32C37.9267 211.2 38.56 211.887 39.36 212.38C40.1733 212.86 41.0733 213.1 42.06 213.1ZM53.9803 214V204.68H55.3603V214H53.9803ZM50.3003 205.78V204.68H59.0203V205.78H50.3003ZM61.3278 214V204.68H65.1078C66.0145 204.68 66.7345 204.887 67.2678 205.3C67.8011 205.7 68.0678 206.247 68.0678 206.94C68.0678 207.42 67.9345 207.86 67.6678 208.26C67.4145 208.647 67.0478 208.96 66.5678 209.2C66.1011 209.427 65.5611 209.54 64.9478 209.54L65.1678 208.72C65.9278 208.72 66.5745 208.827 67.1078 209.04C67.6545 209.24 68.0745 209.533 68.3678 209.92C68.6611 210.307 68.8078 210.773 68.8078 211.32C68.8078 211.853 68.6678 212.327 68.3878 212.74C68.1211 213.14 67.7278 213.453 67.2078 213.68C66.6878 213.893 66.0545 214 65.3078 214H61.3278ZM62.6078 212.94H65.3478C66.0545 212.94 66.5878 212.8 66.9478 212.52C67.3078 212.227 67.4878 211.827 67.4878 211.32C67.4878 210.787 67.2745 210.38 66.8478 210.1C66.4345 209.807 65.7745 209.66 64.8678 209.66H62.2678V208.62H65.1078C65.6545 208.62 66.0745 208.493 66.3678 208.24C66.6745 207.973 66.8278 207.613 66.8278 207.16C66.8278 206.76 66.6745 206.42 66.3678 206.14C66.0745 205.86 65.5945 205.72 64.9278 205.72H62.6078V212.94ZM71.5231 214V204.68H72.8831V214H71.5231ZM71.9831 214V212.92H78.4831V214H71.9831ZM71.9831 209.86V208.8H77.2831V209.86H71.9831ZM71.9831 205.74V204.68H78.0831V205.74H71.9831ZM83.492 214V204.68H84.872V214H83.492ZM79.812 205.78V204.68H88.532V205.78H79.812ZM90.8395 214V204.68H92.1595V212.94H94.7395C95.4595 212.94 96.0129 212.78 96.3995 212.46C96.7995 212.127 96.9995 211.673 96.9995 211.1C96.9995 210.54 96.7862 210.093 96.3595 209.76C95.9329 209.413 95.2462 209.24 94.2995 209.24C94.0862 209.24 93.7329 209.253 93.2395 209.28C92.7595 209.293 92.2729 209.347 91.7795 209.44V208.56C92.3795 208.387 92.9595 208.28 93.5195 208.24C94.0929 208.187 94.5262 208.16 94.8195 208.16C95.9662 208.16 96.8329 208.407 97.4195 208.9C98.0195 209.393 98.3195 210.053 98.3195 210.88C98.3195 211.48 98.1662 212.02 97.8595 212.5C97.5529 212.967 97.1195 213.333 96.5595 213.6C96.0129 213.867 95.3595 214 94.5995 214H90.8395ZM102.164 214V204.68H103.544V214H102.164ZM98.4839 205.78V204.68H107.204V205.78H98.4839ZM109.511 214V204.68H110.871V214H109.511ZM109.971 214V212.92H116.471V214H109.971ZM109.971 209.86V208.8H115.271V209.86H109.971ZM109.971 205.74V204.68H116.071V205.74H109.971ZM119.56 217.68L118.94 217.32C119.247 216.92 119.474 216.473 119.62 215.98C119.78 215.487 119.86 214.993 119.86 214.5C119.86 213.993 119.794 213.547 119.66 213.16C119.527 212.773 119.327 212.473 119.06 212.26L120.26 211.64C120.62 211.933 120.874 212.28 121.02 212.68C121.18 213.08 121.26 213.513 121.26 213.98C121.26 214.46 121.194 214.927 121.06 215.38C120.927 215.847 120.734 216.273 120.48 216.66C120.227 217.06 119.92 217.4 119.56 217.68ZM132.508 210.7C131.508 210.7 130.708 210.433 130.108 209.9C129.521 209.353 129.228 208.613 129.228 207.68V204.68H130.568V207.22C130.568 207.98 130.768 208.58 131.168 209.02C131.581 209.46 132.161 209.68 132.908 209.68C133.215 209.68 133.548 209.653 133.908 209.6C134.268 209.547 134.608 209.467 134.928 209.36C135.248 209.253 135.488 209.133 135.648 209L136.008 209.66C135.768 209.873 135.448 210.06 135.048 210.22C134.661 210.38 134.241 210.5 133.788 210.58C133.348 210.66 132.921 210.7 132.508 210.7ZM135.408 214V204.68H136.788V214H135.408ZM142.769 214V204.68H144.149V214H142.769ZM139.089 205.78V204.68H147.809V205.78H139.089ZM154.117 214.12C153.197 214.12 152.37 213.913 151.637 213.5C150.904 213.087 150.33 212.527 149.917 211.82C149.504 211.113 149.297 210.32 149.297 209.44C149.297 208.52 149.51 207.693 149.937 206.96C150.364 206.227 150.957 205.647 151.717 205.22C152.477 204.78 153.337 204.56 154.297 204.56C155.23 204.56 156.064 204.767 156.797 205.18C157.53 205.593 158.104 206.16 158.517 206.88C158.944 207.587 159.157 208.393 159.157 209.3C159.157 210.233 158.93 211.067 158.477 211.8C158.037 212.52 157.437 213.087 156.677 213.5C155.917 213.913 155.064 214.12 154.117 214.12ZM154.257 213.08C154.924 213.08 155.51 212.927 156.017 212.62C156.537 212.313 156.944 211.887 157.237 211.34C157.53 210.793 157.677 210.153 157.677 209.42C157.677 208.673 157.524 208.013 157.217 207.44C156.924 206.853 156.51 206.4 155.977 206.08C155.457 205.76 154.857 205.6 154.177 205.6C153.524 205.6 152.937 205.753 152.417 206.06C151.91 206.367 151.504 206.8 151.197 207.36C150.904 207.92 150.757 208.567 150.757 209.3C150.757 210.047 150.904 210.707 151.197 211.28C151.504 211.84 151.917 212.28 152.437 212.6C152.97 212.92 153.577 213.08 154.257 213.08ZM166.894 214V204.68H170.674C171.581 204.68 172.301 204.887 172.834 205.3C173.368 205.7 173.634 206.247 173.634 206.94C173.634 207.42 173.501 207.86 173.234 208.26C172.981 208.647 172.614 208.96 172.134 209.2C171.668 209.427 171.128 209.54 170.514 209.54L170.734 208.72C171.494 208.72 172.141 208.827 172.674 209.04C173.221 209.24 173.641 209.533 173.934 209.92C174.228 210.307 174.374 210.773 174.374 211.32C174.374 211.853 174.234 212.327 173.954 212.74C173.688 213.14 173.294 213.453 172.774 213.68C172.254 213.893 171.621 214 170.874 214H166.894ZM168.174 212.94H170.914C171.621 212.94 172.154 212.8 172.514 212.52C172.874 212.227 173.054 211.827 173.054 211.32C173.054 210.787 172.841 210.38 172.414 210.1C172.001 209.807 171.341 209.66 170.434 209.66H167.834V208.62H170.674C171.221 208.62 171.641 208.493 171.934 208.24C172.241 207.973 172.394 207.613 172.394 207.16C172.394 206.76 172.241 206.42 171.934 206.14C171.641 205.86 171.161 205.72 170.494 205.72H168.174V212.94ZM175.85 214L179.81 204.68H181.41L185.39 214H183.95L180.37 205.24H180.77L177.29 214H175.85ZM177.85 210.74L178.19 209.74H182.75L183.25 210.74H177.85ZM196.933 214L196.493 205.3L196.913 205.14L193.373 213.62H192.613L188.713 205.08L189.033 204.68H189.813L193.353 212.24H192.753L196.153 204.68H197.693L198.313 214H196.933ZM187.693 214L188.233 204.68H189.233L188.973 214H187.693ZM292.484 209.56C292.404 209.28 292.331 208.953 292.264 208.58C292.211 208.193 292.184 207.873 292.184 207.62C292.184 207.207 292.277 206.867 292.464 206.6C292.664 206.333 292.904 206.107 293.184 205.92C293.464 205.733 293.744 205.553 294.024 205.38C294.317 205.193 294.557 204.98 294.744 204.74C294.944 204.5 295.044 204.207 295.044 203.86C295.044 203.527 294.917 203.227 294.664 202.96C294.411 202.68 294.024 202.467 293.504 202.32C292.984 202.16 292.311 202.093 291.484 202.12V200.78C292.471 200.78 293.317 200.913 294.024 201.18C294.744 201.447 295.297 201.82 295.684 202.3C296.084 202.78 296.284 203.347 296.284 204C296.284 204.52 296.184 204.94 295.984 205.26C295.784 205.567 295.537 205.827 295.244 206.04C294.951 206.24 294.651 206.433 294.344 206.62C294.051 206.793 293.804 206.993 293.604 207.22C293.404 207.447 293.304 207.747 293.304 208.12C293.304 208.293 293.317 208.5 293.344 208.74C293.371 208.967 293.417 209.187 293.484 209.4L292.484 209.56ZM293.344 214.1C293.037 214.1 292.784 214.007 292.584 213.82C292.397 213.633 292.304 213.393 292.304 213.1C292.304 212.793 292.397 212.553 292.584 212.38C292.784 212.193 293.037 212.1 293.344 212.1C293.651 212.1 293.897 212.193 294.084 212.38C294.271 212.553 294.364 212.793 294.364 213.1C294.364 213.393 294.271 213.633 294.084 213.82C293.897 214.007 293.651 214.1 293.344 214.1Z" fill="black"/>
<path d="M213.897 214V204.68H215.297V214H213.897ZM206.797 214V204.68H208.197V214H206.797ZM207.257 209.66V208.56H214.817V209.66H207.257ZM218.945 214V204.68H221.845C222.672 204.68 223.378 204.793 223.965 205.02C224.565 205.247 225.018 205.58 225.325 206.02C225.632 206.46 225.785 207 225.785 207.64C225.785 208.32 225.612 208.92 225.265 209.44C224.932 209.947 224.445 210.34 223.805 210.62C223.165 210.887 222.398 211.02 221.505 211.02H219.625V209.9H221.725C222.592 209.9 223.265 209.727 223.745 209.38C224.238 209.02 224.485 208.507 224.485 207.84C224.485 207.173 224.232 206.653 223.725 206.28C223.218 205.907 222.518 205.72 221.625 205.72H220.265V214H218.945ZM227.256 214L231.216 204.68H232.816L236.796 214H235.356L231.776 205.24H232.176L228.696 214H227.256ZM229.256 210.74L229.596 209.74H234.156L234.656 210.74H229.256ZM239.199 214V204.68H242.979C243.886 204.68 244.606 204.887 245.139 205.3C245.672 205.7 245.939 206.247 245.939 206.94C245.939 207.42 245.806 207.86 245.539 208.26C245.286 208.647 244.919 208.96 244.439 209.2C243.972 209.427 243.432 209.54 242.819 209.54L243.039 208.72C243.799 208.72 244.446 208.827 244.979 209.04C245.526 209.24 245.946 209.533 246.239 209.92C246.532 210.307 246.679 210.773 246.679 211.32C246.679 211.853 246.539 212.327 246.259 212.74C245.992 213.14 245.599 213.453 245.079 213.68C244.559 213.893 243.926 214 243.179 214H239.199ZM240.479 212.94H243.219C243.926 212.94 244.459 212.8 244.819 212.52C245.179 212.227 245.359 211.827 245.359 211.32C245.359 210.787 245.146 210.38 244.719 210.1C244.306 209.807 243.646 209.66 242.739 209.66H240.139V208.62H242.979C243.526 208.62 243.946 208.493 244.239 208.24C244.546 207.973 244.699 207.613 244.699 207.16C244.699 206.76 244.546 206.42 244.239 206.14C243.946 205.86 243.466 205.72 242.799 205.72H240.479V212.94ZM250.094 214V213.32L256.514 204.68H257.334V205.38L250.914 214H250.094ZM249.394 214V204.68H250.694L250.634 214H249.394ZM256.674 214L256.734 204.68H257.974V214H256.674ZM263.961 214V204.68H265.341V214H263.961ZM260.281 205.78V204.68H269.001V205.78H260.281ZM275.428 214.12C274.455 214.12 273.595 213.913 272.848 213.5C272.102 213.087 271.522 212.527 271.108 211.82C270.695 211.1 270.488 210.307 270.488 209.44C270.488 208.52 270.702 207.693 271.128 206.96C271.568 206.213 272.162 205.627 272.908 205.2C273.668 204.773 274.528 204.56 275.488 204.56C276.102 204.56 276.675 204.653 277.208 204.84C277.755 205.027 278.242 205.293 278.668 205.64L277.788 206.6C277.468 206.28 277.095 206.033 276.668 205.86C276.255 205.687 275.822 205.6 275.368 205.6C274.715 205.6 274.128 205.753 273.608 206.06C273.102 206.367 272.695 206.8 272.388 207.36C272.095 207.92 271.948 208.573 271.948 209.32C271.948 210.053 272.095 210.7 272.388 211.26C272.695 211.82 273.122 212.26 273.668 212.58C274.215 212.887 274.855 213.04 275.588 213.04C276.095 213.04 276.555 212.967 276.968 212.82C277.382 212.673 277.735 212.46 278.028 212.18L278.708 213.08C278.282 213.413 277.788 213.673 277.228 213.86C276.682 214.033 276.082 214.12 275.428 214.12ZM286.511 214V205.68H284.651C283.944 205.68 283.398 205.833 283.011 206.14C282.624 206.447 282.431 206.867 282.431 207.4C282.431 207.973 282.658 208.413 283.111 208.72C283.578 209.027 284.191 209.18 284.951 209.18C285.311 209.18 285.671 209.167 286.031 209.14C286.391 209.1 286.751 209.047 287.111 208.98V209.94C286.711 210.02 286.311 210.073 285.911 210.1C285.524 210.127 285.138 210.14 284.751 210.14C284.018 210.14 283.364 210.04 282.791 209.84C282.231 209.64 281.791 209.347 281.471 208.96C281.151 208.573 280.991 208.107 280.991 207.56C280.991 206.933 281.144 206.413 281.451 206C281.758 205.573 282.198 205.247 282.771 205.02C283.344 204.793 284.044 204.68 284.871 204.68H287.831V214H286.511ZM280.371 214L283.391 209.52L284.331 209.92L281.991 214H280.371Z" fill="#676598"/>
</g>
<rect x="0.5" y="0.5" width="349" height="531" rx="14.5" stroke="black"/>
<defs>
<linearGradient id="paint0_linear_5_76" x1="175" y1="0" x2="175" y2="655.5" gradientUnits="userSpaceOnUse">
<stop stop-color="white"/>
<stop offset="1" stop-color="#E5E4FF"/>
</linearGradient>
<linearGradient id="paint1_linear_5_76" x1="96" y1="354" x2="96" y2="729" gradientUnits="userSpaceOnUse">
<stop stop-color="#F2C2C2"/>
<stop offset="1" stop-color="white"/>
</linearGradient>
<clipPath id="clip0_5_76">
<rect width="350" height="532" rx="15" fill="white"/>
</clipPath>
</defs>
</svg>
