<svg width="350" height="532" viewBox="0 0 350 532" fill="none" xmlns="http://www.w3.org/2000/svg">
<g clip-path="url(#clip0_44_71)">
<rect width="350" height="532" rx="15" fill="url(#paint0_linear_44_71)"/>
<path d="M-10 346.871C-10 346.871 8.05429 404.892 67.5 398C126.007 391.217 131.185 342.687 188.5 329C222 321 254.162 353.691 284.673 358.028C313.735 362.158 359 346.871 359 346.871V712H-10V346.871Z" fill="#FFDBDB" fill-opacity="0.9"/>
<path d="M-158 372.116C-158 372.116 -79.5377 429.253 2.30056 422.593C82.8468 416.037 69.3768 347.671 150.429 350.061C192.847 351.312 205.671 378.708 247.674 382.899C287.684 386.891 350 372.116 350 372.116V725H-158V372.116Z" fill="#C9C7FF" fill-opacity="0.8"/>
<path d="M458 428.159C458 428.159 392.405 472.629 312.5 465.72C233.856 458.92 243.991 375.626 157.357 410.221C93.5 435.72 72.5112 373.873 31.5 378.22C-7.56476 382.361 -38 428.159 -38 428.159V794.221H458V428.159Z" fill="#E8DBFF" fill-opacity="0.9"/>
<g filter="url(#filter0_f_44_71)">
<path d="M16 217.125C16 293.678 79.717 334.465 126.348 370.986C142.8 383.863 158.65 396 174.5 396C190.35 396 206.2 383.879 222.652 370.97C269.299 334.481 333 293.678 333 217.141C333 140.604 245.825 86.2785 174.5 159.888C103.175 86.2785 16 140.572 16 217.125Z" fill="#C9C7FF"/>
</g>
<path d="M48 218.108C48 279.689 99.054 312.5 136.417 341.878C149.6 352.237 162.3 362 175 362C187.7 362 200.4 352.249 213.583 341.865C250.959 312.512 302 279.689 302 218.121C302 156.552 232.15 112.851 175 172.065C117.85 112.851 48 156.527 48 218.108Z" fill="white"/>
<path d="M85.7081 228.273C85.7081 229.27 85.5281 230.132 85.168 230.858C84.8079 231.584 84.3139 232.144 83.6861 232.538C83.0582 232.932 82.3411 233.129 81.5348 233.129C80.7285 233.129 80.0114 232.932 79.3835 232.538C78.7557 232.144 78.2617 231.584 77.9016 230.858C77.5415 230.132 77.3615 229.27 77.3615 228.273C77.3615 227.276 77.5415 226.414 77.9016 225.688C78.2617 224.961 78.7557 224.401 79.3835 224.007C80.0114 223.613 80.7285 223.416 81.5348 223.416C82.3411 223.416 83.0582 223.613 83.6861 224.007C84.3139 224.401 84.8079 224.961 85.168 225.688C85.5281 226.414 85.7081 227.276 85.7081 228.273ZM84.6001 228.273C84.6001 227.454 84.4632 226.763 84.1893 226.2C83.9184 225.637 83.5507 225.21 83.0859 224.921C82.6243 224.632 82.1072 224.487 81.5348 224.487C80.9624 224.487 80.4438 224.632 79.979 224.921C79.5174 225.21 79.1496 225.637 78.8757 226.2C78.6049 226.763 78.4695 227.454 78.4695 228.273C78.4695 229.091 78.6049 229.782 78.8757 230.346C79.1496 230.909 79.5174 231.335 79.979 231.624C80.4438 231.914 80.9624 232.058 81.5348 232.058C82.1072 232.058 82.6243 231.914 83.0859 231.624C83.5507 231.335 83.9184 230.909 84.1893 230.346C84.4632 229.782 84.6001 229.091 84.6001 228.273ZM87.0792 226.925V225.909H92.8406V226.925H90.5138V233H89.4244V226.925H87.0792ZM94.4298 233V225.909H100.006V233H98.917V226.925H95.5193V233H94.4298ZM101.996 235.659V225.909H103.049V227.036H103.178C103.258 226.912 103.369 226.755 103.51 226.565C103.655 226.371 103.861 226.198 104.129 226.048C104.4 225.894 104.766 225.817 105.228 225.817C105.825 225.817 106.351 225.966 106.807 226.265C107.262 226.563 107.618 226.986 107.873 227.534C108.128 228.082 108.256 228.728 108.256 229.473C108.256 230.224 108.128 230.875 107.873 231.426C107.618 231.974 107.264 232.398 106.811 232.7C106.359 232.998 105.837 233.148 105.246 233.148C104.791 233.148 104.426 233.072 104.152 232.922C103.878 232.768 103.667 232.594 103.52 232.4C103.372 232.203 103.258 232.04 103.178 231.911H103.086V235.659H101.996ZM103.067 229.455C103.067 229.99 103.146 230.462 103.303 230.872C103.46 231.278 103.689 231.597 103.991 231.827C104.292 232.055 104.661 232.169 105.098 232.169C105.554 232.169 105.934 232.049 106.239 231.809C106.546 231.566 106.777 231.24 106.931 230.83C107.088 230.418 107.167 229.959 107.167 229.455C107.167 228.956 107.09 228.507 106.936 228.107C106.785 227.703 106.556 227.385 106.248 227.151C105.943 226.914 105.56 226.795 105.098 226.795C104.655 226.795 104.283 226.908 103.981 227.132C103.68 227.354 103.452 227.665 103.298 228.065C103.144 228.462 103.067 228.925 103.067 229.455ZM112.005 233.166C111.555 233.166 111.148 233.082 110.781 232.912C110.415 232.74 110.124 232.492 109.909 232.169C109.693 231.843 109.586 231.449 109.586 230.987C109.586 230.581 109.666 230.252 109.826 229.999C109.986 229.744 110.2 229.544 110.467 229.399C110.735 229.254 111.031 229.147 111.354 229.076C111.68 229.002 112.008 228.944 112.337 228.901C112.768 228.845 113.117 228.804 113.385 228.776C113.656 228.745 113.853 228.694 113.976 228.624C114.102 228.553 114.165 228.43 114.165 228.254V228.217C114.165 227.762 114.041 227.408 113.791 227.156C113.545 226.903 113.171 226.777 112.669 226.777C112.149 226.777 111.742 226.891 111.446 227.119C111.151 227.346 110.943 227.589 110.823 227.848L109.789 227.479C109.973 227.048 110.22 226.712 110.527 226.472C110.838 226.229 111.177 226.06 111.543 225.964C111.912 225.866 112.276 225.817 112.633 225.817C112.86 225.817 113.122 225.844 113.417 225.9C113.716 225.952 114.004 226.061 114.281 226.228C114.561 226.394 114.793 226.645 114.978 226.98C115.162 227.316 115.255 227.765 115.255 228.328V233H114.165V232.04H114.11C114.036 232.194 113.913 232.358 113.741 232.534C113.568 232.709 113.339 232.858 113.053 232.982C112.766 233.105 112.417 233.166 112.005 233.166ZM112.171 232.188C112.602 232.188 112.965 232.103 113.26 231.934C113.559 231.764 113.784 231.546 113.934 231.278C114.088 231.01 114.165 230.729 114.165 230.433V229.436C114.119 229.491 114.017 229.542 113.861 229.588C113.707 229.632 113.528 229.67 113.325 229.704C113.125 229.735 112.93 229.762 112.739 229.787C112.551 229.808 112.399 229.827 112.282 229.842C111.999 229.879 111.734 229.939 111.488 230.022C111.245 230.102 111.048 230.224 110.897 230.387C110.749 230.547 110.675 230.766 110.675 231.043C110.675 231.421 110.815 231.707 111.095 231.901C111.378 232.092 111.737 232.188 112.171 232.188ZM117.243 233V225.909H120.142C120.906 225.909 121.512 226.081 121.961 226.426C122.411 226.771 122.635 227.226 122.635 227.793C122.635 228.223 122.508 228.557 122.252 228.794C121.997 229.028 121.669 229.187 121.269 229.27C121.53 229.307 121.784 229.399 122.031 229.547C122.28 229.695 122.486 229.898 122.649 230.156C122.812 230.412 122.894 230.726 122.894 231.098C122.894 231.461 122.801 231.786 122.617 232.072C122.432 232.358 122.167 232.585 121.823 232.751C121.478 232.917 121.066 233 120.586 233H117.243ZM118.277 232.003H120.586C120.961 232.003 121.255 231.914 121.467 231.735C121.68 231.557 121.786 231.313 121.786 231.006C121.786 230.639 121.68 230.352 121.467 230.142C121.255 229.93 120.961 229.824 120.586 229.824H118.277V232.003ZM118.277 228.882H120.142C120.435 228.882 120.686 228.842 120.895 228.762C121.104 228.679 121.264 228.562 121.375 228.411C121.489 228.257 121.546 228.076 121.546 227.866C121.546 227.568 121.421 227.334 121.172 227.165C120.923 226.992 120.579 226.906 120.142 226.906H118.277V228.882ZM123.915 233V231.984H124.174C124.386 231.984 124.563 231.943 124.705 231.86C124.846 231.774 124.96 231.624 125.046 231.412C125.136 231.196 125.203 230.898 125.249 230.516C125.299 230.132 125.334 229.642 125.356 229.048L125.485 225.909H130.212V233H129.123V226.925H126.519L126.408 229.455C126.383 230.036 126.331 230.549 126.251 230.992C126.174 231.432 126.056 231.801 125.896 232.1C125.739 232.398 125.529 232.623 125.268 232.774C125.006 232.925 124.678 233 124.285 233H123.915ZM136.477 233V226.906H134.593C134.168 226.906 133.834 227.005 133.591 227.202C133.348 227.399 133.227 227.67 133.227 228.014C133.227 228.353 133.336 228.619 133.554 228.813C133.776 229.007 134.079 229.104 134.464 229.104H136.754V230.119H134.464C133.984 230.119 133.57 230.035 133.222 229.865C132.874 229.696 132.607 229.455 132.419 229.141C132.231 228.824 132.137 228.448 132.137 228.014C132.137 227.577 132.236 227.202 132.433 226.888C132.63 226.574 132.911 226.332 133.277 226.163C133.647 225.994 134.085 225.909 134.593 225.909H137.511V233H136.477ZM131.749 233L133.762 229.473H134.944L132.931 233H131.749ZM140.6 231.393L144.017 225.909H145.272V233H144.183V227.516L140.785 233H139.511V225.909H140.6V231.393ZM143.296 223.545H144.312C144.312 224.044 144.14 224.452 143.795 224.769C143.45 225.086 142.982 225.244 142.392 225.244C141.81 225.244 141.347 225.086 141.002 224.769C140.66 224.452 140.49 224.044 140.49 223.545H141.505C141.505 223.786 141.571 223.996 141.704 224.178C141.839 224.359 142.068 224.45 142.392 224.45C142.715 224.45 142.945 224.359 143.084 224.178C143.226 223.996 143.296 223.786 143.296 223.545ZM146.303 226.925V225.909H152.064V226.925H149.737V233H148.648V226.925H146.303ZM156.258 233.148C155.575 233.148 154.986 232.997 154.49 232.695C153.998 232.391 153.618 231.966 153.35 231.421C153.085 230.873 152.953 230.236 152.953 229.51C152.953 228.784 153.085 228.143 153.35 227.589C153.618 227.032 153.99 226.598 154.467 226.288C154.947 225.974 155.507 225.817 156.147 225.817C156.517 225.817 156.881 225.878 157.242 226.001C157.602 226.125 157.929 226.325 158.225 226.602C158.52 226.875 158.756 227.239 158.931 227.691C159.107 228.143 159.194 228.701 159.194 229.362V229.824H153.728V228.882H158.086C158.086 228.482 158.006 228.125 157.846 227.811C157.689 227.497 157.465 227.249 157.172 227.068C156.883 226.886 156.541 226.795 156.147 226.795C155.714 226.795 155.338 226.903 155.021 227.119C154.707 227.331 154.466 227.608 154.296 227.95C154.127 228.291 154.042 228.657 154.042 229.048V229.676C154.042 230.212 154.135 230.666 154.319 231.038C154.507 231.407 154.767 231.689 155.1 231.883C155.432 232.074 155.818 232.169 156.258 232.169C156.544 232.169 156.803 232.129 157.034 232.049C157.268 231.966 157.469 231.843 157.639 231.68C157.808 231.513 157.939 231.307 158.031 231.061L159.084 231.357C158.973 231.714 158.787 232.027 158.525 232.298C158.263 232.566 157.94 232.775 157.555 232.926C157.171 233.074 156.738 233.148 156.258 233.148ZM167.389 233.148C166.724 233.148 166.151 232.991 165.671 232.677C165.191 232.363 164.822 231.931 164.563 231.38C164.305 230.829 164.176 230.199 164.176 229.491C164.176 228.771 164.308 228.136 164.573 227.585C164.84 227.031 165.213 226.598 165.69 226.288C166.17 225.974 166.73 225.817 167.37 225.817C167.869 225.817 168.318 225.909 168.718 226.094C169.118 226.278 169.446 226.537 169.701 226.869C169.957 227.202 170.115 227.589 170.177 228.033H169.087C169.004 227.71 168.82 227.423 168.533 227.174C168.25 226.922 167.869 226.795 167.389 226.795C166.964 226.795 166.591 226.906 166.271 227.128C165.954 227.346 165.707 227.656 165.528 228.056C165.353 228.453 165.265 228.919 165.265 229.455C165.265 230.002 165.351 230.479 165.524 230.886C165.699 231.292 165.945 231.607 166.262 231.832C166.582 232.057 166.958 232.169 167.389 232.169C167.672 232.169 167.929 232.12 168.16 232.021C168.39 231.923 168.586 231.781 168.746 231.597C168.906 231.412 169.02 231.19 169.087 230.932H170.177C170.115 231.35 169.963 231.727 169.72 232.063C169.48 232.395 169.161 232.66 168.764 232.857C168.37 233.051 167.912 233.148 167.389 233.148ZM171.77 233V225.909H174.669C175.432 225.909 176.038 226.081 176.488 226.426C176.937 226.771 177.162 227.226 177.162 227.793C177.162 228.223 177.034 228.557 176.778 228.794C176.523 229.028 176.195 229.187 175.795 229.27C176.057 229.307 176.311 229.399 176.557 229.547C176.806 229.695 177.012 229.898 177.176 230.156C177.339 230.412 177.42 230.726 177.42 231.098C177.42 231.461 177.328 231.786 177.143 232.072C176.959 232.358 176.694 232.585 176.349 232.751C176.004 232.917 175.592 233 175.112 233H171.77ZM172.804 232.003H175.112C175.487 232.003 175.781 231.914 175.994 231.735C176.206 231.557 176.312 231.313 176.312 231.006C176.312 230.639 176.206 230.352 175.994 230.142C175.781 229.93 175.487 229.824 175.112 229.824H172.804V232.003ZM172.804 228.882H174.669C174.961 228.882 175.212 228.842 175.421 228.762C175.631 228.679 175.791 228.562 175.901 228.411C176.015 228.257 176.072 228.076 176.072 227.866C176.072 227.568 175.948 227.334 175.698 227.165C175.449 226.992 175.106 226.906 174.669 226.906H172.804V228.882ZM181.95 233.148C181.31 233.148 180.748 232.995 180.265 232.691C179.785 232.386 179.41 231.96 179.139 231.412C178.871 230.864 178.737 230.224 178.737 229.491C178.737 228.753 178.871 228.108 179.139 227.557C179.41 227.006 179.785 226.578 180.265 226.274C180.748 225.969 181.31 225.817 181.95 225.817C182.59 225.817 183.15 225.969 183.631 226.274C184.114 226.578 184.489 227.006 184.757 227.557C185.028 228.108 185.163 228.753 185.163 229.491C185.163 230.224 185.028 230.864 184.757 231.412C184.489 231.96 184.114 232.386 183.631 232.691C183.15 232.995 182.59 233.148 181.95 233.148ZM181.95 232.169C182.436 232.169 182.836 232.044 183.15 231.795C183.464 231.546 183.697 231.218 183.847 230.812C183.998 230.406 184.074 229.965 184.074 229.491C184.074 229.018 183.998 228.576 183.847 228.167C183.697 227.757 183.464 227.426 183.15 227.174C182.836 226.922 182.436 226.795 181.95 226.795C181.464 226.795 181.064 226.922 180.75 227.174C180.436 227.426 180.204 227.757 180.053 228.167C179.902 228.576 179.827 229.018 179.827 229.491C179.827 229.965 179.902 230.406 180.053 230.812C180.204 231.218 180.436 231.546 180.75 231.795C181.064 232.044 181.464 232.169 181.95 232.169ZM189.799 233.148C189.116 233.148 188.527 232.997 188.031 232.695C187.539 232.391 187.159 231.966 186.891 231.421C186.626 230.873 186.494 230.236 186.494 229.51C186.494 228.784 186.626 228.143 186.891 227.589C187.159 227.032 187.531 226.598 188.008 226.288C188.488 225.974 189.048 225.817 189.688 225.817C190.058 225.817 190.422 225.878 190.783 226.001C191.143 226.125 191.47 226.325 191.766 226.602C192.061 226.875 192.297 227.239 192.472 227.691C192.648 228.143 192.735 228.701 192.735 229.362V229.824H187.269V228.882H191.627C191.627 228.482 191.547 228.125 191.387 227.811C191.23 227.497 191.006 227.249 190.713 227.068C190.424 226.886 190.082 226.795 189.688 226.795C189.255 226.795 188.879 226.903 188.562 227.119C188.248 227.331 188.007 227.608 187.837 227.95C187.668 228.291 187.583 228.657 187.583 229.048V229.676C187.583 230.212 187.676 230.666 187.86 231.038C188.048 231.407 188.308 231.689 188.641 231.883C188.973 232.074 189.359 232.169 189.799 232.169C190.085 232.169 190.344 232.129 190.575 232.049C190.809 231.966 191.01 231.843 191.18 231.68C191.349 231.513 191.48 231.307 191.572 231.061L192.625 231.357C192.514 231.714 192.328 232.027 192.066 232.298C191.804 232.566 191.481 232.775 191.097 232.926C190.712 233.074 190.279 233.148 189.799 233.148ZM198.271 231.523L200.745 225.909H201.779L198.714 233H197.827L194.817 225.909H195.833L198.271 231.523ZM195.482 225.909V233H194.393V225.909H195.482ZM201.059 233V225.909H202.148V233H201.059ZM204.59 235.659C204.406 235.659 204.241 235.644 204.097 235.613C203.952 235.585 203.852 235.558 203.796 235.53L204.073 234.57C204.338 234.637 204.572 234.662 204.775 234.643C204.978 234.625 205.158 234.534 205.315 234.371C205.475 234.211 205.621 233.951 205.754 233.591L205.957 233.037L203.335 225.909H204.517L206.474 231.56H206.548L208.505 225.909H209.687L206.677 234.034C206.542 234.4 206.374 234.703 206.174 234.944C205.974 235.187 205.742 235.367 205.477 235.484C205.215 235.601 204.92 235.659 204.59 235.659ZM214.781 233V225.909H220.358V233H219.269V226.925H215.871V233H214.781ZM224.434 233.166C223.985 233.166 223.577 233.082 223.211 232.912C222.845 232.74 222.554 232.492 222.339 232.169C222.123 231.843 222.015 231.449 222.015 230.987C222.015 230.581 222.095 230.252 222.255 229.999C222.415 229.744 222.629 229.544 222.897 229.399C223.165 229.254 223.46 229.147 223.783 229.076C224.11 229.002 224.437 228.944 224.767 228.901C225.198 228.845 225.547 228.804 225.815 228.776C226.086 228.745 226.283 228.694 226.406 228.624C226.532 228.553 226.595 228.43 226.595 228.254V228.217C226.595 227.762 226.47 227.408 226.221 227.156C225.975 226.903 225.601 226.777 225.099 226.777C224.579 226.777 224.171 226.891 223.876 227.119C223.58 227.346 223.373 227.589 223.253 227.848L222.218 227.479C222.403 227.048 222.649 226.712 222.957 226.472C223.268 226.229 223.607 226.06 223.973 225.964C224.342 225.866 224.705 225.817 225.062 225.817C225.29 225.817 225.552 225.844 225.847 225.9C226.146 225.952 226.433 226.061 226.71 226.228C226.99 226.394 227.223 226.645 227.407 226.98C227.592 227.316 227.684 227.765 227.684 228.328V233H226.595V232.04H226.54C226.466 232.194 226.343 232.358 226.17 232.534C225.998 232.709 225.769 232.858 225.482 232.982C225.196 233.105 224.847 233.166 224.434 233.166ZM224.601 232.188C225.031 232.188 225.395 232.103 225.69 231.934C225.989 231.764 226.213 231.546 226.364 231.278C226.518 231.01 226.595 230.729 226.595 230.433V229.436C226.549 229.491 226.447 229.542 226.29 229.588C226.136 229.632 225.958 229.67 225.755 229.704C225.555 229.735 225.359 229.762 225.168 229.787C224.981 229.808 224.828 229.827 224.711 229.842C224.428 229.879 224.164 229.939 223.917 230.022C223.674 230.102 223.477 230.224 223.326 230.387C223.179 230.547 223.105 230.766 223.105 231.043C223.105 231.421 223.245 231.707 223.525 231.901C223.808 232.092 224.167 232.188 224.601 232.188ZM229.673 235.659V225.909H230.725V227.036H230.855C230.935 226.912 231.046 226.755 231.187 226.565C231.332 226.371 231.538 226.198 231.806 226.048C232.077 225.894 232.443 225.817 232.904 225.817C233.502 225.817 234.028 225.966 234.483 226.265C234.939 226.563 235.294 226.986 235.55 227.534C235.805 228.082 235.933 228.728 235.933 229.473C235.933 230.224 235.805 230.875 235.55 231.426C235.294 231.974 234.94 232.398 234.488 232.7C234.036 232.998 233.514 233.148 232.923 233.148C232.467 233.148 232.103 233.072 231.829 232.922C231.555 232.768 231.344 232.594 231.196 232.4C231.049 232.203 230.935 232.04 230.855 231.911H230.762V235.659H229.673ZM230.744 229.455C230.744 229.99 230.822 230.462 230.979 230.872C231.136 231.278 231.366 231.597 231.667 231.827C231.969 232.055 232.338 232.169 232.775 232.169C233.231 232.169 233.611 232.049 233.915 231.809C234.223 231.566 234.454 231.24 234.608 230.83C234.765 230.418 234.843 229.959 234.843 229.455C234.843 228.956 234.766 228.507 234.613 228.107C234.462 227.703 234.232 227.385 233.925 227.151C233.62 226.914 233.237 226.795 232.775 226.795C232.332 226.795 231.96 226.908 231.658 227.132C231.356 227.354 231.129 227.665 230.975 228.065C230.821 228.462 230.744 228.925 230.744 229.455ZM236.668 226.925V225.909H242.429V226.925H240.103V233H239.013V226.925H236.668ZM244.019 235.659V225.909H245.071V227.036H245.2C245.28 226.912 245.391 226.755 245.533 226.565C245.677 226.371 245.884 226.198 246.151 226.048C246.422 225.894 246.789 225.817 247.25 225.817C247.847 225.817 248.374 225.966 248.829 226.265C249.285 226.563 249.64 226.986 249.895 227.534C250.151 228.082 250.279 228.728 250.279 229.473C250.279 230.224 250.151 230.875 249.895 231.426C249.64 231.974 249.286 232.398 248.834 232.7C248.381 232.998 247.86 233.148 247.269 233.148C246.813 233.148 246.448 233.072 246.175 232.922C245.901 232.768 245.69 232.594 245.542 232.4C245.394 232.203 245.28 232.04 245.2 231.911H245.108V235.659H244.019ZM245.09 229.455C245.09 229.99 245.168 230.462 245.325 230.872C245.482 231.278 245.711 231.597 246.013 231.827C246.315 232.055 246.684 232.169 247.121 232.169C247.576 232.169 247.956 232.049 248.261 231.809C248.569 231.566 248.8 231.24 248.954 230.83C249.111 230.418 249.189 229.959 249.189 229.455C249.189 228.956 249.112 228.507 248.958 228.107C248.807 227.703 248.578 227.385 248.27 227.151C247.966 226.914 247.583 226.795 247.121 226.795C246.678 226.795 246.305 226.908 246.004 227.132C245.702 227.354 245.474 227.665 245.32 228.065C245.167 228.462 245.09 228.925 245.09 229.455ZM254.914 233.148C254.23 233.148 253.641 232.997 253.145 232.695C252.653 232.391 252.273 231.966 252.005 231.421C251.74 230.873 251.608 230.236 251.608 229.51C251.608 228.784 251.74 228.143 252.005 227.589C252.273 227.032 252.645 226.598 253.122 226.288C253.602 225.974 254.163 225.817 254.803 225.817C255.172 225.817 255.537 225.878 255.897 226.001C256.257 226.125 256.585 226.325 256.88 226.602C257.176 226.875 257.411 227.239 257.586 227.691C257.762 228.143 257.85 228.701 257.85 229.362V229.824H252.384V228.882H256.742C256.742 228.482 256.662 228.125 256.502 227.811C256.345 227.497 256.12 227.249 255.828 227.068C255.538 226.886 255.197 226.795 254.803 226.795C254.369 226.795 253.993 226.903 253.676 227.119C253.362 227.331 253.121 227.608 252.952 227.95C252.782 228.291 252.698 228.657 252.698 229.048V229.676C252.698 230.212 252.79 230.666 252.975 231.038C253.162 231.407 253.422 231.689 253.755 231.883C254.087 232.074 254.473 232.169 254.914 232.169C255.2 232.169 255.458 232.129 255.689 232.049C255.923 231.966 256.125 231.843 256.294 231.68C256.463 231.513 256.594 231.307 256.686 231.061L257.739 231.357C257.628 231.714 257.442 232.027 257.18 232.298C256.919 232.566 256.595 232.775 256.211 232.926C255.826 233.074 255.394 233.148 254.914 233.148ZM253.418 224.727C253.224 224.727 253.052 224.653 252.901 224.506C252.753 224.355 252.679 224.183 252.679 223.989C252.679 223.776 252.753 223.601 252.901 223.462C253.052 223.321 253.224 223.25 253.418 223.25C253.63 223.25 253.806 223.321 253.944 223.462C254.086 223.601 254.156 223.776 254.156 223.989C254.156 224.183 254.086 224.355 253.944 224.506C253.806 224.653 253.63 224.727 253.418 224.727ZM256.077 224.727C255.883 224.727 255.711 224.653 255.56 224.506C255.412 224.355 255.338 224.183 255.338 223.989C255.338 223.776 255.412 223.601 255.56 223.462C255.711 223.321 255.883 223.25 256.077 223.25C256.289 223.25 256.465 223.321 256.603 223.462C256.745 223.601 256.816 223.776 256.816 223.989C256.816 224.183 256.745 224.355 256.603 224.506C256.465 224.653 256.289 224.727 256.077 224.727ZM259.507 235.659V225.909H260.559V227.036H260.689C260.769 226.912 260.88 226.755 261.021 226.565C261.166 226.371 261.372 226.198 261.64 226.048C261.911 225.894 262.277 225.817 262.738 225.817C263.336 225.817 263.862 225.966 264.317 226.265C264.773 226.563 265.128 226.986 265.384 227.534C265.639 228.082 265.767 228.728 265.767 229.473C265.767 230.224 265.639 230.875 265.384 231.426C265.128 231.974 264.774 232.398 264.322 232.7C263.869 232.998 263.348 233.148 262.757 233.148C262.301 233.148 261.937 233.072 261.663 232.922C261.389 232.768 261.178 232.594 261.03 232.4C260.883 232.203 260.769 232.04 260.689 231.911H260.596V235.659H259.507ZM260.578 229.455C260.578 229.99 260.656 230.462 260.813 230.872C260.97 231.278 261.2 231.597 261.501 231.827C261.803 232.055 262.172 232.169 262.609 232.169C263.065 232.169 263.445 232.049 263.749 231.809C264.057 231.566 264.288 231.24 264.442 230.83C264.599 230.418 264.677 229.959 264.677 229.455C264.677 228.956 264.6 228.507 264.447 228.107C264.296 227.703 264.066 227.385 263.759 227.151C263.454 226.914 263.071 226.795 262.609 226.795C262.166 226.795 261.794 226.908 261.492 227.132C261.19 227.354 260.963 227.665 260.809 228.065C260.655 228.462 260.578 228.925 260.578 229.455ZM267.877 235.659C267.692 235.659 267.527 235.644 267.383 235.613C267.238 235.585 267.138 235.558 267.083 235.53L267.36 234.57C267.624 234.637 267.858 234.662 268.061 234.643C268.264 234.625 268.444 234.534 268.601 234.371C268.761 234.211 268.908 233.951 269.04 233.591L269.243 233.037L266.621 225.909H267.803L269.76 231.56H269.834L271.791 225.909H272.973L269.963 234.034C269.828 234.4 269.66 234.703 269.46 234.944C269.26 235.187 269.028 235.367 268.763 235.484C268.501 235.601 268.206 235.659 267.877 235.659ZM102.657 239.25L103.211 239.915C102.995 240.124 102.746 240.27 102.463 240.353C102.18 240.436 101.86 240.487 101.503 240.506C101.146 240.524 100.749 240.543 100.312 240.561C99.8193 240.58 99.4115 240.7 99.0884 240.921C98.7652 241.143 98.5159 241.463 98.3405 241.881C98.1651 242.3 98.0527 242.814 98.0035 243.423H98.0958C98.3359 242.98 98.6683 242.654 99.093 242.445C99.5177 242.235 99.9732 242.131 100.459 242.131C101.013 242.131 101.512 242.26 101.955 242.518C102.398 242.777 102.749 243.16 103.008 243.668C103.266 244.176 103.396 244.802 103.396 245.547C103.396 246.289 103.263 246.929 102.999 247.467C102.737 248.006 102.369 248.421 101.895 248.714C101.424 249.003 100.872 249.148 100.238 249.148C99.6039 249.148 99.0484 248.998 98.5713 248.7C98.0943 248.398 97.7234 247.952 97.4588 247.361C97.1941 246.767 97.0617 246.033 97.0617 245.159V244.402C97.0617 242.823 97.3295 241.626 97.865 240.81C98.4036 239.995 99.213 239.573 100.293 239.545C100.675 239.533 101.015 239.53 101.314 239.536C101.612 239.542 101.872 239.529 102.094 239.495C102.315 239.461 102.503 239.379 102.657 239.25ZM100.238 248.169C100.666 248.169 101.033 248.061 101.341 247.846C101.652 247.63 101.891 247.327 102.057 246.936C102.223 246.542 102.306 246.079 102.306 245.547C102.306 245.03 102.221 244.59 102.052 244.227C101.886 243.863 101.647 243.586 101.337 243.396C101.026 243.205 100.653 243.109 100.219 243.109C99.9024 243.109 99.6177 243.163 99.3654 243.271C99.113 243.379 98.8976 243.537 98.7191 243.746C98.5406 243.956 98.4021 244.211 98.3036 244.513C98.2082 244.814 98.1574 245.159 98.1512 245.547C98.1512 246.341 98.3374 246.976 98.7098 247.453C99.0822 247.931 99.5916 248.169 100.238 248.169ZM106.152 247.393L109.568 241.909H110.823V249H109.734V243.516L106.336 249H105.062V241.909H106.152V247.393ZM115.792 249.148C115.109 249.148 114.519 248.997 114.024 248.695C113.531 248.391 113.151 247.966 112.884 247.421C112.619 246.873 112.487 246.236 112.487 245.51C112.487 244.784 112.619 244.143 112.884 243.589C113.151 243.032 113.524 242.598 114.001 242.288C114.481 241.974 115.041 241.817 115.681 241.817C116.05 241.817 116.415 241.878 116.775 242.001C117.135 242.125 117.463 242.325 117.759 242.602C118.054 242.875 118.289 243.239 118.465 243.691C118.64 244.143 118.728 244.701 118.728 245.362V245.824H113.262V244.882H117.62C117.62 244.482 117.54 244.125 117.38 243.811C117.223 243.497 116.998 243.249 116.706 243.068C116.417 242.886 116.075 242.795 115.681 242.795C115.247 242.795 114.872 242.903 114.555 243.119C114.241 243.331 113.999 243.608 113.83 243.95C113.661 244.291 113.576 244.657 113.576 245.048V245.676C113.576 246.212 113.668 246.666 113.853 247.038C114.041 247.407 114.301 247.689 114.633 247.883C114.966 248.074 115.352 248.169 115.792 248.169C116.078 248.169 116.337 248.129 116.568 248.049C116.801 247.966 117.003 247.843 117.172 247.68C117.342 247.513 117.472 247.307 117.565 247.061L118.617 247.357C118.506 247.714 118.32 248.027 118.059 248.298C117.797 248.566 117.474 248.775 117.089 248.926C116.704 249.074 116.272 249.148 115.792 249.148ZM125.131 244.956V245.972H121.216V244.956H125.131ZM121.475 241.909V249H120.385V241.909H121.475ZM125.962 241.909V249H124.873V241.909H125.962ZM129.041 247.393L132.457 241.909H133.713V249H132.624V243.516L129.226 249H127.952V241.909H129.041V247.393ZM138.682 249.148C137.998 249.148 137.409 248.997 136.913 248.695C136.421 248.391 136.041 247.966 135.773 247.421C135.509 246.873 135.376 246.236 135.376 245.51C135.376 244.784 135.509 244.143 135.773 243.589C136.041 243.032 136.413 242.598 136.89 242.288C137.371 241.974 137.931 241.817 138.571 241.817C138.94 241.817 139.305 241.878 139.665 242.001C140.025 242.125 140.353 242.325 140.648 242.602C140.944 242.875 141.179 243.239 141.355 243.691C141.53 244.143 141.618 244.701 141.618 245.362V245.824H136.152V244.882H140.51C140.51 244.482 140.43 244.125 140.27 243.811C140.113 243.497 139.888 243.249 139.596 243.068C139.306 242.886 138.965 242.795 138.571 242.795C138.137 242.795 137.761 242.903 137.444 243.119C137.13 243.331 136.889 243.608 136.72 243.95C136.55 244.291 136.466 244.657 136.466 245.048V245.676C136.466 246.212 136.558 246.666 136.743 247.038C136.93 247.407 137.19 247.689 137.523 247.883C137.855 248.074 138.241 248.169 138.682 248.169C138.968 248.169 139.226 248.129 139.457 248.049C139.691 247.966 139.893 247.843 140.062 247.68C140.231 247.513 140.362 247.307 140.454 247.061L141.507 247.357C141.396 247.714 141.21 248.027 140.948 248.298C140.687 248.566 140.364 248.775 139.979 248.926C139.594 249.074 139.162 249.148 138.682 249.148ZM146.931 249V241.909H149.83C150.594 241.909 151.2 242.081 151.649 242.426C152.099 242.771 152.323 243.226 152.323 243.793C152.323 244.223 152.196 244.557 151.94 244.794C151.685 245.028 151.357 245.187 150.957 245.27C151.218 245.307 151.472 245.399 151.719 245.547C151.968 245.695 152.174 245.898 152.337 246.156C152.5 246.412 152.582 246.726 152.582 247.098C152.582 247.461 152.489 247.786 152.305 248.072C152.12 248.358 151.855 248.585 151.511 248.751C151.166 248.917 150.754 249 150.274 249H146.931ZM147.965 248.003H150.274C150.649 248.003 150.943 247.914 151.155 247.735C151.368 247.557 151.474 247.313 151.474 247.006C151.474 246.639 151.368 246.352 151.155 246.142C150.943 245.93 150.649 245.824 150.274 245.824H147.965V248.003ZM147.965 244.882H149.83C150.123 244.882 150.374 244.842 150.583 244.762C150.792 244.679 150.952 244.562 151.063 244.411C151.177 244.257 151.234 244.076 151.234 243.866C151.234 243.568 151.109 243.334 150.86 243.165C150.611 242.992 150.267 242.906 149.83 242.906H147.965V244.882ZM156.318 249.166C155.868 249.166 155.461 249.082 155.094 248.912C154.728 248.74 154.437 248.492 154.222 248.169C154.006 247.843 153.899 247.449 153.899 246.987C153.899 246.581 153.979 246.252 154.139 245.999C154.299 245.744 154.513 245.544 154.78 245.399C155.048 245.254 155.344 245.147 155.667 245.076C155.993 245.002 156.321 244.944 156.65 244.901C157.081 244.845 157.43 244.804 157.698 244.776C157.969 244.745 158.166 244.694 158.289 244.624C158.415 244.553 158.478 244.43 158.478 244.254V244.217C158.478 243.762 158.354 243.408 158.104 243.156C157.858 242.903 157.484 242.777 156.982 242.777C156.462 242.777 156.055 242.891 155.759 243.119C155.464 243.346 155.256 243.589 155.136 243.848L154.102 243.479C154.286 243.048 154.533 242.712 154.84 242.472C155.151 242.229 155.49 242.06 155.856 241.964C156.225 241.866 156.589 241.817 156.946 241.817C157.173 241.817 157.435 241.844 157.73 241.9C158.029 241.952 158.317 242.061 158.594 242.228C158.874 242.394 159.106 242.645 159.291 242.98C159.475 243.316 159.568 243.765 159.568 244.328V249H158.478V248.04H158.423C158.349 248.194 158.226 248.358 158.053 248.534C157.881 248.709 157.652 248.858 157.366 248.982C157.079 249.105 156.73 249.166 156.318 249.166ZM156.484 248.188C156.915 248.188 157.278 248.103 157.573 247.934C157.872 247.764 158.097 247.546 158.247 247.278C158.401 247.01 158.478 246.729 158.478 246.433V245.436C158.432 245.491 158.33 245.542 158.174 245.588C158.02 245.632 157.841 245.67 157.638 245.704C157.438 245.735 157.243 245.762 157.052 245.787C156.864 245.808 156.712 245.827 156.595 245.842C156.312 245.879 156.047 245.939 155.801 246.022C155.558 246.102 155.361 246.224 155.21 246.387C155.062 246.547 154.988 246.766 154.988 247.043C154.988 247.421 155.128 247.707 155.408 247.901C155.691 248.092 156.05 248.188 156.484 248.188ZM161.556 241.909H162.646V247.984H165.323V241.909H166.413V247.984H169.09V241.909H170.18V249H161.556V241.909ZM175.143 249.148C174.459 249.148 173.87 248.997 173.374 248.695C172.882 248.391 172.502 247.966 172.234 247.421C171.969 246.873 171.837 246.236 171.837 245.51C171.837 244.784 171.969 244.143 172.234 243.589C172.502 243.032 172.874 242.598 173.351 242.288C173.831 241.974 174.392 241.817 175.032 241.817C175.401 241.817 175.766 241.878 176.126 242.001C176.486 242.125 176.814 242.325 177.109 242.602C177.405 242.875 177.64 243.239 177.815 243.691C177.991 244.143 178.079 244.701 178.079 245.362V245.824H172.613V244.882H176.971C176.971 244.482 176.891 244.125 176.731 243.811C176.574 243.497 176.349 243.249 176.057 243.068C175.767 242.886 175.426 242.795 175.032 242.795C174.598 242.795 174.222 242.903 173.905 243.119C173.591 243.331 173.35 243.608 173.181 243.95C173.011 244.291 172.927 244.657 172.927 245.048V245.676C172.927 246.212 173.019 246.666 173.204 247.038C173.391 247.407 173.651 247.689 173.984 247.883C174.316 248.074 174.702 248.169 175.143 248.169C175.429 248.169 175.687 248.129 175.918 248.049C176.152 247.966 176.354 247.843 176.523 247.68C176.692 247.513 176.823 247.307 176.915 247.061L177.968 247.357C177.857 247.714 177.671 248.027 177.409 248.298C177.148 248.566 176.824 248.775 176.44 248.926C176.055 249.074 175.623 249.148 175.143 249.148ZM184.112 241.909V242.925H180.825V249H179.736V241.909H184.112ZM188.215 249.148C187.575 249.148 187.013 248.995 186.53 248.691C186.05 248.386 185.675 247.96 185.404 247.412C185.136 246.864 185.002 246.224 185.002 245.491C185.002 244.753 185.136 244.108 185.404 243.557C185.675 243.006 186.05 242.578 186.53 242.274C187.013 241.969 187.575 241.817 188.215 241.817C188.855 241.817 189.416 241.969 189.896 242.274C190.379 242.578 190.754 243.006 191.022 243.557C191.293 244.108 191.428 244.753 191.428 245.491C191.428 246.224 191.293 246.864 191.022 247.412C190.754 247.96 190.379 248.386 189.896 248.691C189.416 248.995 188.855 249.148 188.215 249.148ZM188.215 248.169C188.702 248.169 189.102 248.044 189.416 247.795C189.729 247.546 189.962 247.218 190.113 246.812C190.263 246.406 190.339 245.965 190.339 245.491C190.339 245.018 190.263 244.576 190.113 244.167C189.962 243.757 189.729 243.426 189.416 243.174C189.102 242.922 188.702 242.795 188.215 242.795C187.729 242.795 187.329 242.922 187.015 243.174C186.701 243.426 186.469 243.757 186.318 244.167C186.167 244.576 186.092 245.018 186.092 245.491C186.092 245.965 186.167 246.406 186.318 246.812C186.469 247.218 186.701 247.546 187.015 247.795C187.329 248.044 187.729 248.169 188.215 248.169ZM199.628 249.148C198.964 249.148 198.391 248.991 197.911 248.677C197.431 248.363 197.062 247.931 196.803 247.38C196.545 246.829 196.415 246.199 196.415 245.491C196.415 244.771 196.548 244.136 196.812 243.585C197.08 243.031 197.452 242.598 197.929 242.288C198.41 241.974 198.97 241.817 199.61 241.817C200.108 241.817 200.558 241.909 200.958 242.094C201.358 242.278 201.686 242.537 201.941 242.869C202.197 243.202 202.355 243.589 202.417 244.033H201.327C201.244 243.71 201.059 243.423 200.773 243.174C200.49 242.922 200.108 242.795 199.628 242.795C199.204 242.795 198.831 242.906 198.511 243.128C198.194 243.346 197.946 243.656 197.768 244.056C197.592 244.453 197.505 244.919 197.505 245.455C197.505 246.002 197.591 246.479 197.763 246.886C197.939 247.292 198.185 247.607 198.502 247.832C198.822 248.057 199.197 248.169 199.628 248.169C199.911 248.169 200.168 248.12 200.399 248.021C200.63 247.923 200.826 247.781 200.986 247.597C201.146 247.412 201.259 247.19 201.327 246.932H202.417C202.355 247.35 202.203 247.727 201.96 248.063C201.72 248.395 201.401 248.66 201.004 248.857C200.61 249.051 200.152 249.148 199.628 249.148ZM206.982 249.148C206.299 249.148 205.71 248.997 205.214 248.695C204.722 248.391 204.342 247.966 204.074 247.421C203.809 246.873 203.677 246.236 203.677 245.51C203.677 244.784 203.809 244.143 204.074 243.589C204.342 243.032 204.714 242.598 205.191 242.288C205.671 241.974 206.231 241.817 206.872 241.817C207.241 241.817 207.606 241.878 207.966 242.001C208.326 242.125 208.654 242.325 208.949 242.602C209.244 242.875 209.48 243.239 209.655 243.691C209.831 244.143 209.918 244.701 209.918 245.362V245.824H204.453V244.882H208.811C208.811 244.482 208.73 244.125 208.57 243.811C208.413 243.497 208.189 243.249 207.896 243.068C207.607 242.886 207.266 242.795 206.872 242.795C206.438 242.795 206.062 242.903 205.745 243.119C205.431 243.331 205.19 243.608 205.02 243.95C204.851 244.291 204.766 244.657 204.766 245.048V245.676C204.766 246.212 204.859 246.666 205.043 247.038C205.231 247.407 205.491 247.689 205.824 247.883C206.156 248.074 206.542 248.169 206.982 248.169C207.269 248.169 207.527 248.129 207.758 248.049C207.992 247.966 208.193 247.843 208.363 247.68C208.532 247.513 208.663 247.307 208.755 247.061L209.808 247.357C209.697 247.714 209.511 248.027 209.249 248.298C208.987 248.566 208.664 248.775 208.28 248.926C207.895 249.074 207.462 249.148 206.982 249.148ZM211.576 251.659V241.909H212.628V243.036H212.758C212.838 242.912 212.948 242.755 213.09 242.565C213.235 242.371 213.441 242.198 213.709 242.048C213.979 241.894 214.346 241.817 214.807 241.817C215.404 241.817 215.931 241.966 216.386 242.265C216.842 242.563 217.197 242.986 217.453 243.534C217.708 244.082 217.836 244.728 217.836 245.473C217.836 246.224 217.708 246.875 217.453 247.426C217.197 247.974 216.843 248.398 216.391 248.7C215.938 248.998 215.417 249.148 214.826 249.148C214.37 249.148 214.006 249.072 213.732 248.922C213.458 248.768 213.247 248.594 213.099 248.4C212.951 248.203 212.838 248.04 212.758 247.911H212.665V251.659H211.576ZM212.647 245.455C212.647 245.99 212.725 246.462 212.882 246.872C213.039 247.278 213.268 247.597 213.57 247.827C213.872 248.055 214.241 248.169 214.678 248.169C215.134 248.169 215.514 248.049 215.818 247.809C216.126 247.566 216.357 247.24 216.511 246.83C216.668 246.418 216.746 245.959 216.746 245.455C216.746 244.956 216.669 244.507 216.515 244.107C216.365 243.703 216.135 243.385 215.828 243.151C215.523 242.914 215.14 242.795 214.678 242.795C214.235 242.795 213.862 242.908 213.561 243.132C213.259 243.354 213.032 243.665 212.878 244.065C212.724 244.462 212.647 244.925 212.647 245.455ZM218.741 251.031V247.984H219.331C219.476 247.834 219.601 247.67 219.705 247.495C219.81 247.32 219.901 247.112 219.978 246.872C220.058 246.629 220.125 246.333 220.181 245.985C220.236 245.635 220.286 245.211 220.329 244.716L220.569 241.909H225.074V247.984H226.164V251.031H225.074V249H219.83V251.031H218.741ZM220.569 247.984H223.985V242.925H221.584L221.4 244.716C221.323 245.458 221.227 246.105 221.113 246.659C221 247.213 220.818 247.655 220.569 247.984ZM233.187 241.909V247.984H234.184V251.29H233.094V249H227.61V241.909H228.699V247.984H232.097V241.909H233.187ZM237.949 249.166C237.499 249.166 237.091 249.082 236.725 248.912C236.359 248.74 236.068 248.492 235.853 248.169C235.637 247.843 235.53 247.449 235.53 246.987C235.53 246.581 235.61 246.252 235.77 245.999C235.93 245.744 236.144 245.544 236.411 245.399C236.679 245.254 236.974 245.147 237.298 245.076C237.624 245.002 237.952 244.944 238.281 244.901C238.712 244.845 239.061 244.804 239.329 244.776C239.6 244.745 239.797 244.694 239.92 244.624C240.046 244.553 240.109 244.43 240.109 244.254V244.217C240.109 243.762 239.984 243.408 239.735 243.156C239.489 242.903 239.115 242.777 238.613 242.777C238.093 242.777 237.685 242.891 237.39 243.119C237.095 243.346 236.887 243.589 236.767 243.848L235.733 243.479C235.917 243.048 236.164 242.712 236.471 242.472C236.782 242.229 237.121 242.06 237.487 241.964C237.856 241.866 238.219 241.817 238.576 241.817C238.804 241.817 239.066 241.844 239.361 241.9C239.66 241.952 239.947 242.061 240.224 242.228C240.505 242.394 240.737 242.645 240.922 242.98C241.106 243.316 241.199 243.765 241.199 244.328V249H240.109V248.04H240.054C239.98 248.194 239.857 248.358 239.684 248.534C239.512 248.709 239.283 248.858 238.996 248.982C238.71 249.105 238.361 249.166 237.949 249.166ZM238.115 248.188C238.546 248.188 238.909 248.103 239.204 247.934C239.503 247.764 239.727 247.546 239.878 247.278C240.032 247.01 240.109 246.729 240.109 246.433V245.436C240.063 245.491 239.961 245.542 239.804 245.588C239.65 245.632 239.472 245.67 239.269 245.704C239.069 245.735 238.873 245.762 238.683 245.787C238.495 245.808 238.342 245.827 238.226 245.842C237.942 245.879 237.678 245.939 237.432 246.022C237.188 246.102 236.991 246.224 236.841 246.387C236.693 246.547 236.619 246.766 236.619 247.043C236.619 247.421 236.759 247.707 237.039 247.901C237.322 248.092 237.681 248.188 238.115 248.188ZM247.933 247.393L251.349 241.909H252.605V249H251.515V243.516L248.117 249H246.843V241.909H247.933V247.393ZM102.352 265V257.909H107.928V265H106.839V258.925H103.441V265H102.352ZM112.799 265.148C112.159 265.148 111.597 264.995 111.114 264.691C110.634 264.386 110.258 263.96 109.987 263.412C109.72 262.864 109.586 262.224 109.586 261.491C109.586 260.753 109.72 260.108 109.987 259.557C110.258 259.006 110.634 258.578 111.114 258.274C111.597 257.969 112.159 257.817 112.799 257.817C113.439 257.817 113.999 257.969 114.479 258.274C114.962 258.578 115.338 259.006 115.606 259.557C115.876 260.108 116.012 260.753 116.012 261.491C116.012 262.224 115.876 262.864 115.606 263.412C115.338 263.96 114.962 264.386 114.479 264.691C113.999 264.995 113.439 265.148 112.799 265.148ZM112.799 264.169C113.285 264.169 113.685 264.044 113.999 263.795C114.313 263.546 114.545 263.218 114.696 262.812C114.847 262.406 114.922 261.965 114.922 261.491C114.922 261.018 114.847 260.576 114.696 260.167C114.545 259.757 114.313 259.426 113.999 259.174C113.685 258.922 113.285 258.795 112.799 258.795C112.312 258.795 111.912 258.922 111.598 259.174C111.285 259.426 111.052 259.757 110.901 260.167C110.751 260.576 110.675 261.018 110.675 261.491C110.675 261.965 110.751 262.406 110.901 262.812C111.052 263.218 111.285 263.546 111.598 263.795C111.912 264.044 112.312 264.169 112.799 264.169ZM117.047 265V263.984H117.306C117.518 263.984 117.695 263.943 117.836 263.86C117.978 263.774 118.092 263.624 118.178 263.412C118.267 263.196 118.335 262.898 118.381 262.516C118.43 262.132 118.466 261.642 118.487 261.048L118.617 257.909H123.344V265H122.254V258.925H119.651L119.54 261.455C119.515 262.036 119.463 262.549 119.383 262.992C119.306 263.432 119.188 263.801 119.028 264.1C118.871 264.398 118.661 264.623 118.4 264.774C118.138 264.925 117.81 265 117.416 265H117.047ZM125.791 267.659C125.606 267.659 125.441 267.644 125.297 267.613C125.152 267.585 125.052 267.558 124.997 267.53L125.274 266.57C125.538 266.637 125.772 266.662 125.975 266.643C126.178 266.625 126.358 266.534 126.515 266.371C126.675 266.211 126.822 265.951 126.954 265.591L127.157 265.037L124.535 257.909H125.717L127.674 263.56H127.748L129.705 257.909H130.887L127.877 266.034C127.742 266.4 127.574 266.703 127.374 266.944C127.174 267.187 126.942 267.367 126.677 267.484C126.415 267.601 126.12 267.659 125.791 267.659ZM137.575 257.909V265H136.486V257.909H137.575ZM137.151 261.288V262.304C136.904 262.396 136.66 262.478 136.417 262.549C136.174 262.616 135.918 262.67 135.65 262.71C135.383 262.747 135.089 262.766 134.769 262.766C133.965 262.766 133.321 262.549 132.834 262.115C132.351 261.681 132.109 261.03 132.109 260.162V257.891H133.199V260.162C133.199 260.525 133.268 260.824 133.407 261.058C133.545 261.291 133.733 261.465 133.97 261.579C134.207 261.693 134.473 261.75 134.769 261.75C135.23 261.75 135.647 261.708 136.02 261.625C136.395 261.539 136.772 261.427 137.151 261.288ZM141.661 265.166C141.212 265.166 140.804 265.082 140.438 264.912C140.071 264.74 139.781 264.492 139.565 264.169C139.35 263.843 139.242 263.449 139.242 262.987C139.242 262.581 139.322 262.252 139.482 261.999C139.642 261.744 139.856 261.544 140.124 261.399C140.391 261.254 140.687 261.147 141.01 261.076C141.336 261.002 141.664 260.944 141.993 260.901C142.424 260.845 142.774 260.804 143.041 260.776C143.312 260.745 143.509 260.694 143.632 260.624C143.758 260.553 143.821 260.43 143.821 260.254V260.217C143.821 259.762 143.697 259.408 143.448 259.156C143.201 258.903 142.827 258.777 142.326 258.777C141.806 258.777 141.398 258.891 141.102 259.119C140.807 259.346 140.599 259.589 140.479 259.848L139.445 259.479C139.63 259.048 139.876 258.712 140.184 258.472C140.495 258.229 140.833 258.06 141.199 257.964C141.569 257.866 141.932 257.817 142.289 257.817C142.517 257.817 142.778 257.844 143.074 257.9C143.372 257.952 143.66 258.061 143.937 258.228C144.217 258.394 144.449 258.645 144.634 258.98C144.819 259.316 144.911 259.765 144.911 260.328V265H143.821V264.04H143.766C143.692 264.194 143.569 264.358 143.397 264.534C143.224 264.709 142.995 264.858 142.709 264.982C142.423 265.105 142.073 265.166 141.661 265.166ZM141.827 264.188C142.258 264.188 142.621 264.103 142.917 263.934C143.215 263.764 143.44 263.546 143.591 263.278C143.745 263.01 143.821 262.729 143.821 262.433V261.436C143.775 261.491 143.674 261.542 143.517 261.588C143.363 261.632 143.184 261.67 142.981 261.704C142.781 261.735 142.586 261.762 142.395 261.787C142.207 261.808 142.055 261.827 141.938 261.842C141.655 261.879 141.39 261.939 141.144 262.022C140.901 262.102 140.704 262.224 140.553 262.387C140.405 262.547 140.331 262.766 140.331 263.043C140.331 263.421 140.471 263.707 140.752 263.901C141.035 264.092 141.393 264.188 141.827 264.188ZM147.989 263.393L151.405 257.909H152.661V265H151.571V259.516L148.174 265H146.9V257.909H147.989V263.393ZM150.685 255.545H151.701C151.701 256.044 151.528 256.452 151.184 256.769C150.839 257.086 150.371 257.244 149.78 257.244C149.199 257.244 148.735 257.086 148.391 256.769C148.049 256.452 147.878 256.044 147.878 255.545H148.894C148.894 255.786 148.96 255.996 149.092 256.178C149.228 256.359 149.457 256.45 149.78 256.45C150.103 256.45 150.334 256.359 150.473 256.178C150.614 255.996 150.685 255.786 150.685 255.545ZM153.691 258.925V257.909H159.453V258.925H157.126V265H156.037V258.925H153.691ZM163.647 265.148C162.964 265.148 162.374 264.997 161.879 264.695C161.386 264.391 161.006 263.966 160.739 263.421C160.474 262.873 160.342 262.236 160.342 261.51C160.342 260.784 160.474 260.143 160.739 259.589C161.006 259.032 161.379 258.598 161.856 258.288C162.336 257.974 162.896 257.817 163.536 257.817C163.905 257.817 164.27 257.878 164.63 258.001C164.99 258.125 165.318 258.325 165.614 258.602C165.909 258.875 166.144 259.239 166.32 259.691C166.495 260.143 166.583 260.701 166.583 261.362V261.824H161.117V260.882H165.475C165.475 260.482 165.395 260.125 165.235 259.811C165.078 259.497 164.853 259.249 164.561 259.068C164.272 258.886 163.93 258.795 163.536 258.795C163.102 258.795 162.727 258.903 162.41 259.119C162.096 259.331 161.854 259.608 161.685 259.95C161.516 260.291 161.431 260.657 161.431 261.048V261.676C161.431 262.212 161.523 262.666 161.708 263.038C161.896 263.407 162.156 263.689 162.488 263.883C162.821 264.074 163.207 264.169 163.647 264.169C163.933 264.169 164.192 264.129 164.422 264.049C164.656 263.966 164.858 263.843 165.027 263.68C165.197 263.513 165.327 263.307 165.42 263.061L166.472 263.357C166.361 263.714 166.175 264.027 165.914 264.298C165.652 264.566 165.329 264.775 164.944 264.926C164.559 265.074 164.127 265.148 163.647 265.148ZM174.87 265.148C174.186 265.148 173.597 264.997 173.101 264.695C172.609 264.391 172.229 263.966 171.961 263.421C171.697 262.873 171.564 262.236 171.564 261.51C171.564 260.784 171.697 260.143 171.961 259.589C172.229 259.032 172.601 258.598 173.078 258.288C173.559 257.974 174.119 257.817 174.759 257.817C175.128 257.817 175.493 257.878 175.853 258.001C176.213 258.125 176.541 258.325 176.836 258.602C177.132 258.875 177.367 259.239 177.543 259.691C177.718 260.143 177.806 260.701 177.806 261.362V261.824H172.34V260.882H176.698C176.698 260.482 176.618 260.125 176.458 259.811C176.301 259.497 176.076 259.249 175.784 259.068C175.494 258.886 175.153 258.795 174.759 258.795C174.325 258.795 173.949 258.903 173.632 259.119C173.318 259.331 173.077 259.608 172.908 259.95C172.738 260.291 172.654 260.657 172.654 261.048V261.676C172.654 262.212 172.746 262.666 172.931 263.038C173.118 263.407 173.378 263.689 173.711 263.883C174.043 264.074 174.429 264.169 174.87 264.169C175.156 264.169 175.414 264.129 175.645 264.049C175.879 263.966 176.081 263.843 176.25 263.68C176.419 263.513 176.55 263.307 176.642 263.061L177.695 263.357C177.584 263.714 177.398 264.027 177.136 264.298C176.875 264.566 176.552 264.775 176.167 264.926C175.782 265.074 175.35 265.148 174.87 265.148ZM183.839 257.909V258.925H180.552V265H179.463V257.909H183.839ZM187.942 265.148C187.302 265.148 186.74 264.995 186.257 264.691C185.777 264.386 185.402 263.96 185.131 263.412C184.863 262.864 184.729 262.224 184.729 261.491C184.729 260.753 184.863 260.108 185.131 259.557C185.402 259.006 185.777 258.578 186.257 258.274C186.74 257.969 187.302 257.817 187.942 257.817C188.582 257.817 189.143 257.969 189.623 258.274C190.106 258.578 190.481 259.006 190.749 259.557C191.02 260.108 191.155 260.753 191.155 261.491C191.155 262.224 191.02 262.864 190.749 263.412C190.481 263.96 190.106 264.386 189.623 264.691C189.143 264.995 188.582 265.148 187.942 265.148ZM187.942 264.169C188.429 264.169 188.829 264.044 189.143 263.795C189.456 263.546 189.689 263.218 189.84 262.812C189.99 262.406 190.066 261.965 190.066 261.491C190.066 261.018 189.99 260.576 189.84 260.167C189.689 259.757 189.456 259.426 189.143 259.174C188.829 258.922 188.429 258.795 187.942 258.795C187.456 258.795 187.056 258.922 186.742 259.174C186.428 259.426 186.196 259.757 186.045 260.167C185.894 260.576 185.819 261.018 185.819 261.491C185.819 261.965 185.894 262.406 186.045 262.812C186.196 263.218 186.428 263.546 186.742 263.795C187.056 264.044 187.456 264.169 187.942 264.169ZM196.475 265V257.909H199.374C200.137 257.909 200.743 258.081 201.193 258.426C201.642 258.771 201.867 259.226 201.867 259.793C201.867 260.223 201.739 260.557 201.484 260.794C201.228 261.028 200.9 261.187 200.5 261.27C200.762 261.307 201.016 261.399 201.262 261.547C201.511 261.695 201.717 261.898 201.881 262.156C202.044 262.412 202.125 262.726 202.125 263.098C202.125 263.461 202.033 263.786 201.848 264.072C201.664 264.358 201.399 264.585 201.054 264.751C200.71 264.917 200.297 265 199.817 265H196.475ZM197.509 264.003H199.817C200.193 264.003 200.486 263.914 200.699 263.735C200.911 263.557 201.017 263.313 201.017 263.006C201.017 262.639 200.911 262.352 200.699 262.142C200.486 261.93 200.193 261.824 199.817 261.824H197.509V264.003ZM197.509 260.882H199.374C199.666 260.882 199.917 260.842 200.126 260.762C200.336 260.679 200.496 260.562 200.606 260.411C200.72 260.257 200.777 260.076 200.777 259.866C200.777 259.568 200.653 259.334 200.403 259.165C200.154 258.992 199.811 258.906 199.374 258.906H197.509V260.882ZM206.988 263.19H208.151C208.176 263.51 208.32 263.754 208.585 263.92C208.853 264.086 209.2 264.169 209.628 264.169C210.065 264.169 210.439 264.08 210.75 263.901C211.061 263.72 211.216 263.427 211.216 263.024C211.216 262.787 211.158 262.581 211.041 262.406C210.924 262.227 210.759 262.089 210.547 261.99C210.335 261.892 210.084 261.842 209.794 261.842H208.576V260.864H209.794C210.228 260.864 210.548 260.765 210.755 260.568C210.964 260.371 211.069 260.125 211.069 259.83C211.069 259.513 210.956 259.259 210.732 259.068C210.507 258.874 210.188 258.777 209.776 258.777C209.36 258.777 209.014 258.871 208.737 259.059C208.46 259.243 208.314 259.482 208.299 259.774H207.154C207.166 259.393 207.283 259.056 207.505 258.763C207.726 258.468 208.028 258.237 208.409 258.071C208.791 257.901 209.228 257.817 209.721 257.817C210.219 257.817 210.652 257.904 211.018 258.08C211.387 258.252 211.672 258.488 211.872 258.786C212.075 259.082 212.176 259.417 212.176 259.793C212.176 260.193 212.064 260.516 211.839 260.762C211.615 261.008 211.333 261.184 210.995 261.288V261.362C211.262 261.381 211.495 261.467 211.692 261.621C211.892 261.772 212.047 261.97 212.158 262.216C212.269 262.459 212.324 262.729 212.324 263.024C212.324 263.455 212.209 263.83 211.978 264.151C211.747 264.468 211.43 264.714 211.027 264.889C210.624 265.062 210.164 265.148 209.647 265.148C209.145 265.148 208.696 265.066 208.299 264.903C207.902 264.737 207.586 264.508 207.352 264.215C207.121 263.92 207 263.578 206.988 263.19ZM215.941 265.166C215.492 265.166 215.084 265.082 214.718 264.912C214.352 264.74 214.061 264.492 213.845 264.169C213.63 263.843 213.522 263.449 213.522 262.987C213.522 262.581 213.602 262.252 213.762 261.999C213.922 261.744 214.136 261.544 214.404 261.399C214.672 261.254 214.967 261.147 215.29 261.076C215.617 261.002 215.944 260.944 216.274 260.901C216.704 260.845 217.054 260.804 217.322 260.776C217.592 260.745 217.789 260.694 217.912 260.624C218.039 260.553 218.102 260.43 218.102 260.254V260.217C218.102 259.762 217.977 259.408 217.728 259.156C217.482 258.903 217.108 258.777 216.606 258.777C216.086 258.777 215.678 258.891 215.383 259.119C215.087 259.346 214.879 259.589 214.759 259.848L213.725 259.479C213.91 259.048 214.156 258.712 214.464 258.472C214.775 258.229 215.113 258.06 215.48 257.964C215.849 257.866 216.212 257.817 216.569 257.817C216.797 257.817 217.058 257.844 217.354 257.9C217.652 257.952 217.94 258.061 218.217 258.228C218.497 258.394 218.73 258.645 218.914 258.98C219.099 259.316 219.191 259.765 219.191 260.328V265H218.102V264.04H218.046C217.972 264.194 217.849 264.358 217.677 264.534C217.505 264.709 217.275 264.858 216.989 264.982C216.703 265.105 216.354 265.166 215.941 265.166ZM216.107 264.188C216.538 264.188 216.901 264.103 217.197 263.934C217.495 263.764 217.72 263.546 217.871 263.278C218.025 263.01 218.102 262.729 218.102 262.433V261.436C218.056 261.491 217.954 261.542 217.797 261.588C217.643 261.632 217.465 261.67 217.262 261.704C217.061 261.735 216.866 261.762 216.675 261.787C216.488 261.808 216.335 261.827 216.218 261.842C215.935 261.879 215.67 261.939 215.424 262.022C215.181 262.102 214.984 262.224 214.833 262.387C214.686 262.547 214.612 262.766 214.612 263.043C214.612 263.421 214.752 263.707 215.032 263.901C215.315 264.092 215.673 264.188 216.107 264.188ZM225.058 263.523L227.532 257.909H228.566L225.501 265H224.614L221.604 257.909H222.62L225.058 263.523ZM222.269 257.909V265H221.18V257.909H222.269ZM227.846 265V257.909H228.935V265H227.846ZM233.903 265.148C233.22 265.148 232.63 264.997 232.135 264.695C231.642 264.391 231.262 263.966 230.994 263.421C230.73 262.873 230.597 262.236 230.597 261.51C230.597 260.784 230.73 260.143 230.994 259.589C231.262 259.032 231.635 258.598 232.112 258.288C232.592 257.974 233.152 257.817 233.792 257.817C234.161 257.817 234.526 257.878 234.886 258.001C235.246 258.125 235.574 258.325 235.869 258.602C236.165 258.875 236.4 259.239 236.576 259.691C236.751 260.143 236.839 260.701 236.839 261.362V261.824H231.373V260.882H235.731C235.731 260.482 235.651 260.125 235.491 259.811C235.334 259.497 235.109 259.249 234.817 259.068C234.528 258.886 234.186 258.795 233.792 258.795C233.358 258.795 232.983 258.903 232.666 259.119C232.352 259.331 232.11 259.608 231.941 259.95C231.772 260.291 231.687 260.657 231.687 261.048V261.676C231.687 262.212 231.779 262.666 231.964 263.038C232.152 263.407 232.412 263.689 232.744 263.883C233.076 264.074 233.463 264.169 233.903 264.169C234.189 264.169 234.448 264.129 234.678 264.049C234.912 263.966 235.114 263.843 235.283 263.68C235.452 263.513 235.583 263.307 235.676 263.061L236.728 263.357C236.617 263.714 236.431 264.027 236.169 264.298C235.908 264.566 235.585 264.775 235.2 264.926C234.815 265.074 234.383 265.148 233.903 265.148ZM243.242 260.956V261.972H239.327V260.956H243.242ZM239.586 257.909V265H238.496V257.909H239.586ZM244.073 257.909V265H242.983V257.909H244.073ZM246.857 265.074C246.629 265.074 246.433 264.992 246.27 264.829C246.107 264.666 246.026 264.471 246.026 264.243C246.026 264.015 246.107 263.82 246.27 263.657C246.433 263.493 246.629 263.412 246.857 263.412C247.084 263.412 247.28 263.493 247.443 263.657C247.606 263.82 247.688 264.015 247.688 264.243C247.688 264.394 247.649 264.532 247.572 264.658C247.498 264.785 247.398 264.886 247.272 264.963C247.149 265.037 247.011 265.074 246.857 265.074Z" fill="black"/>
</g>
<rect x="0.5" y="0.5" width="349" height="531" rx="14.5" stroke="black"/>
<defs>
<filter id="filter0_f_44_71" x="-14" y="95" width="377" height="331" filterUnits="userSpaceOnUse" color-interpolation-filters="sRGB">
<feFlood flood-opacity="0" result="BackgroundImageFix"/>
<feBlend mode="normal" in="SourceGraphic" in2="BackgroundImageFix" result="shape"/>
<feGaussianBlur stdDeviation="15" result="effect1_foregroundBlur_44_71"/>
</filter>
<linearGradient id="paint0_linear_44_71" x1="175" y1="0" x2="175" y2="655.5" gradientUnits="userSpaceOnUse">
<stop stop-color="white"/>
<stop offset="1" stop-color="#E5E4FF"/>
</linearGradient>
<clipPath id="clip0_44_71">
<rect width="350" height="532" rx="15" fill="white"/>
</clipPath>
</defs>
</svg>
