<svg width="157" height="157" viewBox="0 0 157 157" fill="none" xmlns="http://www.w3.org/2000/svg">
<g clip-path="url(#clip0_15_206)">
<rect width="157" height="157" rx="15" fill="url(#paint0_linear_15_206)"/>
<path d="M32.328 70V59.472H33.512V70H32.328ZM24.744 70V59.472H25.928V70H24.744ZM25.144 65.136V64.176H33.128V65.136H25.144ZM39.906 70.096C39.17 70.096 38.5087 69.9307 37.922 69.6C37.3353 69.2693 36.8767 68.8213 36.546 68.256C36.2153 67.6907 36.05 67.056 36.05 66.352C36.05 65.616 36.2207 64.9547 36.562 64.368C36.9033 63.7813 37.378 63.3173 37.986 62.976C38.594 62.624 39.282 62.448 40.05 62.448C40.7967 62.448 41.4633 62.6133 42.05 62.944C42.6367 63.2747 43.0953 63.728 43.426 64.304C43.7673 64.8693 43.938 65.5147 43.938 66.24C43.938 66.9867 43.7567 67.6533 43.394 68.24C43.042 68.816 42.562 69.2693 41.954 69.6C41.346 69.9307 40.6633 70.096 39.906 70.096ZM40.018 69.264C40.5513 69.264 41.0207 69.1413 41.426 68.896C41.842 68.6507 42.1673 68.3093 42.402 67.872C42.6367 67.4347 42.754 66.9227 42.754 66.336C42.754 65.7387 42.6313 65.2107 42.386 64.752C42.1513 64.2827 41.8207 63.92 41.394 63.664C40.978 63.408 40.498 63.28 39.954 63.28C39.4313 63.28 38.962 63.4027 38.546 63.648C38.1407 63.8933 37.8153 64.24 37.57 64.688C37.3353 65.136 37.218 65.6533 37.218 66.24C37.218 66.8373 37.3353 67.3653 37.57 67.824C37.8153 68.272 38.146 68.624 38.562 68.88C38.9887 69.136 39.474 69.264 40.018 69.264ZM46.1904 70V62.544H49.2144C49.9397 62.544 50.5157 62.7093 50.9424 63.04C51.369 63.36 51.5824 63.7973 51.5824 64.352C51.5824 64.736 51.4757 65.088 51.2624 65.408C51.0597 65.7173 50.7664 65.968 50.3824 66.16C50.009 66.3413 49.577 66.432 49.0864 66.432L49.2624 65.776C49.8704 65.776 50.3877 65.8613 50.8144 66.032C51.2517 66.192 51.5877 66.4267 51.8224 66.736C52.057 67.0453 52.1744 67.4187 52.1744 67.856C52.1744 68.2827 52.0624 68.6613 51.8384 68.992C51.625 69.312 51.3104 69.5627 50.8944 69.744C50.4784 69.9147 49.9717 70 49.3744 70H46.1904ZM47.2144 69.152H49.4064C49.9717 69.152 50.3984 69.04 50.6864 68.816C50.9744 68.5813 51.1184 68.2613 51.1184 67.856C51.1184 67.4293 50.9477 67.104 50.6064 66.88C50.2757 66.6453 49.7477 66.528 49.0224 66.528H46.9424V65.696H49.2144C49.6517 65.696 49.9877 65.5947 50.2224 65.392C50.4677 65.1787 50.5904 64.8907 50.5904 64.528C50.5904 64.208 50.4677 63.936 50.2224 63.712C49.9877 63.488 49.6037 63.376 49.0704 63.376H47.2144V69.152ZM57.5466 70.096C56.8106 70.096 56.1493 69.9307 55.5626 69.6C54.976 69.2693 54.5173 68.8213 54.1866 68.256C53.856 67.6907 53.6906 67.056 53.6906 66.352C53.6906 65.616 53.8613 64.9547 54.2026 64.368C54.544 63.7813 55.0186 63.3173 55.6266 62.976C56.2346 62.624 56.9226 62.448 57.6906 62.448C58.4373 62.448 59.104 62.6133 59.6906 62.944C60.2773 63.2747 60.736 63.728 61.0666 64.304C61.408 64.8693 61.5786 65.5147 61.5786 66.24C61.5786 66.9867 61.3973 67.6533 61.0346 68.24C60.6826 68.816 60.2026 69.2693 59.5946 69.6C58.9866 69.9307 58.304 70.096 57.5466 70.096ZM57.6586 69.264C58.192 69.264 58.6613 69.1413 59.0666 68.896C59.4826 68.6507 59.808 68.3093 60.0426 67.872C60.2773 67.4347 60.3946 66.9227 60.3946 66.336C60.3946 65.7387 60.272 65.2107 60.0266 64.752C59.792 64.2827 59.4613 63.92 59.0346 63.664C58.6186 63.408 58.1386 63.28 57.5946 63.28C57.072 63.28 56.6026 63.4027 56.1866 63.648C55.7813 63.8933 55.456 64.24 55.2106 64.688C54.976 65.136 54.8586 65.6533 54.8586 66.24C54.8586 66.8373 54.976 67.3653 55.2106 67.824C55.456 68.272 55.7866 68.624 56.2026 68.88C56.6293 69.136 57.1146 69.264 57.6586 69.264ZM63.831 70V62.544H64.919V70H63.831ZM64.199 70V69.136H69.399V70H64.199ZM64.199 66.688V65.84H68.439V66.688H64.199ZM64.199 63.392V62.544H69.079V63.392H64.199ZM30.024 100V92.544H31.128V100H30.024ZM24.456 100V92.544H25.576V100H24.456ZM24.824 93.424V92.544H30.76V93.424H24.824ZM34.0498 100V92.544H36.3698C37.0311 92.544 37.5964 92.6347 38.0658 92.816C38.5458 92.9973 38.9084 93.264 39.1538 93.616C39.3991 93.968 39.5218 94.4 39.5218 94.912C39.5218 95.456 39.3831 95.936 39.1058 96.352C38.8391 96.7573 38.4498 97.072 37.9378 97.296C37.4258 97.5093 36.8124 97.616 36.0978 97.616H34.5938V96.72H36.2738C36.9671 96.72 37.5058 96.5813 37.8898 96.304C38.2844 96.016 38.4818 95.6053 38.4818 95.072C38.4818 94.5387 38.2791 94.1227 37.8738 93.824C37.4684 93.5253 36.9084 93.376 36.1938 93.376H35.1058V100H34.0498ZM42.2504 100V99.456L47.3864 92.544H48.0424V93.104L42.9064 100H42.2504ZM41.6904 100V92.544H42.7304L42.6824 100H41.6904ZM47.5144 100L47.5624 92.544H48.5544V100H47.5144ZM56.6716 100L52.4956 96.24L56.5756 92.544H58.0636L53.2796 96.528L53.3596 95.808L58.1756 100H56.6716ZM51.4716 100V92.544H52.5916V100H51.4716ZM59.7034 100.128C59.5114 100.128 59.3194 100.107 59.1274 100.064C58.946 100.032 58.7807 99.984 58.6314 99.92L58.8074 99.408C58.8927 99.44 58.9727 99.4613 59.0474 99.472C59.122 99.4827 59.1914 99.488 59.2554 99.488C59.554 99.488 59.794 99.312 59.9754 98.96C60.1567 98.608 60.2954 98.1227 60.3914 97.504C60.498 96.8747 60.5834 96.1387 60.6474 95.296C60.7114 94.4427 60.7754 93.5253 60.8394 92.544H61.7834C61.7194 93.8667 61.6554 95.008 61.5914 95.968C61.5274 96.9173 61.426 97.7013 61.2874 98.32C61.1594 98.928 60.9674 99.3813 60.7114 99.68C60.466 99.9787 60.13 100.128 59.7034 100.128ZM64.9354 100V92.544H66.0234V100H64.9354ZM61.1914 93.36V92.544H65.4154V93.36H61.1914ZM68.9404 100V92.544H70.0124V100H68.9404ZM69.3084 96.608V95.728H72.2524V96.608H69.3084ZM75.1644 100.096C74.471 100.096 73.8577 99.9307 73.3244 99.6C72.8017 99.2693 72.391 98.8213 72.0924 98.256C71.7937 97.6907 71.6444 97.056 71.6444 96.352C71.6444 95.616 71.799 94.9547 72.1084 94.368C72.4177 93.7813 72.8444 93.3173 73.3884 92.976C73.943 92.624 74.5777 92.448 75.2924 92.448C75.9857 92.448 76.6097 92.608 77.1644 92.928C77.719 93.248 78.1564 93.6907 78.4764 94.256C78.807 94.8213 78.9724 95.4827 78.9724 96.24C78.9724 97.0187 78.7964 97.7013 78.4444 98.288C78.103 98.864 77.6444 99.312 77.0684 99.632C76.503 99.9413 75.8684 100.096 75.1644 100.096ZM75.2444 99.264C75.735 99.264 76.1724 99.152 76.5564 98.928C76.9404 98.6933 77.239 98.3573 77.4524 97.92C77.6764 97.472 77.7884 96.944 77.7884 96.336C77.7884 95.696 77.671 95.152 77.4364 94.704C77.2124 94.2453 76.903 93.8933 76.5084 93.648C76.1137 93.4027 75.6764 93.28 75.1964 93.28C74.7164 93.28 74.2897 93.4027 73.9164 93.648C73.5537 93.8933 73.2657 94.24 73.0524 94.688C72.8497 95.1253 72.7484 95.6427 72.7484 96.24C72.7484 96.8373 72.8497 97.3653 73.0524 97.824C73.2657 98.272 73.559 98.624 73.9324 98.88C74.3164 99.136 74.7537 99.264 75.2444 99.264ZM83.5096 97.36C82.7096 97.36 82.0696 97.1467 81.5896 96.72C81.1203 96.2827 80.8856 95.6907 80.8856 94.944V92.544H81.9576V94.576C81.9576 95.184 82.1176 95.664 82.4376 96.016C82.7683 96.368 83.2323 96.544 83.8296 96.544C84.075 96.544 84.3416 96.5227 84.6296 96.48C84.9176 96.4373 85.1896 96.3733 85.4456 96.288C85.7016 96.2027 85.8936 96.1067 86.0216 96L86.3096 96.528C86.1176 96.6987 85.8616 96.848 85.5416 96.976C85.2323 97.104 84.8963 97.2 84.5336 97.264C84.1816 97.328 83.8403 97.36 83.5096 97.36ZM85.8296 100V92.544H86.9336V100H85.8296ZM89.8466 100V92.544H90.9346V100H89.8466ZM90.2146 100V99.136H95.4146V100H90.2146ZM90.2146 96.688V95.84H94.4546V96.688H90.2146ZM90.2146 93.392V92.544H95.0946V93.392H90.2146ZM103.23 100V92.544H104.35V100H103.23ZM97.5498 100V92.544H98.6698V100H97.5498ZM97.9178 96.528V95.648H103.966V96.528H97.9178ZM107.829 100V99.456L112.965 92.544H113.621V93.104L108.485 100H107.829ZM107.269 100V92.544H108.309L108.261 100H107.269ZM113.093 100L113.141 92.544H114.133V100H113.093ZM117.05 100V92.544H118.138V100H117.05ZM117.418 100V99.136H122.618V100H117.418ZM117.418 96.688V95.84H121.658V96.688H117.418ZM117.418 93.392V92.544H122.298V93.392H117.418Z" fill="black"/>
<path d="M102 54C96.4863 54 92.0001 58.4863 92.0001 63.9938C91.9639 72.05 101.62 78.73 102 79C102 79 112.036 72.05 112 64C112 58.4863 107.514 54 102 54ZM102 69C99.2375 69 97.0001 66.7625 97.0001 64C97.0001 61.2375 99.2375 59 102 59C104.762 59 107 61.2375 107 64C107 66.7625 104.762 69 102 69Z" fill="black"/>
</g>
<rect x="0.5" y="0.5" width="156" height="156" rx="14.5" stroke="black"/>
<defs>
<linearGradient id="paint0_linear_15_206" x1="78.5" y1="0" x2="78.5" y2="157" gradientUnits="userSpaceOnUse">
<stop stop-color="white"/>
<stop offset="1" stop-color="#C9C7FF"/>
</linearGradient>
<clipPath id="clip0_15_206">
<rect width="157" height="157" rx="15" fill="white"/>
</clipPath>
</defs>
</svg>
