<svg width="52" height="52" viewBox="0 0 52 52" fill="none" xmlns="http://www.w3.org/2000/svg">
<g filter="url(#filter0_d_37_21)">
<path fill-rule="evenodd" clip-rule="evenodd" d="M25.9999 2.41721e-10C28.889 -1.35424e-05 31.7498 0.569022 34.419 1.67462C37.0882 2.78021 39.5134 4.40071 41.5563 6.4436C43.5992 8.48648 45.2197 10.9117 46.3253 13.5809C47.431 16.2501 48 19.1109 48 21.9999C48 34.1502 38.1502 44 25.9999 44C13.8498 44 4 34.1502 4 21.9999C4 9.84977 13.8498 2.41721e-10 25.9999 2.41721e-10ZM28.2 24.2H23.8C18.3534 24.2 13.6774 27.4987 11.6606 32.2075C14.8517 36.6822 20.0851 39.6 25.9999 39.6C31.9148 39.6 37.1482 36.6822 40.3394 32.2072C38.3226 27.4987 33.6466 24.2 28.2 24.2ZM25.9999 6.59999C22.3549 6.59999 19.4 9.55494 19.4 13.2C19.4 16.845 22.3549 19.8 25.9999 19.8C29.645 19.8 32.5999 16.845 32.5999 13.2C32.5999 9.55494 29.6451 6.59999 25.9999 6.59999Z" fill="white"/>
</g>
<defs>
<filter id="filter0_d_37_21" x="0" y="0" width="52" height="52" filterUnits="userSpaceOnUse" color-interpolation-filters="sRGB">
<feFlood flood-opacity="0" result="BackgroundImageFix"/>
<feColorMatrix in="SourceAlpha" type="matrix" values="0 0 0 0 0 0 0 0 0 0 0 0 0 0 0 0 0 0 127 0" result="hardAlpha"/>
<feOffset dy="4"/>
<feGaussianBlur stdDeviation="2"/>
<feComposite in2="hardAlpha" operator="out"/>
<feColorMatrix type="matrix" values="0 0 0 0 0 0 0 0 0 0 0 0 0 0 0 0 0 0 0.25 0"/>
<feBlend mode="normal" in2="BackgroundImageFix" result="effect1_dropShadow_37_21"/>
<feBlend mode="normal" in="SourceGraphic" in2="effect1_dropShadow_37_21" result="shape"/>
</filter>
</defs>
</svg>
